<svg class="animated" id="freepik_stories-80s" xmlns="http://www.w3.org/2000/svg" xmlns:xlink="http://www.w3.org/1999/xlink" viewBox="0 0 500 500" version="1.1" xmlns:svgjs="http://svgjs.com/svgjs"><style>svg#freepik_stories-80s:not(.animated) .animable {opacity: 0;}svg#freepik_stories-80s.animated #freepik--floor--inject-710 {animation: ;animation-delay: ;}svg#freepik_stories-80s.animated #freepik--floor--inject-710 {animation: 6s Infinite  linear shake;animation-delay: 3s;}svg#freepik_stories-80s.animated #freepik--Arcade--inject-710 {animation: 3s Infinite  linear wind;animation-delay: 0s;}svg#freepik_stories-80s.animated #freepik--Character--inject-710 {animation: 6s Infinite  linear shake;animation-delay: 0s;}            @keyframes shake {                10%, 90% {                    transform: translate3d(-1px, 0, 0);                  }                  20%, 80% {                    transform: translate3d(2px, 0, 0);                  }                  30%, 50%, 70% {                    transform: translate3d(-4px, 0, 0);                  }                  40%, 60% {                    transform: translate3d(4px, 0, 0);                  }            }                    @keyframes wind {                0% {                    transform: rotate( 0deg );                }                25% {                    transform: rotate( 1deg );                }                75% {                    transform: rotate( -1deg );                }            }        </style><g id="freepik--floor--inject-710" class="animable animator-active" style="transform-origin: 252.025px 356.735px;"><g id="freepik--floor--inject-710" class="animable" style="transform-origin: 252.025px 356.735px;"><g style="clip-path: url(&quot;#freepik--clip-path--inject-710&quot;); transform-origin: 252.025px 356.735px;" id="elz5swo6ryeu" class="animable"><ellipse id="freepik--floor--inject-710" cx="250" cy="359.35" rx="235.59" ry="125.85" style="fill: #541A64; transform-origin: 250px 359.35px;" class="animable"></ellipse><g id="freepik--floor--inject-710"><ellipse cx="250" cy="359.35" rx="235.59" ry="125.85" style="opacity: 0.45; transform-origin: 250px 359.35px;" class="animable" id="el1dnpo4x2dus"></ellipse></g><g id="freepik--Lines--inject-710"><g style="opacity: 0.4; transform-origin: 252.025px 356.735px;" class="animable" id="elig09xbwgx0o"><path d="M-169.79,436.8v-1.13c89.32,0,180.13-.25,268-.47,188.67-.47,383.75-.95,575.63.46v1.13c-191.88-1.41-387-.93-575.63-.46C10.35,436.55-80.47,436.77-169.79,436.8Z" style="fill: #541A64; transform-origin: 252.025px 435.762px;" id="elte9zlkhga7a" class="animable"></path><path d="M-133.48,390.26v-1.13c81.35,0,164-.23,244-.42,172.7-.42,351.29-.86,526.93.41v1.13c-175.65-1.26-354.23-.83-526.93-.41C30.57,390-52.13,390.23-133.48,390.26Z" style="fill: #541A64; transform-origin: 251.985px 389.271px;" id="elj8j9tr8tu1o" class="animable"></path><path d="M-103.49,351.84v-1.13c74.69,0,150.64-.21,224.09-.38,159.59-.37,324.61-.75,486.92.37v1.13c-162.3-1.12-327.32-.74-486.91-.37C47.15,351.63-28.79,351.81-103.49,351.84Z" style="fill: #541A64; transform-origin: 252.015px 350.898px;" id="elqwjwxwnbf6" class="animable"></path><path d="M-78.66,320v-1.13c69.15,0,139.45-.18,207.44-.32,148.77-.32,302.61-.66,453.91.31V320c-151.3-1-305.13-.63-453.9-.31C60.79,319.83-9.51,320-78.66,320Z" style="fill: #541A64; transform-origin: 252.015px 319.111px;" id="ellw4g5nnbd" class="animable"></path><path d="M-57.78,293.26v-1.13c64.42,0,129.92-.15,193.26-.27,139.73-.28,284.23-.56,426.34.27v1.13c-142.11-.83-286.6-.54-426.33-.27C72.14,293.11,6.64,293.24-57.78,293.26Z" style="fill: #541A64; transform-origin: 252.02px 292.419px;" id="elvzq788ga4lg" class="animable"></path><path d="M-39.68,271.92v-1.13c60.47,0,122-.12,181.42-.23,131.75-.22,268-.46,402,.23v1.13c-134-.69-270.23-.45-402-.23C82.28,271.8,20.79,271.9-39.68,271.92Z" style="fill: #541A64; transform-origin: 252.03px 271.127px;" id="ely3fx1z84zn" class="animable"></path><path d="M-23.17,254.47v-1.13c56.83,0,114.62-.1,170.5-.19,124.51-.17,253.26-.36,379.89.18v1.13c-126.62-.54-255.37-.35-379.88-.17C91.45,254.37,33.67,254.45-23.17,254.47Z" style="fill: #541A64; transform-origin: 252.025px 253.722px;" id="elvkp2qagbsl" class="animable"></path><path d="M-7.06,240.3v-1.13c53.33,0,107.54-.08,160-.13,117.41-.14,238.81-.28,358.21.13v1.13c-119.4-.41-240.8-.27-358.21-.13C100.48,240.23,46.27,240.29-7.06,240.3Z" style="fill: #541A64; transform-origin: 252.045px 239.599px;" id="elstejz5z2tz" class="animable"></path><path d="M634.76,492.18q-19.08-29.7-38.21-59.39c-20.08-31.15-41.69-64.63-68-105.35Q501.21,285.2,473.86,243L460,221.59l1-.61,13.84,21.38,54.66,84.47c26.34,40.72,47.95,74.2,68,105.35q19.13,29.69,38.22,59.39Z" style="fill: #541A64; transform-origin: 547.86px 356.58px;" id="elq0exasngr28" class="animable"></path><path d="M545.13,491.79c-24.51-49.09-49.61-98.66-73.89-146.6-20.56-40.59-41.82-82.56-62.53-123.88l1-.5c20.7,41.31,42,83.28,62.52,123.87,24.28,47.94,49.38,97.51,73.89,146.61Z" style="fill: #541A64; transform-origin: 477.415px 356.3px;" id="el9rd8n56zb66" class="animable"></path><path d="M463.86,491.57q-15.36-43-30.73-86.19c-21.5-60.38-43.74-122.82-65.92-184l1.06-.39c22.19,61.17,44.42,123.61,65.93,184q15.38,43.2,30.73,86.19Z" style="fill: #541A64; transform-origin: 416.07px 356.28px;" id="elms4k2ruos2" class="animable"></path><path d="M376.56,491.48q-6.22-29.67-12.42-59.34c-6.54-31.31-13.53-64.89-22-105.68l-17.88-86.31-3.94-19.07,1.1-.23,3.95,19.07,17.88,86.31c8.46,40.79,15.45,74.37,22,105.68q6.19,29.67,12.43,59.33Z" style="fill: #541A64; transform-origin: 349px 356.165px;" id="el4kss8xxdhyn" class="animable"></path><path d="M288.82,491.48c-1.74-30.9-3.74-62.45-5.68-93-3.69-58.14-7.51-118.27-9.68-177l1.13,0c2.17,58.73,6,118.84,9.68,177,1.94,30.51,3.94,62.06,5.68,93Z" style="fill: #541A64; transform-origin: 281.705px 356.48px;" id="elkhla6885ak" class="animable"></path><path d="M202.34,491.66l-1.12-.1c7.23-85.95,15.3-178.19,25.35-270.37l1.12.12C217.65,313.48,209.57,405.72,202.34,491.66Z" style="fill: #541A64; transform-origin: 214.455px 356.425px;" id="el6zn6xozxctv" class="animable"></path><path d="M115.44,492l-1.08-.33a176.75,176.75,0,0,0,4.28-19.24c.9-5,1.84-10.07,3.15-15.32,11.42-43.77,21.81-87,31.85-128.91,8.39-34.94,17.06-71.08,26.2-106.93l1.1.27c-9.14,35.85-17.81,72-26.2,106.93-10,41.86-20.43,85.15-31.85,128.92-1.3,5.21-2.24,10.31-3.14,15.24A176.55,176.55,0,0,1,115.44,492Z" style="fill: #541A64; transform-origin: 147.65px 356.635px;" id="ely5qx7zwr0nc" class="animable"></path><path d="M29.87,492.21l-1.08-.36c5.42-16.45,11.68-32.72,17.74-48.45,4.07-10.58,8.28-21.52,12.28-32.61,7-17.93,14.07-36,20.88-53.56C97.06,312.56,115,266.38,133.5,221.06l1.05.42C116.08,266.79,98.11,313,80.74,357.64c-6.81,17.52-13.85,35.63-20.87,53.55-4,11.09-8.21,22-12.29,32.62C41.53,459.52,35.27,475.78,29.87,492.21Z" style="fill: #541A64; transform-origin: 81.67px 356.635px;" id="ellhh5a7twl0l" class="animable"></path><path d="M-48.84,492.48l-1-.52C-1.7,398.65,49,303.07,92.68,220.8l1,.53C50,303.59-.7,399.17-48.84,492.48Z" style="fill: #541A64; transform-origin: 21.92px 356.64px;" id="elrhu80bqvmhg" class="animable"></path><path d="M-135,492.67l-.95-.61C-102.71,440.8-68.47,389-35.36,338.82c25.46-38.57,51.8-78.45,77.59-117.89l1,.62C17.38,261-8.95,300.87-34.42,339.44-67.53,389.58-101.76,441.42-135,492.67Z" style="fill: #541A64; transform-origin: -46.36px 356.8px;" id="elszrat31ymr" class="animable"></path></g></g></g></g></g><g id="freepik--Shadows--inject-710" class="animable" style="transform-origin: 260.69px 364.691px;"><g id="freepik--Shadow--inject-710"><path d="M355.47,400.81c6.92-3.68,18-3.68,24.65,0s6.69,9.63,0,13.31-17.73,3.67-24.65,0S348.55,404.49,355.47,400.81Z" style="opacity: 0.25; transform-origin: 367.701px 407.463px;" class="animable" id="elh641i0otxyq"></path></g><g id="freepik--shadow--inject-710"><ellipse cx="142.62" cy="401.8" rx="72.04" ry="41.59" style="opacity: 0.25; transform-origin: 142.62px 401.8px;" class="animable" id="elz5lbjwdjo78"></ellipse></g><g id="freepik--shadow--inject-710"><path d="M413.77,366l25.4-14.66c2.73-1.58,2.73-4.13,0-5.7L337.89,287.17a10.93,10.93,0,0,0-9.87,0L236,340.3c-2.73,1.57-2.73,4.12,0,5.7l101.27,58.47a11,11,0,0,0,9.88,0l30.07-17.36h0l37.35,21.71L450.8,387.9Z" style="opacity: 0.25; transform-origin: 342.376px 347.406px;" class="animable" id="el8n1bllqzmx6"></path></g></g><g id="freepik--Arcade--inject-710" class="animable" style="transform-origin: 323.654px 210.76px;"><g id="freepik--arcade--inject-710" class="animable" style="transform-origin: 323.654px 210.76px;"><path d="M424.16,74.94a4.32,4.32,0,0,0-1.85-3.76s-88.37-45.75-89.44-46.36-2.51-.52-4.14.41L258,66.07a13.2,13.2,0,0,0-4.29,4.29l-.06.08c-.28.44-.54.9-.78,1.34a.08.08,0,0,1,0,.07,17.7,17.7,0,0,0-1.13,2.92,10.59,10.59,0,0,0-.25,1.42l-4.12,40.49c-.2,1.91.33,3.24,1.32,3.82l1.54.89a3,3,0,0,0,.32.19c.56.31,1.25.72,2,1.18.18.09.37.22.57.32l.48.28,2.43,1.39a.12.12,0,0,0,.07,0l0,0,.2.12.3.16s0,0,0,0a0,0,0,0,0,0,0,2.83,2.83,0,0,0,1.56.09,2.43,2.43,0,0,0,.81-.3l3.94-2.32,13.22,7.64-.76,5.75-1.28,9.66-4.6,34.55a17.91,17.91,0,0,1-6.4,10.64l-35.72,25.45a16.24,16.24,0,0,0-6,10.68l-1.81,31.73a5.26,5.26,0,0,0,2.37,5l27,15.61-2.14,59.5c-.05,1.9.55,3.22,1.61,3.82l93.27,53.9a4.18,4.18,0,0,0,4.22-.38l76.23-44A12.35,12.35,0,0,0,427.78,342Z" style="fill: rgb(38, 50, 56); transform-origin: 323.654px 210.632px;" id="eljthn89thbkh" class="animable"></path><path d="M289.76,191.36A177.88,177.88,0,0,0,309.6,204.8a290.75,290.75,0,0,0,27.46,13.58c3.42,1.49,6.53-.38,6.87-4.1.51-5.43,1.17-12.18,1.66-19.33.48-7,.85-14.45,1.09-19.65.17-3.73-2.09-8.65-5.14-10.81a235.79,235.79,0,0,0-21.22-13.33c-9.92-5.57-18.4-9.73-23.77-12.24a5.55,5.55,0,0,0-8,3.74,123.87,123.87,0,0,0-3.47,22c-.35,6.49-.48,11.34-.55,15.65A15.53,15.53,0,0,0,289.76,191.36Z" style="fill: #541A64; transform-origin: 315.609px 178.59px;" id="elyzqm545igtk" class="animable"></path><g id="elwhi07frtkx"><path d="M346.68,175.3c.17-3.73-2.09-8.65-5.14-10.81a235.79,235.79,0,0,0-21.22-13.33c-9.92-5.57-18.4-9.73-23.77-12.24a5.55,5.55,0,0,0-8,3.74c-.68,2.77-1.45,6.25-2.1,10.11l59.59,34.4C346.33,182.77,346.53,178.58,346.68,175.3Z" style="opacity: 0.2; transform-origin: 316.569px 162.728px;" class="animable" id="elwtl16votzk"></path></g><path d="M255.33,343.71l2.11-72.1A7.21,7.21,0,0,0,257,269a5.29,5.29,0,0,0-5.91-3.23l-1.4.23-.4.07a5.8,5.8,0,0,1,.09,1.27l-2.53,71.5c-.05,1.87.54,3.18,1.57,3.79s7.61,4.4,8.43,4.87C255.86,346.86,255.28,345.55,255.33,343.71Z" style="fill: #541A64; transform-origin: 252.144px 306.587px;" id="elzuykeptsm7g" class="animable"></path><g id="elkkww4exuvhm"><path d="M255.33,343.71l2.11-72.1A7.21,7.21,0,0,0,257,269a5.29,5.29,0,0,0-5.91-3.23l-1.4.23-.4.07a5.8,5.8,0,0,1,.09,1.27l-2.53,71.5c-.05,1.87.54,3.18,1.57,3.79s7.61,4.4,8.43,4.87C255.86,346.86,255.28,345.55,255.33,343.71Z" style="fill: rgb(255, 255, 255); opacity: 0.7; transform-origin: 252.144px 306.587px;" class="animable" id="elg9fqa3xx3q6"></path></g><g id="el77hfywehj63"><path d="M257,269a5.29,5.29,0,0,0-5.91-3.23l-1.4.23-.4.07a5.8,5.8,0,0,1,.09,1.27l-.91,27.75,8.2,4.73.76-28.18A7.21,7.21,0,0,0,257,269Z" style="opacity: 0.3; transform-origin: 252.951px 282.747px;" class="animable" id="el18o67mayrf5"></path></g><path d="M309.41,277.72l-1.88,32.5a3.86,3.86,0,0,0,1.61,3.8c-1.22-.7-86.76-50.08-87.15-50.32a5.26,5.26,0,0,1-2.37-5L221.43,227a15.06,15.06,0,0,1,1.94-5.9l88,50.79A14.53,14.53,0,0,0,309.41,277.72Z" style="fill: rgb(69, 90, 100); transform-origin: 265.479px 267.56px;" id="elz1kl570gmng" class="animable"></path><path d="M355.12,236.83a15.06,15.06,0,0,1-4,4.76l-35.69,25.46a14.75,14.75,0,0,0-4.05,4.79l-88-50.79a14.67,14.67,0,0,1,4-4.78l35.72-25.45a16.39,16.39,0,0,0,4.14-4.73Z" style="fill: rgb(55, 71, 79); transform-origin: 289.25px 228.965px;" id="el74k90ot6kqg" class="animable"></path><path d="M285.86,115.55a6.75,6.75,0,0,0-.08-1.23c-.31-2.4-2.62-3-5.17-1.53l-2.27,1.2-8.81,66.19a17.91,17.91,0,0,1-6.4,10.64l-35.72,25.45a16.24,16.24,0,0,0-6,10.68l-1.81,31.74a5.23,5.23,0,0,0,2.5,5.09c.91.51,6.46,3.73,7.54,4.35a4,4,0,0,1-1-.86,5.33,5.33,0,0,1-1.07-3.9l1.81-31.81a16.24,16.24,0,0,1,6-10.67l34.82-24.84s.95-.67,1-.69a19.68,19.68,0,0,0,5.94-9,13.75,13.75,0,0,0,.35-1.69l7.87-62C285.4,122.35,286.11,115.52,285.86,115.55Z" style="fill: #541A64; transform-origin: 252.739px 190.062px;" id="ela11wvdn26d" class="animable"></path><g id="el1pa2gwgfgwri"><path d="M285.86,115.55a6.75,6.75,0,0,0-.08-1.23c-.31-2.4-2.62-3-5.17-1.53l-2.27,1.2-8.81,66.19a17.91,17.91,0,0,1-6.4,10.64l-35.72,25.45a16.24,16.24,0,0,0-6,10.68l-1.81,31.74a5.23,5.23,0,0,0,2.5,5.09c.91.51,6.46,3.73,7.54,4.35a4,4,0,0,1-1-.86,5.33,5.33,0,0,1-1.07-3.9l1.81-31.81a16.24,16.24,0,0,1,6-10.67l34.82-24.84s.95-.67,1-.69a19.68,19.68,0,0,0,5.94-9,13.75,13.75,0,0,0,.35-1.69l7.87-62C285.4,122.35,286.11,115.52,285.86,115.55Z" style="fill: rgb(255, 255, 255); opacity: 0.7; transform-origin: 252.739px 190.062px;" class="animable" id="elaua84qrntao"></path></g><g id="elshm0v81gntc"><path d="M285.37,122.64l-1.52,12-2,15.47-7.75-4.48,1.28-9.66.76-5.75L278.34,114l2.27-1.2c2.55-1.47,4.86-.87,5.17,1.53a6.75,6.75,0,0,1,.08,1.23C286.11,115.52,285.4,122.35,285.37,122.64Z" style="opacity: 0.2; transform-origin: 280.007px 131.057px;" class="animable" id="el9b2vloan41"></path></g><path d="M334.07,123.82l-3.31,42.49a2.52,2.52,0,0,0,1.11,2.26L325.76,165l-.9-6.72-41-23.68-7.68-4.42L263,122.58,256.77,119,255,120.62l-2.41,2.14c-.78-.46-1.47-.87-2-1.18a3,3,0,0,1-.32-.19l-1.54-.89c-1-.58-1.52-1.91-1.32-3.82l4.12-40.49a10.59,10.59,0,0,1,.25-1.42,17.7,17.7,0,0,1,1.13-2.92.08.08,0,0,0,0-.07c.24-.44.5-.9.78-1.34l.06-.08L336.2,118A13.34,13.34,0,0,0,334.07,123.82Z" style="fill: rgb(69, 90, 100); transform-origin: 291.784px 119.465px;" id="elaarlvf26k6" class="animable"></path><path d="M355.73,160.65l-1.78.68-4.74,63.36s-.14,1.72-.15,1.77a19.06,19.06,0,0,1-5.09,9.79,10.28,10.28,0,0,1-1,.8l-35.61,25.38a16.35,16.35,0,0,0-6,10.68l-1.87,32.43a4,4,0,0,0,1.57,3.86s7.23,4.15,8,4.61a3.9,3.9,0,0,1-1.58-3.79l1.88-32.5a16.33,16.33,0,0,1,6-10.67l35.69-25.46a16.26,16.26,0,0,0,6-10.68l4.56-65.83C361.88,161.36,359.22,159.37,355.73,160.65Z" style="fill: #541A64; transform-origin: 330.533px 237.136px;" id="el46c19rsva9g" class="animable"></path><g id="elrenp56ke76"><path d="M355.73,160.65l-1.78.68-4.74,63.36s-.14,1.72-.15,1.77a19.06,19.06,0,0,1-5.09,9.79,10.28,10.28,0,0,1-1,.8l-35.61,25.38a16.35,16.35,0,0,0-6,10.68l-1.87,32.43a4,4,0,0,0,1.57,3.86s7.23,4.15,8,4.61a3.9,3.9,0,0,1-1.58-3.79l1.88-32.5a16.33,16.33,0,0,1,6-10.67l35.69-25.46a16.26,16.26,0,0,0,6-10.68l4.56-65.83C361.88,161.36,359.22,159.37,355.73,160.65Z" style="fill: rgb(255, 255, 255); opacity: 0.7; transform-origin: 330.533px 237.136px;" class="animable" id="elc46s23pu9q4"></path></g><path d="M339.93,392.77l-2.14-81c-.1-3.72-3-5.71-6.53-4.42l-1.52.57c0,.77.08,2.35.08,2.42l1.65,77.57c0,1.85.71,3.16,1.8,3.77l8.39,4.85A4.25,4.25,0,0,1,339.93,392.77Z" style="fill: #541A64; transform-origin: 335.7px 351.743px;" id="ele23e4b5dma" class="animable"></path><g id="elka90nzisoom"><path d="M339.93,392.77l-2.14-81c-.1-3.72-3-5.71-6.53-4.42l-1.52.57c0,.77.08,2.35.08,2.42l1.65,77.57c0,1.85.71,3.16,1.8,3.77l8.39,4.85A4.25,4.25,0,0,1,339.93,392.77Z" style="fill: rgb(255, 255, 255); opacity: 0.7; transform-origin: 335.7px 351.743px;" class="animable" id="elng44elsyg6"></path></g><g id="elw8hvcjoa6ms"><path d="M337.79,311.72c-.1-3.72-3-5.71-6.53-4.42l-1.52.57c0,.77.08,2.35.08,2.42l.63,32.1,8.21,4.74Z" style="opacity: 0.3; transform-origin: 334.2px 327.018px;" class="animable" id="elfhb65rjendm"></path></g><g id="elc3qjr9dtwg"><path d="M355.73,160.65l-1.78.68-2.18,29.12,7.78,4.5,2.07-29.87C361.88,161.36,359.22,159.37,355.73,160.65Z" style="opacity: 0.2; transform-origin: 356.704px 177.606px;" class="animable" id="ellr580cceq4q"></path></g><path d="M424.15,75.07a4.29,4.29,0,0,0-1.84-3.75,4.22,4.22,0,0,0-4.28.37l-77.57,42.12a14.42,14.42,0,0,0-6.39,10.13l-3.3,42.49a2.48,2.48,0,0,0,1.25,2.36,2.43,2.43,0,0,0,2.13.17l21.58-8.18c3.49-1.28,6.14.71,5.88,4.42l-4.56,65.85a16.3,16.3,0,0,1-6,10.68l-35.69,25.45a16.33,16.33,0,0,0-6,10.68l-1.88,32.49a3.85,3.85,0,0,0,1.67,3.83,4.16,4.16,0,0,0,3.55.09l18.52-6.84c3.49-1.29,6.42.7,6.51,4.42l2.15,81a3.68,3.68,0,0,0,6,3.38l76.24-44a12.33,12.33,0,0,0,5.59-10.14Z" style="fill: rgb(55, 71, 79); transform-origin: 367.57px 233.996px;" id="elgf1zinr2x1s" class="animable"></path><path d="M422.3,71.17c-1.12-.64-2.62-.56-4.28.39l-77.57,42.12a13.33,13.33,0,0,0-4.25,4.3L253.71,70.36A13.4,13.4,0,0,1,258,66.07l70.73-40.84c1.63-.93,3.09-1,4.14-.41S421,70.45,422.3,71.17Z" style="fill: rgb(69, 90, 100); transform-origin: 338.005px 71.2103px;" id="el2tg9xs0fwl4" class="animable"></path><path d="M336.2,118,329,113.82l-67.53-39h0l-7.75-4.47a13.48,13.48,0,0,0-2.26,5.83l-4.12,40.49c-.19,1.86.29,3.16,1.24,3.77s7.52,4.35,7.52,4.35h0c-.95-.54-1.34-2.08-1.14-4.15L259.16,83l67.21,38.81L324,161.91a3.41,3.41,0,0,0,1.13,2.76c.46.26,6.34,3.66,6.71,3.86a3,3,0,0,1-1.06-2.22l3.31-42.49A13.34,13.34,0,0,1,336.2,118Z" style="fill: #541A64; transform-origin: 291.75px 119.44px;" id="el7u4n2b4w8jo" class="animable"></path><g id="el50bfz4s5hzk"><path d="M259.16,83l67.21,38.81L324,161.91a3.41,3.41,0,0,0,1.13,2.76c.46.26,6.34,3.66,6.71,3.86a3,3,0,0,1-1.06-2.22l3.31-42.49A13.34,13.34,0,0,1,336.2,118L329,113.82l-67.53-39h0l-7.75-4.47a13.48,13.48,0,0,0-2.26,5.83l-4.12,40.49c-.19,1.86.29,3.16,1.24,3.77s7.52,4.35,7.52,4.35h0c-.95-.54-1.34-2.08-1.14-4.15Z" style="fill: rgb(255, 255, 255); opacity: 0.7; transform-origin: 291.75px 119.44px;" class="animable" id="elmo6tppuko4h"></path></g><path d="M289,293.76a6,6,0,0,1-3-.9l-43.26-25A12.69,12.69,0,0,1,237,257.13l.69-11a4.52,4.52,0,0,1,7.29-3.92l43.25,25A12.71,12.71,0,0,1,294,278l-.69,11a5,5,0,0,1-2.37,4.34A4.1,4.1,0,0,1,289,293.76ZM242,242.67a2.72,2.72,0,0,0-1.28.31,3.72,3.72,0,0,0-1.66,3.23l-.69,11a11.22,11.22,0,0,0,5.1,9.51l43.25,25a3.2,3.2,0,0,0,5.27-2.83l.69-11a11.2,11.2,0,0,0-5.1-9.5l-43.25-25A4.79,4.79,0,0,0,242,242.67Z" style="fill: rgb(224, 224, 224); transform-origin: 265.5px 267.506px;" id="el360xodhurxz" class="animable"></path><path d="M273.56,123.14v.26c0,.42-.11.5-.49.28l-1.47-.84a2.07,2.07,0,0,1-.73-.89,2.89,2.89,0,0,1-.38-1.37l-.1-2.82-1.21-.7-.09,2.71c0,.88-.56,1.29-1.1,1l-1.47-.85a.79.79,0,0,1-.49-.8,2.11,2.11,0,0,1,0-.29l1.66-25.47c0-.64.22-.77.67-.51l2.85,1.65c.44.25.6.55.65,1.27Zm-3.76-24.8-.5,15.1,1,.57Z" style="fill: #541A64; transform-origin: 269.793px 108.262px;" id="eltkpvide26ge" class="animable"></path><path d="M283.13,128.63c0,.67-.11.79-.54.54l-1.44-.83a2,2,0,0,1-.71-.89,3,3,0,0,1-.32-1.29v-8.25a1.77,1.77,0,0,0-.72-1.38l-.69-.4v9.21a1.25,1.25,0,0,1-.31.93.55.55,0,0,1-.73.06l-1.43-.82c-.44-.25-.55-.51-.55-1.18V97.91c0-.67.11-.8.55-.54l3.23,1.86a7,7,0,0,1,2.67,3,8.85,8.85,0,0,1,1,4v7.68c0,1.45-.44,2.24-1.29,2.4a4.66,4.66,0,0,1,1.29,3.4Zm-4.42-26v9.61l.75.43c.37.21.66-.16.66-.68v-7.58a1.76,1.76,0,0,0-.72-1.38Z" style="fill: #541A64; transform-origin: 279.417px 113.268px;" id="el1pexxg6n9e2" class="animable"></path><path d="M292.23,107.54a8.78,8.78,0,0,1,1,3.9v7.2c0,.53-.18.68-.52.48l-1.53-.89a2.1,2.1,0,0,1-1-1.68v-6.63a1.74,1.74,0,0,0-.73-1.39c-.38-.22-.69.06-.69.56v19.18a1.76,1.76,0,0,0,.69,1.37c.44.25.72-.07.72-.55v-6.62c0-.69.46-.86.95-.58l1.54.89a1.12,1.12,0,0,1,.53,1.06V131a3.28,3.28,0,0,1-1.05,2.77,2.44,2.44,0,0,1-2.74-.19,7,7,0,0,1-2.66-2.93,8.61,8.61,0,0,1-1-4v-19.6a3.34,3.34,0,0,1,1-2.77,2.42,2.42,0,0,1,2.75.18A7.47,7.47,0,0,1,292.23,107.54Z" style="fill: #541A64; transform-origin: 289.475px 119.019px;" id="elawtdi7jb196" class="animable"></path><path d="M302.85,140.05v.26c0,.42-.11.5-.49.29l-1.47-.85a2.07,2.07,0,0,1-.73-.89,2.89,2.89,0,0,1-.38-1.37l-.1-2.82-1.21-.69-.09,2.7c0,.88-.56,1.29-1.1,1l-1.47-.85a.79.79,0,0,1-.49-.8,2.19,2.19,0,0,1,0-.29L297,110.25c0-.64.22-.77.67-.51l2.85,1.65c.44.25.6.55.65,1.27Zm-3.76-24.8-.5,15.1,1,.58Z" style="fill: #541A64; transform-origin: 299.083px 125.163px;" id="eli6pfjxligh" class="animable"></path><path d="M305.58,142.45c-.47-.27-.57-.52-.57-1.19V114.84c0-.67.11-.8.55-.55l3.23,1.87a7.09,7.09,0,0,1,2.67,2.94,9.07,9.07,0,0,1,1,4v18.55a3.33,3.33,0,0,1-1,2.79,2.4,2.4,0,0,1-2.74-.18ZM308,140l.75.43c.37.21.66-.14.66-.58V121.37a1.72,1.72,0,0,0-.72-1.38l-.69-.4Z" style="fill: #541A64; transform-origin: 308.746px 129.479px;" id="elyy3z98pho8d" class="animable"></path><path d="M320.24,122.77a1.3,1.3,0,0,1,.59,1.2v.69c0,1.44-.48,2-1.3,1.58l-1.51-.87v8.39l1.76,1a1.33,1.33,0,0,1,.57,1.19v.69c0,1.45-.46,2.06-1.28,1.59l-1.05-.6v8.12l1.51.87a3.36,3.36,0,0,1,1.3,3.07v.69c0,.57-.22.73-.59.52l-4.67-2.7c-.44-.25-.56-.51-.56-1.16V120.61c0-.67.11-.8.54-.55Z" style="fill: #541A64; transform-origin: 317.932px 135.465px;" id="elw2rh9umorp" class="animable"></path><path d="M263,122.58l-4.19-2.41.44-3.92,3.49-31.18-3.53-2-3.33,29.72-.68,6.12h0l-.38,3.22a2.83,2.83,0,0,0,4.22,2.79l0,0Z" id="el0m99cq5kwz2g" class="animable" style="transform-origin: 258.9px 104.183px;"></path><path d="M274.13,307.7v25a6.49,6.49,0,0,0,2.93,5.08l32.62,18.83c1.62.93,2.93.18,2.93-1.69v-25a6.47,6.47,0,0,0-2.93-5.08L277.06,306C275.44,305.07,274.13,305.83,274.13,307.7Z" style="fill: rgb(224, 224, 224); transform-origin: 293.37px 331.306px;" id="eld8x6a0rv6if" class="animable"></path><g id="el76vcvqhlkji"><path d="M312.61,332.09v-2.17a6.47,6.47,0,0,0-2.93-5.08L277.06,306c-1.62-.94-2.93-.18-2.93,1.69v2.17Z" style="opacity: 0.3; transform-origin: 293.37px 318.843px;" class="animable" id="elm1qfydnkbh"></path></g><path d="M309.19,327.17a2.56,2.56,0,0,1,1.15,2c0,.73-.49,1-1.13.65a2.5,2.5,0,0,1-1.15-2C308.06,327.1,308.56,326.81,309.19,327.17Z" style="fill: rgb(69, 90, 100); transform-origin: 309.2px 328.494px;" id="elp807145qlo9" class="animable"></path><path d="M309.19,351a2.56,2.56,0,0,1,1.15,2c0,.73-.49,1-1.13.65a2.52,2.52,0,0,1-1.15-2C308.06,351,308.56,350.68,309.19,351Z" style="fill: rgb(69, 90, 100); transform-origin: 309.2px 352.338px;" id="el804pb9kkbqb" class="animable"></path><path d="M277.23,308.49a2.57,2.57,0,0,1,1.15,2c0,.73-.49,1-1.13.66a2.54,2.54,0,0,1-1.16-2C276.09,308.43,276.6,308.13,277.23,308.49Z" style="fill: rgb(69, 90, 100); transform-origin: 277.235px 309.817px;" id="elpfscvrkqx" class="animable"></path><path d="M277.23,332.36a2.57,2.57,0,0,1,1.15,2c0,.73-.49,1-1.13.65a2.51,2.51,0,0,1-1.16-2C276.09,332.3,276.6,332,277.23,332.36Z" style="fill: rgb(69, 90, 100); transform-origin: 277.235px 333.685px;" id="elf33qg8az7nc" class="animable"></path><path d="M288.94,325.6l2,1.15a3.87,3.87,0,0,1,1.75,3v2.29c0,1.12-.78,1.58-1.75,1l-2-1.14a3.87,3.87,0,0,1-1.75-3v-2.29C287.19,325.5,288,325,288.94,325.6Z" style="fill: rgb(69, 90, 100); transform-origin: 289.94px 329.318px;" id="eljt35t0h0tf" class="animable"></path><path d="M298.18,331.61v5a1.27,1.27,0,0,0,.59,1l.19.12c.33.18.59,0,.59-.34v-5a1.28,1.28,0,0,0-.59-1l-.19-.12C298.44,331.09,298.18,331.24,298.18,331.61Z" style="fill: rgb(69, 90, 100); transform-origin: 298.865px 334.497px;" id="elpkamhhnkn59" class="animable"></path><path d="M295.31,330v5a1.3,1.3,0,0,0,.59,1l.2.12c.32.19.58,0,.58-.34v-5a1.3,1.3,0,0,0-.58-1l-.2-.11C295.58,329.43,295.31,329.58,295.31,330Z" style="fill: rgb(69, 90, 100); transform-origin: 295.995px 332.875px;" id="ellkbwicnuv1h" class="animable"></path><path d="M264.63,221.3a8.23,8.23,0,0,0-3,0h-3.49V224h0a2.47,2.47,0,0,0,1.45,2,7.72,7.72,0,0,0,7,0,2.49,2.49,0,0,0,1.46-2h0V221.3Z" style="fill: #541A64; transform-origin: 263.095px 224.001px;" id="elto38gf0x6q" class="animable"></path><g id="elx3zmove4xv"><path d="M264.63,221.3a8.23,8.23,0,0,0-3,0h-3.49V224h0a2.47,2.47,0,0,0,1.45,2,7.72,7.72,0,0,0,7,0,2.49,2.49,0,0,0,1.46-2h0V221.3Z" style="opacity: 0.2; transform-origin: 263.095px 224.001px;" class="animable" id="elsbsg1p8n2v"></path></g><path d="M259.62,223.33a7.75,7.75,0,0,0,7,0c1.94-1.13,1.94-3,0-4.07a7.72,7.72,0,0,0-7,0C257.69,220.39,257.69,222.21,259.62,223.33Z" style="fill: #541A64; transform-origin: 263.124px 221.293px;" id="elllg2xvkq32s" class="animable"></path><path d="M281.12,211.86a8.65,8.65,0,0,0-3,0h-3.5v2.73h0a2.48,2.48,0,0,0,1.45,2,7.75,7.75,0,0,0,7,0,2.49,2.49,0,0,0,1.46-2h0v-2.73Z" style="fill: #541A64; transform-origin: 279.575px 214.577px;" id="eledwfuhlb9km" class="animable"></path><g id="ellv0z3jmo9uh"><path d="M281.12,211.86a8.65,8.65,0,0,0-3,0h-3.5v2.73h0a2.48,2.48,0,0,0,1.45,2,7.75,7.75,0,0,0,7,0,2.49,2.49,0,0,0,1.46-2h0v-2.73Z" style="opacity: 0.2; transform-origin: 279.575px 214.577px;" class="animable" id="el7cob5r7qwg4"></path></g><path d="M276.12,213.9a7.72,7.72,0,0,0,7,0c1.93-1.12,1.94-2.94,0-4.06a7.75,7.75,0,0,0-7,0C274.18,211,274.18,212.78,276.12,213.9Z" style="fill: #541A64; transform-origin: 279.618px 211.872px;" id="elrg3ervxg34s" class="animable"></path><path d="M315.18,239.15,304.54,233a6.5,6.5,0,0,0-5.86,0l-10.63,6.14a2,2,0,0,0-1.2,1.69v1.55a2,2,0,0,0,1.2,1.64l10.63,6.14a6.44,6.44,0,0,0,5.86,0L315.18,244a2,2,0,0,0,1.19-1.63c0-.27,0-1.31,0-1.56A2,2,0,0,0,315.18,239.15Z" style="fill: #541A64; transform-origin: 301.61px 241.584px;" id="el8o06591dxvs" class="animable"></path><path d="M288.05,242.53l10.63,6.14a6.5,6.5,0,0,0,5.86,0l10.64-6.14c1.61-.93,1.61-2.45,0-3.38L304.54,233a6.5,6.5,0,0,0-5.86,0l-10.63,6.14C286.43,240.08,286.43,241.6,288.05,242.53Z" style="fill: #541A64; transform-origin: 301.611px 240.835px;" id="el7lvz3uhte3c" class="animable"></path><g id="el2r0hjskgo56"><path d="M288.05,242.53l10.63,6.14a6.5,6.5,0,0,0,5.86,0l10.64-6.14c1.61-.93,1.61-2.45,0-3.38L304.54,233a6.5,6.5,0,0,0-5.86,0l-10.63,6.14C286.43,240.08,286.43,241.6,288.05,242.53Z" style="fill: rgb(255, 255, 255); opacity: 0.7; transform-origin: 301.611px 240.835px;" class="animable" id="elbnldvbdxvxt"></path></g><path d="M302.3,225a3.17,3.17,0,0,0-1.19,0h-1.4v14.56h0a1,1,0,0,0,.58.82,3.11,3.11,0,0,0,2.82,0,1,1,0,0,0,.59-.82h0V225Z" style="fill: rgb(245, 245, 245); transform-origin: 301.705px 232.831px;" id="elqzq0wynca2k" class="animable"></path><g id="el3o4anxyovw2"><path d="M301.11,225h-1.4v2.67a5,5,0,0,0,4-.08V225h-1.4A3.17,3.17,0,0,0,301.11,225Z" style="opacity: 0.1; transform-origin: 301.71px 226.496px;" class="animable" id="elf0ubdgqgvx6"></path></g><path d="M306.7,221.41a5.09,5.09,0,1,1-5.09-5.09A5.08,5.08,0,0,1,306.7,221.41Z" style="fill: #541A64; transform-origin: 301.61px 221.41px;" id="elnkjvc69ma7m" class="animable"></path><g id="elpifsbkux1np"><path d="M301.7,223.43c-3.13-.8-4.39-3.91-3.26-6a5.08,5.08,0,1,0,8.26,3.95C306.77,222.27,304.86,224.24,301.7,223.43Z" style="opacity: 0.1; transform-origin: 301.621px 221.951px;" class="animable" id="elhz621galktn"></path></g><g id="el2oyebnxg1e"><polygon points="426.59 250.57 425.99 210.3 338.63 343.8 339.68 383.35 426.59 250.57" style="fill: #541A64; opacity: 0.8; transform-origin: 382.61px 296.825px;" class="animable" id="eljwcl0zta2uq"></polygon></g><g id="el7bvg84raoxw"><path d="M426.59,250.57,339.68,383.35l.25,9.41a3.69,3.69,0,0,0,6,3.39l7.79-4.5L427,279.77Z" style="fill: #541A64; opacity: 0.4; transform-origin: 383.34px 323.783px;" class="animable" id="eljgf4in3h4s"></path></g><g id="elhx5nporima5"><polygon points="427.17 296.92 426.96 279.77 353.74 391.65 372.14 381.03 427.17 296.92" style="fill: #541A64; opacity: 0.15; transform-origin: 390.455px 335.71px;" class="animable" id="el19w9hz67798"></polygon></g><g id="freepik--skate-shadow--inject-710"><path d="M427.78,342,427,285,419,288l-38.15,14V376l41.3-23.84A12.33,12.33,0,0,0,427.78,342Z" style="opacity: 0.2; transform-origin: 404.315px 330.5px;" class="animable" id="elbkjl8k4rqr"></path></g></g></g><g id="freepik--Skateboard--inject-710" class="animable" style="transform-origin: 416.033px 337.797px;"><g id="freepik--skateboard--inject-710" class="animable" style="transform-origin: 416.033px 337.797px;"><path d="M418.48,381.18l-2.71-10.11a1.08,1.08,0,0,1,.61-1.25l9.39-3.75a2,2,0,0,1,1.59.12l.13.07,0,0a2.06,2.06,0,0,1,.51.51,2.72,2.72,0,0,1,.44.84l2.95,11-10.26,4.09a1.73,1.73,0,0,1-.91.09,1.56,1.56,0,0,1-.68-.21l-.12-.08A2.6,2.6,0,0,1,418.48,381.18Z" style="fill: rgb(55, 71, 79); transform-origin: 423.564px 374.387px;" id="el5yv8cqmuvm" class="animable"></path><path d="M420.26,382.84l-2.85-10.62a1.23,1.23,0,0,1,.7-1.44l9.14-3.65a.92.92,0,0,1,1.26.66l2.92,10.87-10.26,4.09A1.73,1.73,0,0,1,420.26,382.84Z" style="fill: rgb(69, 90, 100); transform-origin: 424.4px 374.961px;" id="el5nkjv2nrrzj" class="animable"></path><path d="M443,378.66c1.53.52,4.22-.68,5.19-2s1.05-3.14.24-6.16-1.66-4.52-3.18-4.8a6.76,6.76,0,0,0-5.13,2.14,13,13,0,0,0,0,6A10.74,10.74,0,0,0,443,378.66Z" style="fill: rgb(55, 71, 79); transform-origin: 444.376px 372.241px;" id="eln5n0a8ja8bj" class="animable"></path><path d="M440.14,373.83c-.81-3-.7-5.79.24-6.17s2.37,1.77,3.18,4.8.7,5.79-.24,6.17S441,376.85,440.14,373.83Z" style="fill: rgb(69, 90, 100); transform-origin: 441.85px 373.145px;" id="eld1bml2mfb67" class="animable"></path><path d="M425.88,380.88l16.3-6.51c.49-.2-.17-2.67-.66-2.47l-8.25,3.29c-4.82,1.93-5.38-3.24-9.36-1.66s-1.93,6.17-6.75,8.1l-8.24,3.29.66,2.46Z" style="fill: #541A64; transform-origin: 425.636px 379.634px;" id="elvot4rttgaog" class="animable"></path><path d="M423,378a2.33,2.33,0,0,1,1.32-2.74,1.76,1.76,0,0,1,2.39,1.25,2.36,2.36,0,0,1-1.32,2.74A1.76,1.76,0,0,1,423,378Z" style="fill: rgb(55, 71, 79); transform-origin: 424.852px 377.255px;" id="elkamvfcc8afb" class="animable"></path><path d="M406.76,393.12c1.53.52,4.22-.68,5.18-2s1.05-3.14.24-6.16-1.65-4.52-3.17-4.8a6.76,6.76,0,0,0-5.13,2.14,13,13,0,0,0,0,6A10.74,10.74,0,0,0,406.76,393.12Z" style="fill: rgb(38, 50, 56); transform-origin: 408.129px 386.701px;" id="elr9amq443qog" class="animable"></path><path d="M403.92,388.29c-.81-3-.71-5.79.24-6.17s2.36,1.77,3.17,4.8.71,5.79-.23,6.17S404.73,391.31,403.92,388.29Z" style="fill: rgb(69, 90, 100); transform-origin: 405.625px 387.605px;" id="elana8h7j9vlo" class="animable"></path><path d="M399,308.31l-2.7-10.1a1.07,1.07,0,0,1,.6-1.25l9.34-3.72a2.1,2.1,0,0,1,1.65.1l.13.07,0,0a2.24,2.24,0,0,1,.51.51,2.49,2.49,0,0,1,.43.84l2.67,10a1.22,1.22,0,0,1-.69,1.44l-9.28,3.71a2,2,0,0,1-.92.09,1.71,1.71,0,0,1-.67-.22l-.12-.07A2.73,2.73,0,0,1,399,308.31Z" style="fill: rgb(55, 71, 79); transform-origin: 403.969px 301.568px;" id="ele4tbc22yafl" class="animable"></path><path d="M400.52,309.18l-2.63-9.82a1.22,1.22,0,0,1,.69-1.44l9.15-3.65a.93.93,0,0,1,1.26.66l2.63,9.82a1.22,1.22,0,0,1-.7,1.44l-9.14,3.65A.92.92,0,0,1,400.52,309.18Z" style="fill: rgb(69, 90, 100); transform-origin: 404.754px 302.057px;" id="eluk8s1t1fawr" class="animable"></path><path d="M417.61,284a5.84,5.84,0,0,1,5.14-2.16c1.4.35,2.36,1.78,3.18,4.8s.85,4.84-.24,6.17a6.76,6.76,0,0,1-5.18,2,10.7,10.7,0,0,1-2.85-4.84A13,13,0,0,1,417.61,284Z" style="fill: rgb(55, 71, 79); transform-origin: 421.908px 288.316px;" id="el5e6m5yfs5nx" class="animable"></path><path d="M417.66,289.93c.81,3,2.23,5.18,3.18,4.8s1.05-3.13.24-6.16-2.24-5.18-3.18-4.8S416.85,286.91,417.66,289.93Z" style="fill: rgb(69, 90, 100); transform-origin: 419.372px 289.25px;" id="elmomlymto3cj" class="animable"></path><path d="M402.74,294.53,419,288c.5-.2,1.16,2.26.66,2.46l-8.24,3.29c-4.82,1.93-2.77,6.51-6.75,8.1s-4.55-3.59-9.36-1.66l-8.25,3.29-.66-2.47Z" style="fill: #541A64; transform-origin: 403.119px 295.734px;" id="el3ncxqhnze83" class="animable"></path><path d="M401.87,299a1.76,1.76,0,0,0,2.39,1.25,2.35,2.35,0,0,0,1.32-2.74,1.76,1.76,0,0,0-2.39-1.25A2.33,2.33,0,0,0,401.87,299Z" style="fill: rgb(55, 71, 79); transform-origin: 403.723px 298.255px;" id="el0717fcgw0ni8" class="animable"></path><path d="M381.39,298.45a5.86,5.86,0,0,1,5.14-2.16c1.4.35,2.36,1.78,3.17,4.8s.86,4.84-.24,6.17a6.73,6.73,0,0,1-5.17,2,10.7,10.7,0,0,1-2.85-4.84A13,13,0,0,1,381.39,298.45Z" style="fill: rgb(55, 71, 79); transform-origin: 385.683px 302.766px;" id="eln9ynf61mz2" class="animable"></path><path d="M381.44,304.39c.81,3,2.23,5.18,3.18,4.8s1.05-3.13.24-6.16-2.24-5.18-3.18-4.8S380.63,301.37,381.44,304.39Z" style="fill: rgb(69, 90, 100); transform-origin: 383.152px 303.71px;" id="el6vbz1rdifi9" class="animable"></path><path d="M450.79,385.93,446,377.64c-2.13-3.53-2.59-7.75-3.21-11.83-2.38-15.76-9-57.27-14-69.08-4.52-10.6-11.74-22.52-19.24-26.78-3.71-3-7.55-4.27-11.23-2.8h0c-10.19,4.07-10.28,33.6-9,42.53,3.18,22.66,15.9,54.71,21.2,67.4a28.32,28.32,0,0,1,2.18,11.64l-1.24,16.73a1.77,1.77,0,0,0,.58,1.6c.43.31,2.21,1.54,2.64,1.81a1.71,1.71,0,0,0,1.74-.09l33.28-19.06A2.71,2.71,0,0,0,450.79,385.93Z" style="fill: #541A64; transform-origin: 419.958px 337.797px;" id="eliso64fg82a" class="animable"></path><g id="el8japajh13iw"><path d="M450.79,385.93,446,377.64c-2.13-3.53-2.59-7.75-3.21-11.83-2.38-15.76-9-57.27-14-69.08-4.52-10.6-11.74-22.52-19.24-26.78-3.71-3-7.55-4.27-11.23-2.8h0c-10.19,4.07-10.28,33.6-9,42.53,3.18,22.66,15.9,54.71,21.2,67.4a28.32,28.32,0,0,1,2.18,11.64l-1.24,16.73a1.77,1.77,0,0,0,.58,1.6c.43.31,2.21,1.54,2.64,1.81a1.71,1.71,0,0,0,1.74-.09l33.28-19.06A2.71,2.71,0,0,0,450.79,385.93Z" style="opacity: 0.5; transform-origin: 419.958px 337.797px;" class="animable" id="el27wu2qcu10p"></path></g><path d="M400.92,268.93c10.19-4.07,21.63,13.12,27.88,27.8,5,11.81,11.61,53.32,14,69.08.62,4.08,1.08,8.3,3.21,11.83l4.79,8.29a2.71,2.71,0,0,1-1.11,3.78L416.4,408.77c-1.4.72-2.46,0-2.36-1.53l1.23-16.74a28.19,28.19,0,0,0-2.18-11.64c-5.3-12.69-18-44.74-21.2-67.4-1.25-8.93-1.16-38.46,9-42.53Z" style="fill: #541A64; transform-origin: 421.255px 338.687px;" id="eldd7ylea2seo" class="animable"></path><g id="el7mwppiwkc0q"><path d="M400.92,268.93c10.19-4.07,21.63,13.12,27.88,27.8,5,11.81,11.61,53.32,14,69.08.62,4.08,1.08,8.3,3.21,11.83l4.79,8.29a2.71,2.71,0,0,1-1.11,3.78L416.4,408.77c-1.4.72-2.46,0-2.36-1.53l1.23-16.74a28.19,28.19,0,0,0-2.18-11.64c-5.3-12.69-18-44.74-21.2-67.4-1.25-8.93-1.16-38.46,9-42.53Z" style="opacity: 0.25; transform-origin: 421.255px 338.687px;" class="animable" id="elqf27dfmeee"></path></g><path d="M451.15,387.51c-3.37-2.88-13.94-12.37-18.28-21.92C429,357,421,316.41,418.13,278.11c-.27-.34-.54-.73-.8-1.13-5.17-6.33-11-10.22-16.41-8.05h0c-5.36,2.14-7.93,11.34-9,20.88,14.4,27.11,27.66,69.86,29.31,78.1s-5.16,34.21-6.95,40.59c.4.6,1.16.75,2.09.27l33.28-19.06A2.71,2.71,0,0,0,451.15,387.51Z" style="fill: #541A64; transform-origin: 421.535px 338.69px;" id="ely6s66urmtvo" class="animable"></path><g id="elv90tardt4k"><path d="M451.15,387.51c-3.37-2.88-13.94-12.37-18.28-21.92C429,357,421,316.41,418.13,278.11c-.27-.34-.54-.73-.8-1.13-5.17-6.33-11-10.22-16.41-8.05h0c-5.36,2.14-7.93,11.34-9,20.88,14.4,27.11,27.66,69.86,29.31,78.1s-5.16,34.21-6.95,40.59c.4.6,1.16.75,2.09.27l33.28-19.06A2.71,2.71,0,0,0,451.15,387.51Z" style="fill: rgb(255, 255, 255); opacity: 0.4; transform-origin: 421.535px 338.69px;" class="animable" id="els6muf101k9"></path></g></g></g><g id="freepik--Soda--inject-710" class="animable" style="transform-origin: 367.705px 372.424px;"><g id="freepik--soda--inject-710" class="animable" style="transform-origin: 367.705px 372.424px;"><g id="freepik--Coffe--inject-710" class="animable" style="transform-origin: 367.705px 380.548px;"><path d="M352.27,364.56l30.87,0L380,405.16h0c-.14,1.48-1.3,2.94-3.51,4.06-4.71,2.41-12.49,2.41-17.36,0-2.29-1.12-3.49-2.58-3.63-4.06h0Z" style="fill: #541A64; transform-origin: 367.705px 387.794px;" id="eldiouo3cpp5v" class="animable"></path><path d="M350.83,364.65v-6.42h3.49a16.91,16.91,0,0,1,1.54-.84c6.7-3.19,17.38-3.19,23.86,0a15.4,15.4,0,0,1,1.47.84h3.39v6.42h0c0,2.09-1.62,4.19-4.86,5.78-6.48,3.19-17.16,3.19-23.86,0C352.51,368.83,350.83,366.74,350.83,364.65Z" style="fill: rgb(230, 230, 230); transform-origin: 367.705px 363.91px;" id="elz81z06mnk9h" class="animable"></path><path d="M355.86,352.46c6.7-3.19,17.38-3.19,23.86,0s6.48,8.36,0,11.55-17.16,3.19-23.86,0S349.16,355.65,355.86,352.46Z" style="fill: rgb(245, 245, 245); transform-origin: 367.707px 358.235px;" id="elz2wvpp38j9" class="animable"></path></g><g id="elbutp64shvi5"><path d="M354.65,395.16c10.48.89,22.6-6,27.32-15.49l.45-5.75c-4.41,10.15-17.24,17.54-28.14,16.4Z" style="opacity: 0.3; transform-origin: 368.35px 384.579px;" class="animable" id="eleuimjfeum4q"></path></g><g id="elxsqk0gtybx"><path d="M354.91,398.52c10.2.74,21.87-5.77,26.75-14.91l.31-3.94c-4.72,9.54-16.84,16.38-27.32,15.49Z" style="opacity: 0.2; transform-origin: 368.31px 389.124px;" class="animable" id="elwtifwn63wao"></path></g><g id="elc8sfayo48da"><path d="M355.12,401.14c10,.64,21.33-5.64,26.31-14.49l.23-3c-4.88,9.14-16.55,15.65-26.75,14.91Z" style="opacity: 0.1; transform-origin: 368.285px 392.417px;" class="animable" id="elssslkkjd21o"></path></g><path d="M366.07,357.44a4.2,4.2,0,0,1,3.3,0c.89.44.89,1.15,0,1.59a4.29,4.29,0,0,1-3.3,0C365.14,358.59,365.14,357.88,366.07,357.44Z" style="fill: rgb(55, 71, 79); transform-origin: 367.705px 358.231px;" id="elis7b1vrxvdc" class="animable"></path><path d="M364.26,334.36l-4.63,3.48,1.29,2.26,4.4-3.3c.51-.39,1.18.05,1.19.77l.12,20.66h2.07v-21C368.7,334.56,366.19,332.91,364.26,334.36Z" style="fill: rgb(55, 71, 79); transform-origin: 364.165px 346.025px;" id="elrdl1vbdo8rm" class="animable"></path><path d="M360.81,338.56c.34.62.4,1.31.11,1.54s-.8-.1-1.15-.73-.4-1.32-.11-1.54S360.46,337.93,360.81,338.56Z" style="fill: rgb(38, 50, 56); transform-origin: 360.288px 338.967px;" id="elmsv79h2hdla" class="animable"></path></g></g><g id="freepik--Lightnings--inject-710" class="animable" style="transform-origin: 75.32px 101.215px;"><g id="freepik--lightnings--inject-710" class="animable" style="transform-origin: 75.32px 101.215px;"><polygon points="50.27 70.79 77.15 86.79 67.36 94.7 85.7 107.55 73.06 115.03 97.68 135.55 60.81 114.9 71.28 106 49.27 95.39 63.46 85.67 50.27 70.79" style="fill: #541A64; transform-origin: 73.475px 103.17px;" id="el5gmyvwq479s" class="animable"></polygon><polygon points="96.69 107.56 85.02 94 91.67 83.88 73.48 66.88 101.37 81.84 90.85 94 96.69 107.56" style="fill: #541A64; transform-origin: 87.425px 87.22px;" id="elftj53arm1js" class="animable"></polygon></g></g><g id="freepik--Character--inject-710" class="animable" style="transform-origin: 148.833px 259.41px;"><g id="freepik--character--inject-710" class="animable" style="transform-origin: 148.833px 259.41px;"><path d="M111.29,152.4c-4.37,1.49-9.36,1.15-14.7,12.32s-11.88,23.33-13.25,28.11,1.29,9.48,8,9.4,17.65.27,17.65.27Z" style="fill: rgb(255, 168, 167); transform-origin: 97.1404px 177.45px;" id="elqzka574yzu" class="animable"></path><path d="M117.52,152.06c-3-.88-7.73-.47-11.44,1.06s-7.49,4-11.6,13.12c-4,8.91-8.7,18.91-8.7,18.91.74,6.33,14.22,15.15,23.62,12.25l8.92-43.26Z" style="fill: rgb(55, 71, 79); transform-origin: 102.05px 174.786px;" id="el3mmzq4ujh2m" class="animable"></path><path d="M156.23,173.77l-.87-.48c3.47-6.34,3.86-11.66,1.11-15-2.54-3.08-7.61-3.95-12.9-2.24l-.31-.94c5.69-1.84,11.17-.84,14,2.55C159,159.79,161.19,164.7,156.23,173.77Z" style="fill: rgb(38, 50, 56); transform-origin: 151.268px 163.985px;" id="eld72uflm7et" class="animable"></path><path d="M126.3,374.4c.36,2,1.33,3.58-1.09,8.3-1.88,3.67-4.75,5.26-6.58,6.64a29,29,0,0,0-5.46,5.54,25.46,25.46,0,0,1-5.72,6c-1.74,1.25-6.28,1-8.38-.14s-2.76-3-2.31-6.47,11.12-3.73,11.12-3.73Z" style="fill: rgb(38, 50, 56); transform-origin: 111.712px 388.056px;" id="elxsubu0vwpai" class="animable"></path><path d="M97,354.46l1.78,32.36c.07,1.9,10.61,3.87,12.72-.56a73.44,73.44,0,0,1,1.18-10c.69-3.27,1.85-9,1.85-9,.94-6.78,1.27-11.78,1.27-11.78Z" style="fill: rgb(255, 168, 167); transform-origin: 106.4px 371.701px;" id="el6wnne31hhf" class="animable"></path><path d="M145.68,367.5s6.09,29.76,6.29,31.4,4.9,2.54,8.34,2.3,5.41-1.91,5.34-2.65l-.39-32Z" style="fill: rgb(255, 168, 167); transform-origin: 155.666px 383.894px;" id="elzv3coc8poa" class="animable"></path><path d="M139.74,327.77s-.65-5.75-4.73-23c-2.83-12-5.31-24.85-5.31-24.85s-3.66,15.78-5.64,28.19c-1.43,9-2.88,17.53-5.68,34.73a213.14,213.14,0,0,1-4.64,22.44c-6.5,3.78-16.36.12-16.36.12s-.81-10.39-1.17-23.25c-.47-16.7,2.92-23.37,2.92-23.37s.54-22.55.57-39.17c0-23.6-1.54-45.51,3.3-64.08.85-.26,48.59-25.72,51.12,5.38.62,7.68,4.13,28,5.31,44.39,2,27.82,3.9,49.42,4.3,58.91.54,9.12,1,17.68,1.45,34.73.21,7.44,0,13.77,0,13.77-6.07,4.43-19.62-.18-19.62-.18s-.88-7.3-3.13-17.58C138.51,336.93,139.74,327.77,139.74,327.77Z" style="fill: #541A64; transform-origin: 130.719px 290.052px;" id="el5xty54jo8re" class="animable"></path><g id="elru9d1mfgzc"><path d="M139.74,327.77s-.65-5.75-4.73-23c-2.83-12-5.31-24.85-5.31-24.85s-3.66,15.78-5.64,28.19c-1.43,9-2.88,17.53-5.68,34.73a213.14,213.14,0,0,1-4.64,22.44c-6.5,3.78-16.36.12-16.36.12s-.81-10.39-1.17-23.25c-.47-16.7,2.92-23.37,2.92-23.37s.54-22.55.57-39.17c0-23.6-1.54-45.51,3.3-64.08.85-.26,48.59-25.72,51.12,5.38.62,7.68,4.13,28,5.31,44.39,2,27.82,3.9,49.42,4.3,58.91.54,9.12,1,17.68,1.45,34.73.21,7.44,0,13.77,0,13.77-6.07,4.43-19.62-.18-19.62-.18s-.88-7.3-3.13-17.58C138.51,336.93,139.74,327.77,139.74,327.77Z" style="fill: rgb(255, 255, 255); opacity: 0.65; transform-origin: 130.719px 290.052px;" class="animable" id="eluca1lrmd0ad"></path></g><g id="elsseorw2fs5q"><g style="opacity: 0.2; transform-origin: 136.662px 246.61px;" class="animable" id="el4fp9ueis488"><path d="M135.83,259a1.38,1.38,0,0,1-.71-.17c-.87-.48-9.56-6.63-9.56-8.78v-.69a130.29,130.29,0,0,1,.69-14.67l0-.47,21.5.69v.48c0,.56.24,13.86-.92,16.44-1,2.24-6.76,5.93-9.66,6.89A4.78,4.78,0,0,1,135.83,259ZM127.2,235.2a130,130,0,0,0-.64,14.1v.7c0,1.21,7.17,6.85,9.05,7.91,0,0,.27.15,1.3-.19,2.88-1,8.24-4.52,9.06-6.35s.9-11.44.84-15.54Z" id="elt3lvvh15uwr" class="animable" style="transform-origin: 136.662px 246.61px;"></path></g></g><g id="elj7kklj37cla"><g style="opacity: 0.2; transform-origin: 104.97px 242.765px;" class="animable" id="eltay22a8s11s"><path d="M99.49,254.38l-.23-1c3.55-1.89,8.73-5,9.09-6,.45-1.23,1.05-9.74,1.28-13.44-1.11-.24-4.41-.93-9.42-1.79l.17-1c6.24,1.07,9.85,1.87,9.88,1.88l.42.1,0,.42c-.07,1.27-.76,12.5-1.36,14.15S101,253.59,99.49,254.38Z" id="ellbzdy2kc51r" class="animable" style="transform-origin: 104.97px 242.765px;"></path></g></g><path d="M165.27,364.16v2.38s-1.82,2.58-10,3.07S144.81,368,144.81,368l-.34-2c-1.3.35-1,1.9,0,5.75s1.86,7.18,2.73,8,5.35,2,10.19,1.56,7.9-2.54,8.7-3.73.91-5.87,1-8.38S166.7,364.2,165.27,364.16Z" style="fill: #541A64; transform-origin: 155.352px 372.783px;" id="el1gw54qmt1pjj" class="animable"></path><path d="M116.48,353.32l-.48,2.4s-1.8,2.17-10,1.82-9.27-2.65-9.27-2.65L96.63,353c-1.74.34-2.13,1.73-1.54,5.67S96.21,366,97,366.82s5.11,2.5,10,2.6,7.08-1.49,8-2.6,1.58-6.23,2-8.72S117.9,353.52,116.48,353.32Z" style="fill: #541A64; transform-origin: 106.132px 361.212px;" id="el4vtrk6lphi6" class="animable"></path><g id="el86l7mh0sr5"><path d="M129.7,279.89l-4.45-18.34A17.86,17.86,0,0,1,115.15,250s-.3,8.47,7.24,12.48l5.28,17.43-1.25,15.25Z" style="opacity: 0.2; transform-origin: 122.424px 272.58px;" class="animable" id="el3fgg88prw0f"></path></g><path d="M194.21,416.72c.52,2.9-.55,5.38-4.32,7.46s-9.64,2.7-15.76.79-9-4.66-11.56-5.35-8.87-.88-11.38-1.67-2.45-3.08-2.38-6.12Z" style="fill: rgb(38, 50, 56); transform-origin: 171.56px 418.974px;" id="el7wt4jeoe2ic" class="animable"></path><path d="M148.94,397.61a23.93,23.93,0,0,1,.54,2.78,7.58,7.58,0,0,1,0,3,20.25,20.25,0,0,0-.67,3.09,20.65,20.65,0,0,0-.26,3.68,5.58,5.58,0,0,0,.85,3,7,7,0,0,0,4.11,2.29,24.09,24.09,0,0,0,5.15.48c3.47.05,8.83,2.51,12.49,4.65s7.93,2.3,12,1.91c4.78-.46,9.77-3.13,10.58-5.09s1-3.44-10.1-8.45c-2.65-1.2-5.31-2.32-7.89-3.7-1.59-.85-3.16-1.72-4.66-2.72a10.32,10.32,0,0,1-2.5-1.83,4.55,4.55,0,0,1-1-2.81,16.1,16.1,0,0,1,.36-3.15c.22-1.4.37-2.81.46-4.23a3.34,3.34,0,0,0-.14-1.51c-.44-1-1.78-1.15-2.72-1v1.88c-.57,1-1.9,1-3,1.16a5.73,5.73,0,0,0-3.09,1.2c-.88.86-.94,2.24-1,3.47,0,.85-.34,4-1.86,2.28a3,3,0,0,1-.55-1.22c-.49-1.88-.89-4-2.55-5-.74-.44-2.5-.65-3.15-1.22l-.59-2.91a3.07,3.07,0,0,0-1.88,1.53,6.52,6.52,0,0,0-.31,2.94,20.21,20.21,0,0,0,.82,3.5C148.58,396.24,148.77,396.92,148.94,397.61Z" style="fill: #541A64; transform-origin: 170.786px 405.149px;" id="els8qa53dyiv" class="animable"></path><g id="el77r31gc6a1w"><g style="opacity: 0.4; transform-origin: 170.786px 405.149px;" class="animable" id="elokzqariqrh"><path d="M148.94,397.61a23.93,23.93,0,0,1,.54,2.78,7.58,7.58,0,0,1,0,3,20.25,20.25,0,0,0-.67,3.09,20.65,20.65,0,0,0-.26,3.68,5.58,5.58,0,0,0,.85,3,7,7,0,0,0,4.11,2.29,24.09,24.09,0,0,0,5.15.48c3.47.05,8.83,2.51,12.49,4.65s7.93,2.3,12,1.91c4.78-.46,9.77-3.13,10.58-5.09s1-3.44-10.1-8.45c-2.65-1.2-5.31-2.32-7.89-3.7-1.59-.85-3.16-1.72-4.66-2.72a10.32,10.32,0,0,1-2.5-1.83,4.55,4.55,0,0,1-1-2.81,16.1,16.1,0,0,1,.36-3.15c.22-1.4.37-2.81.46-4.23a3.34,3.34,0,0,0-.14-1.51c-.44-1-1.78-1.15-2.72-1v1.88c-.57,1-1.9,1-3,1.16a5.73,5.73,0,0,0-3.09,1.2c-.88.86-.94,2.24-1,3.47,0,.85-.34,4-1.86,2.28a3,3,0,0,1-.55-1.22c-.49-1.88-.89-4-2.55-5-.74-.44-2.5-.65-3.15-1.22l-.59-2.91a3.07,3.07,0,0,0-1.88,1.53,6.52,6.52,0,0,0-.31,2.94,20.21,20.21,0,0,0,.82,3.5C148.58,396.24,148.77,396.92,148.94,397.61Z" id="el2jr2aqzy7ry" class="animable" style="transform-origin: 170.786px 405.149px;"></path></g></g><path d="M172.71,421.37s1.16-9.63,9.06-12.23c7.13-2.35,13.22,3,12.44,7.58C193.68,419.78,184.91,426.58,172.71,421.37Z" style="fill: rgb(250, 250, 250); transform-origin: 183.494px 415.921px;" id="elcr9ct5rz3ud" class="animable"></path><path d="M179.82,407.29a9.14,9.14,0,0,0-5.4,2.27c-2.3,1.86-2.39,3.12-2.39,3.12a1.19,1.19,0,0,1-2-1s.62-4.85,7.05-5.72A2.62,2.62,0,0,1,179.82,407.29Z" style="fill: rgb(250, 250, 250); transform-origin: 174.921px 409.464px;" id="eluvg25avcj2" class="animable"></path><path d="M175.37,405.05a8,8,0,0,0-5.44,2c-2.3,1.86-2.35,3.36-2.35,3.36a1.19,1.19,0,0,1-2-1s.62-4.86,7.05-5.73A2.6,2.6,0,0,1,175.37,405.05Z" style="fill: rgb(250, 250, 250); transform-origin: 170.471px 407.19px;" id="elsgiff0gt6u" class="animable"></path><path d="M171,402.43a8,8,0,0,0-5.58,1.66c-2.42,1.69-2.56,3.18-2.56,3.18a1.19,1.19,0,0,1-2-1.15s1-4.81,7.43-5.23A2.61,2.61,0,0,1,171,402.43Z" style="fill: rgb(250, 250, 250); transform-origin: 165.908px 404.251px;" id="elufcsvbbnwb" class="animable"></path><path d="M123.32,370.28c-2.61-1.39-9.85,2.26-9.85,2.26l-.37,1.74-.39,1.85c-.33,1.38-2.1,1.89-3.31,2.12a19,19,0,0,1-9.75-1.31c-1.37-.69-1.49-1.5-1.49-1.5,0-.49-.1-1.8-.1-1.8-.83,0-1.75.44-1.55,2.22.36,3.09.85,8.52.48,11.36-.18,1.4-.51,3.06-.67,4.46-.1.95,0,3.72,1.33,4.78,0,0,0,0,0,0A4.52,4.52,0,0,0,99,397.54c2.75,1.57,7.42,1.1,9.58-1.16,2.68-2.82,4.56-5.36,8.34-8.77,2.24-2,4.45-3,6.23-5.46h0a15.19,15.19,0,0,0,2.18-4.6C126.51,373.49,126,371.71,123.32,370.28Z" style="fill: #541A64; transform-origin: 111.11px 384.213px;" id="eljjvke9nqjz" class="animable"></path><g id="el7rx4n8p0lf5"><path d="M123.32,370.28c-2.61-1.39-9.85,2.26-9.85,2.26l-.37,1.74-.39,1.85c-.33,1.38-2.1,1.89-3.31,2.12a19,19,0,0,1-9.75-1.31c-1.37-.69-1.49-1.5-1.49-1.5,0-.49-.1-1.8-.1-1.8-.83,0-1.75.44-1.55,2.22.36,3.09.85,8.52.48,11.36-.18,1.4-.51,3.06-.67,4.46-.1.95,0,3.72,1.33,4.78,0,0,0,0,0,0A4.52,4.52,0,0,0,99,397.54c2.75,1.57,7.42,1.1,9.58-1.16,2.68-2.82,4.56-5.36,8.34-8.77,2.24-2,4.45-3,6.23-5.46h0a15.19,15.19,0,0,0,2.18-4.6C126.51,373.49,126,371.71,123.32,370.28Z" style="opacity: 0.4; transform-origin: 111.11px 384.213px;" class="animable" id="elcr05q2m3w98"></path></g><path d="M116.3,380.66a9.25,9.25,0,0,0-3.62-4.4c.14-.64.29-1.3.42-2a9.72,9.72,0,0,1,5.3,5.44C118.82,380.89,117.16,381.62,116.3,380.66Z" style="fill: rgb(250, 250, 250); transform-origin: 115.573px 377.681px;" id="el9zvw92ib1l9" class="animable"></path><path d="M112.54,382.42a8.5,8.5,0,0,0-.82-1.59c.19-.88.39-1.84.61-2.85a9.85,9.85,0,0,1,2.32,3.5C115.06,382.65,113.4,383.38,112.54,382.42Z" style="fill: rgb(250, 250, 250); transform-origin: 113.217px 380.422px;" id="elwqqjli31n2" class="animable"></path><path d="M123.11,382.15h0c0-.31.16-7.6-9.64-9.6,0-.06.15-.7.2-1h0a8.54,8.54,0,0,1,4.38-2.28c3.52-.63,6.16.5,7.76,3S125,380.81,123.11,382.15Z" style="fill: rgb(250, 250, 250); transform-origin: 119.901px 375.624px;" id="el2fx2reefy46" class="animable"></path><path d="M105.54,164.18a24.08,24.08,0,0,1,5.09-8.55c1.53-1.6,5.58-4.79,8-3.15,0,0,7.19,5,15.94,4.16,2.94.74-1.91-.54,1,.28a39.21,39.21,0,0,1,6.64,2.38,21.42,21.42,0,0,1,2.7,1.38,34.77,34.77,0,0,1,3,2.3c4.81,4.17,4.24,13.2,6.07,24.77s5.05,31.1.2,33.13c-4.53,2.61-19.82,5-28.56,3.87-6.31-.83-13-1.95-18.93-4.35-2.29-.93-5.53-2.36-7-4.47-1.3-1.88-1.15-4.65-.91-6.8.8-7,1.78-17.94,2.85-24.88,1-6.59,1.64-13.41,3.84-19.69C105.45,164.43,105.49,164.31,105.54,164.18Z" style="fill: #541A64; transform-origin: 127.676px 188.531px;" id="elqjwepy1qese" class="animable"></path><g id="eliiq2lt7j7jb"><g style="opacity: 0.2; transform-origin: 127.676px 188.531px;" class="animable" id="eltzhmqvwbdb"><path d="M105.54,164.18a24.08,24.08,0,0,1,5.09-8.55c1.53-1.6,5.58-4.79,8-3.15,0,0,7.19,5,15.94,4.16,2.94.74-1.91-.54,1,.28a39.21,39.21,0,0,1,6.64,2.38,21.42,21.42,0,0,1,2.7,1.38,34.77,34.77,0,0,1,3,2.3c4.81,4.17,4.24,13.2,6.07,24.77s5.05,31.1.2,33.13c-4.53,2.61-19.82,5-28.56,3.87-6.31-.83-13-1.95-18.93-4.35-2.29-.93-5.53-2.36-7-4.47-1.3-1.88-1.15-4.65-.91-6.8.8-7,1.78-17.94,2.85-24.88,1-6.59,1.64-13.41,3.84-19.69C105.45,164.43,105.49,164.31,105.54,164.18Z" id="eltkxr191cw58" class="animable" style="transform-origin: 127.676px 188.531px;"></path></g></g><g id="freepik--Walkman--inject-710" class="animable" style="transform-origin: 151.761px 239.023px;"><path d="M144.62,244.53a2.15,2.15,0,0,1-1.67-.1L140.42,243a2.07,2.07,0,0,1-.95-1.63V225.65a2.1,2.1,0,0,1,.27-.94l4.42,2.55a2,2,0,0,0-.27.94v15.69C143.89,244.4,144.21,244.65,144.62,244.53Z" style="fill: #541A64; transform-origin: 142.045px 234.681px;" id="el59b5t6xypuy" class="animable"></path><g id="elq342sfw6u7"><path d="M144.62,244.53a2.15,2.15,0,0,1-1.67-.1L140.42,243a2.07,2.07,0,0,1-.95-1.63V225.65a2.1,2.1,0,0,1,.27-.94l4.42,2.55a2,2,0,0,0-.27.94v15.69C143.89,244.4,144.21,244.65,144.62,244.53Z" style="opacity: 0.18; transform-origin: 142.045px 234.681px;" class="animable" id="elk44kvllz7hf"></path></g><path d="M166,215.14c-.12-.37-.48-.49-.91-.25l-20.21,11.67a2.21,2.21,0,0,0-.68.71l-4.42-2.56a2,2,0,0,1,.68-.69l20.22-11.68a2.08,2.08,0,0,1,1.88,0l2.53,1.46A2.13,2.13,0,0,1,166,215.14Z" style="fill: rgb(69, 90, 100); transform-origin: 152.89px 219.693px;" id="elkfcxi7us70g" class="animable"></path><path d="M165.05,214.89l-20.21,11.67a2.08,2.08,0,0,0-1,1.64v15.68c0,.6.43.85,1,.55l20.21-11.67a2.1,2.1,0,0,0,.94-1.64V215.44C166,214.84,165.57,214.59,165.05,214.89Z" style="fill: #541A64; transform-origin: 154.915px 229.66px;" id="el7puq648el" class="animable"></path><path d="M166,215.44c0-.6-.42-.85-.94-.55l-20.21,11.67a1.92,1.92,0,0,0-.67.71l-4.43-2.56a2.1,2.1,0,0,0-.27.94v1.46l4.42,2.55L166,216.9Z" style="fill: rgb(55, 71, 79); transform-origin: 152.74px 222.211px;" id="eltjibgb3pib" class="animable"></path><path d="M143.89,228.2a2.06,2.06,0,0,1,.27-.94l-4.42-2.55a2.1,2.1,0,0,0-.27.94v1.46l4.42,2.55Z" style="fill: rgb(38, 50, 56); transform-origin: 141.815px 227.185px;" id="elp4yrvqsettb" class="animable"></path><path d="M153.82,228l6.67-3.84c1.82-1.06,3.29-.2,3.29,1.9v0a7.27,7.27,0,0,1-3.3,5.71l-6.66,3.85c-1.82,1-3.3.2-3.3-1.91v0A7.31,7.31,0,0,1,153.82,228Z" style="fill: rgb(69, 90, 100); transform-origin: 157.15px 229.877px;" id="el80euulgu3il" class="animable"></path><path d="M147.3,231.72c.43-.25.78,0,.78.51v5.32a1.79,1.79,0,0,1-.78,1.42c-.44.25-.79,0-.79-.51v-5.32A1.79,1.79,0,0,1,147.3,231.72Z" style="fill: rgb(69, 90, 100); transform-origin: 147.295px 235.345px;" id="ele67rs7pa6gu" class="animable"></path><path d="M153.92,230.09c.88-.51,1.59-.1,1.59.91a3.5,3.5,0,0,1-1.59,2.76c-.88.51-1.59.1-1.59-.92A3.5,3.5,0,0,1,153.92,230.09Z" style="fill: rgb(38, 50, 56); transform-origin: 153.92px 231.925px;" id="elzcwjkjgmqzq" class="animable"></path><path d="M160.43,226.42c.88-.51,1.6-.1,1.6.92a3.54,3.54,0,0,1-1.6,2.76c-.88.5-1.59.09-1.59-.92A3.52,3.52,0,0,1,160.43,226.42Z" style="fill: rgb(38, 50, 56); transform-origin: 160.435px 228.257px;" id="el712knoovkge" class="animable"></path><path d="M147.69,222.92h0v.81a.12.12,0,0,1-.06.09l-2.39,1.38a.33.33,0,0,1-.29,0l-1.77-1a.1.1,0,0,1-.05-.08v-.82h0a.09.09,0,0,1,.06-.08l2.05-1.19.34-.2a.34.34,0,0,1,.28,0h0l1.77,1h0A.12.12,0,0,1,147.69,222.92Z" style="fill: #541A64; transform-origin: 145.41px 223.517px;" id="elscrrhqm1f3" class="animable"></path><g id="el4vmjw0fgxq"><g style="opacity: 0.15; transform-origin: 145.41px 223.517px;" class="animable" id="elrvecm942tr8"><path d="M147.69,222.92h0v.81a.12.12,0,0,1-.06.09l-2.39,1.38a.33.33,0,0,1-.29,0l-1.77-1a.1.1,0,0,1-.05-.08v-.82h0a.09.09,0,0,1,.06-.08l2.05-1.19.34-.2a.34.34,0,0,1,.28,0h0l1.77,1h0A.12.12,0,0,1,147.69,222.92Z" id="eljbo4rae7be" class="animable" style="transform-origin: 145.41px 223.517px;"></path></g></g><path d="M143.13,223.27h0v.82a.1.1,0,0,0,.05.08l1.77,1a.32.32,0,0,0,.14,0v-.82a.32.32,0,0,1-.14,0l-1.76-1Q143.11,223.32,143.13,223.27Z" style="fill: #541A64; transform-origin: 144.108px 224.224px;" id="ela9g30aq2wgo" class="animable"></path><g id="elnxmk5c4bqwh"><g style="opacity: 0.3; transform-origin: 144.108px 224.224px;" class="animable" id="el2sebmikmlku"><path d="M143.13,223.27h0v.82a.1.1,0,0,0,.05.08l1.77,1a.32.32,0,0,0,.14,0v-.82a.32.32,0,0,1-.14,0l-1.76-1Q143.11,223.32,143.13,223.27Z" id="eleapn9x22lm8" class="animable" style="transform-origin: 144.108px 224.224px;"></path></g></g><path d="M145.23,224.38l2.4-1.39c.08,0,.08-.11,0-.16l-1.77-1a.34.34,0,0,0-.28,0l-2.39,1.39c-.08,0-.08.11,0,.16l1.76,1A.34.34,0,0,0,145.23,224.38Z" style="fill: #541A64; transform-origin: 145.41px 223.105px;" id="elq4gas1k1djf" class="animable"></path><path d="M151.71,220.59h0v.81a.09.09,0,0,1-.06.08l-2.39,1.38a.3.3,0,0,1-.29,0l-1.76-1a.09.09,0,0,1-.06-.08V221h0a.09.09,0,0,1,.06-.08l2-1.18.34-.2a.3.3,0,0,1,.29,0h0l1.76,1h0A.08.08,0,0,1,151.71,220.59Z" style="fill: #541A64; transform-origin: 149.43px 221.2px;" id="el0sprqte8cxy" class="animable"></path><g id="elifmzpiz0a18"><g style="opacity: 0.15; transform-origin: 149.43px 221.2px;" class="animable" id="el0aeerrbg6n3"><path d="M151.71,220.59h0v.81a.09.09,0,0,1-.06.08l-2.39,1.38a.3.3,0,0,1-.29,0l-1.76-1a.09.09,0,0,1-.06-.08V221h0a.09.09,0,0,1,.06-.08l2-1.18.34-.2a.3.3,0,0,1,.29,0h0l1.76,1h0A.08.08,0,0,1,151.71,220.59Z" id="elemz1ofhqerr" class="animable" style="transform-origin: 149.43px 221.2px;"></path></g></g><path d="M147.15,220.94h0v.82a.09.09,0,0,0,.06.08l1.76,1a.24.24,0,0,0,.15,0v-.82a.24.24,0,0,1-.15,0l-1.76-1A.1.1,0,0,1,147.15,220.94Z" style="fill: #541A64; transform-origin: 148.135px 221.896px;" id="elyub2a1p2va7" class="animable"></path><g id="elc53k2s1mo4"><g style="opacity: 0.3; transform-origin: 148.135px 221.896px;" class="animable" id="elf45w45fgoao"><path d="M147.15,220.94h0v.82a.09.09,0,0,0,.06.08l1.76,1a.24.24,0,0,0,.15,0v-.82a.24.24,0,0,1-.15,0l-1.76-1A.1.1,0,0,1,147.15,220.94Z" id="eluyqqjrt3qvh" class="animable" style="transform-origin: 148.135px 221.896px;"></path></g></g><path d="M149.26,222.05l2.39-1.38c.08,0,.08-.12,0-.16l-1.76-1a.3.3,0,0,0-.29,0l-2.39,1.38a.08.08,0,0,0,0,.16l1.76,1A.3.3,0,0,0,149.26,222.05Z" style="fill: #541A64; transform-origin: 149.42px 220.78px;" id="el80tl4akc45a" class="animable"></path><path d="M159.79,265.61l-.31.32-.1-1.34c1.49-1.53,2.11-3.16,1.73-4.66-1-3.92-8.91-6.48-14.68-8.35-3.34-1.09-6-1.94-7-2.87a5.4,5.4,0,0,1-1.9-4.4c.1-2.86,2.11-5.63,4.06-7.11l.6.79a9.19,9.19,0,0,0-3.68,6.36A4.41,4.41,0,0,0,140,248c.91.8,3.59,1.67,6.69,2.67,6.33,2.06,14.21,4.61,15.34,9.05C162.54,261.53,161.77,263.53,159.79,265.61Z" style="fill: rgb(38, 50, 56); transform-origin: 149.853px 251.565px;" id="elh5mc463zf26" class="animable"></path><path d="M142.52,237.87a1.07,1.07,0,1,1-2.13,0,1.07,1.07,0,0,1,2.13,0Z" style="fill: rgb(38, 50, 56); transform-origin: 141.455px 237.973px;" id="ellprgamrts2a" class="animable"></path></g><path d="M212,151.1a18.69,18.69,0,0,0-4.08-4.2,6.86,6.86,0,0,0-4.11-1,2.38,2.38,0,0,0-2,.76,1.71,1.71,0,0,0,0,1.75,3.59,3.59,0,0,0,1.28,1.29c.51.33,1.06.61,1.56,1a6.43,6.43,0,0,1,2.13,2.8,9.39,9.39,0,0,1,.65,3.48,3.28,3.28,0,0,1-.46,2,1.92,1.92,0,0,1-2.53.31c-.74-.46-.87-1.86-.92-2.63a14.62,14.62,0,0,0-.25-2.88,1.94,1.94,0,0,0-2.43-1.56,3.12,3.12,0,0,0-2.05,2.42c-1.08,4.07,1,12.7-1.33,16.55s-14.61,19.32-14.61,19.32S172,179.74,164.15,170.89c-6.63-7.43-11.29-13.65-18.91-10l4.69,22.93s21.12,19.32,26.38,23.23,8.25,4.41,12.44.2c3.39-3.41,15.48-23.77,20-31.43,2.53-3.6,5.09-5.64,5.69-8.76s-.12-10.15-.23-12C214.1,153.71,212.79,152.18,212,151.1Z" style="fill: rgb(255, 168, 167); transform-origin: 179.958px 178.041px;" id="eljngrlqzcpw" class="animable"></path><path d="M142.81,157.43c9.89.16,11.61.09,18.3,7.65,7.38,8.36,16.46,19.23,16.46,19.23-1,8.62-5.29,14.76-17.57,19.16,0,0-10-15.16-15.38-23S137.44,163.28,142.81,157.43Z" style="fill: rgb(55, 71, 79); transform-origin: 158.571px 180.45px;" id="elyf5bh5fp9c" class="animable"></path><g id="freepik--Coin--inject-710" class="animable" style="transform-origin: 203.398px 148.228px;"><path d="M202.12,146.93a8.63,8.63,0,0,0,.69,3l.81,3.6,1.86-.45h0a2.6,2.6,0,0,0,1.76-2,8.19,8.19,0,0,0-1.64-7.22,2.61,2.61,0,0,0-2.42-1h0l-1.87.44Z" style="fill: #541A64; transform-origin: 204.398px 148.183px;" id="el251zx6sks12" class="animable"></path><g id="elvz5hw3shchk"><path d="M202.12,146.93a8.63,8.63,0,0,0,.69,3l.81,3.6,1.86-.45h0a2.6,2.6,0,0,0,1.76-2,8.19,8.19,0,0,0-1.64-7.22,2.61,2.61,0,0,0-2.42-1h0l-1.87.44Z" style="opacity: 0.2; transform-origin: 204.398px 148.183px;" class="animable" id="el3cvolc6kkgs"></path></g><path d="M205.38,151.61a8.18,8.18,0,0,0-1.64-7.22c-1.61-1.73-3.48-1.31-4.18.94a8.15,8.15,0,0,0,1.64,7.22C202.8,154.29,204.67,153.86,205.38,151.61Z" style="fill: #541A64; transform-origin: 202.469px 148.472px;" id="elc7skek3jxka" class="animable"></path></g><g id="freepik--Head--inject-710" class="animable" style="transform-origin: 131.719px 127.221px;"><path d="M150.57,123.73l-.91,10.46,5.49-1.65a1.1,1.1,0,0,0,.58-1.7Z" style="fill: rgb(242, 143, 143); transform-origin: 152.799px 128.96px;" id="eluv988ogr03" class="animable"></path><path d="M150.48,139.88c-1.53,6.5-4.18,8.44-8,8.38a51,51,0,0,1-7.17-1.07l.41,8.16v1.36c-9.86,1.46-17.69-1.88-17.71-3.88,0,0-1-19.79-2.31-28.38-1-6.49-.64-14.86,5.3-19,8.94-6.24,26.94-6.85,29,7.82C152,127.63,152.12,133,150.48,139.88Z" style="fill: rgb(255, 168, 167); transform-origin: 133.442px 129.174px;" id="el3ar7pjd8pxb" class="animable"></path><path d="M110.42,109.89l-6-2.89a3.24,3.24,0,0,1,4.39-1.69A3.52,3.52,0,0,1,110.42,109.89Z" style="fill: rgb(38, 50, 56); transform-origin: 107.575px 107.442px;" id="eljfv62hfmlj9" class="animable"></path><path d="M147.07,126a1.78,1.78,0,0,1-1.67,1.9,1.81,1.81,0,0,1-1.84-1.74,1.76,1.76,0,1,1,3.51-.16Z" style="fill: rgb(38, 50, 56); transform-origin: 145.312px 126.057px;" id="elov52hkx7q0i" class="animable"></path><path d="M144.74,121.26,141,124a2.43,2.43,0,0,1,.55-3.32A2.26,2.26,0,0,1,144.74,121.26Z" style="fill: rgb(38, 50, 56); transform-origin: 142.657px 122.13px;" id="el5r6n27ohsvy" class="animable"></path><path d="M142.16,136.66l6.39,1.44a3.43,3.43,0,0,1-4,2.52A3.19,3.19,0,0,1,142.16,136.66Z" style="fill: rgb(177, 102, 104); transform-origin: 145.298px 138.674px;" id="elkv3x4kfm9he" class="animable"></path><path d="M142.49,137.83c-.14,0-.27.1-.4.15a3.15,3.15,0,0,0,2.43,2.64,3.22,3.22,0,0,0,1.85-.13,3.5,3.5,0,0,0-.07-.45A3.12,3.12,0,0,0,142.49,137.83Z" style="fill: rgb(242, 143, 143); transform-origin: 144.23px 139.213px;" id="eldoswptxqsj" class="animable"></path><g id="freepik--Headphones--inject-710" class="animable" style="transform-origin: 126.654px 154.215px;"><path d="M134.43,156.2a5.87,5.87,0,1,1,6.19,5.53A5.87,5.87,0,0,1,134.43,156.2Z" style="fill: #541A64; transform-origin: 140.291px 155.869px;" id="ellm2z8at0aks" class="animable"></path><path d="M137.35,156a2.94,2.94,0,1,1,3.11,2.78A2.95,2.95,0,0,1,137.35,156Z" style="fill: rgb(55, 71, 79); transform-origin: 140.286px 155.845px;" id="elhmpka0ks5rc" class="animable"></path><path d="M117.84,149l-.14-2.31s-8,2.54-9.9,5.1a3.23,3.23,0,0,0-.65,2.09,3.45,3.45,0,0,0,.39,1.43,3.45,3.45,0,0,1,.51-1C110,151.8,117.84,149,117.84,149Z" style="fill: rgb(224, 224, 224); transform-origin: 112.493px 151px;" id="elynyie2paqi" class="animable"></path><path d="M138.49,154.93c-5,1.73-17,4.78-23.72,4.14-4-.37-6.35-2-7.23-3.72a3.45,3.45,0,0,1-.39-1.43l.25,2.68h0c.2,2.21,2.67,4.53,7.61,5,6.69.63,19-2.6,24-4.33Z" style="fill: rgb(250, 250, 250); transform-origin: 123.08px 157.8px;" id="elu7zsmhzmw6a" class="animable"></path><path d="M122.11,159.41l.22,1.35a1,1,0,0,0,1.16.83c2.72-.48,10.36-1.93,15.15-3.78a1.24,1.24,0,0,0,.71-1.38l-.27-1.17a.92.92,0,0,0-1.2-.67A125.43,125.43,0,0,1,123,158.22,1,1,0,0,0,122.11,159.41Z" style="fill: rgb(38, 50, 56); transform-origin: 130.733px 158.072px;" id="el8fgdsgglcja" class="animable"></path></g><path d="M124.69,147a10,10,0,0,0,.89-1.68,17.17,17.17,0,0,0,.39-12.24c-2.18,1.67-5.46.2-6.7-1.95a6.66,6.66,0,0,1-.32-6.44,5.84,5.84,0,0,1,3.82-2.69,4.1,4.1,0,0,1,3.58,1.56,5.32,5.32,0,0,1,1.08,2c.19.66.2,1.25.83,1.65,1,.62,2-.41,2.44-1.37a7.59,7.59,0,0,0,.59-4.09,10.44,10.44,0,0,0,7.8-2.79,11.77,11.77,0,0,0,4.53-8.69c2,.57,5.65,1.34,7.22,9.53a3.61,3.61,0,0,0,2-1,12.18,12.18,0,0,0,2.89-7.08,19.35,19.35,0,0,1,1.5,4.56,13.81,13.81,0,0,0,1.86-15.74A15.7,15.7,0,0,0,145,92.71c-3.56.12-7,1.38-10.46,2-3.92.71-7.89.23-11.83,1a18.46,18.46,0,0,0-8.4,3.78,13.08,13.08,0,0,0-3.49,4.55,10.59,10.59,0,0,0-.84,2.81,8.1,8.1,0,0,1-.32,2.47c-.34.62-1.23.92-1.78,1.32a12.33,12.33,0,0,0-2.07,1.95,13.13,13.13,0,0,0-2.64,5,16.44,16.44,0,0,0,1,10.7c1.75,4,4.8,7.38,6.68,11.35a5.82,5.82,0,0,1,.64,4.38c-.24.67-.7,1.38-.4,2a1.33,1.33,0,0,0,1.36.65,4,4,0,0,0,1.48-.6c-.41.23.05,1.48.22,1.74a1.52,1.52,0,0,0,1.6.77,5.87,5.87,0,0,0,3.88-1.77,2,2,0,0,0,.53,1.65,1.92,1.92,0,0,0,1.77.46,4.16,4.16,0,0,0,2.33-1.36A8.27,8.27,0,0,0,124.69,147Z" style="fill: rgb(38, 50, 56); transform-origin: 131.719px 120.839px;" id="el0rg8b29dv0ar" class="animable"></path><path d="M129.17,144.16s1.8,4.5,6.3,5.28l-.13-2.25A20.27,20.27,0,0,1,129.17,144.16Z" style="fill: rgb(242, 143, 143); transform-origin: 132.32px 146.8px;" id="elt1hrexr1dlq" class="animable"></path></g></g></g><defs><clipPath id="freepik--clip-path--inject-710"><ellipse id="freepik--Floor--inject-710" cx="250" cy="359.35" rx="235.59" ry="125.85" style="fill:none"></ellipse></clipPath></defs><defs>     <filter id="active" height="200%">         <feMorphology in="SourceAlpha" result="DILATED" operator="dilate" radius="2"></feMorphology>                <feFlood flood-color="#32DFEC" flood-opacity="1" result="PINK"></feFlood>        <feComposite in="PINK" in2="DILATED" operator="in" result="OUTLINE"></feComposite>        <feMerge>            <feMergeNode in="OUTLINE"></feMergeNode>            <feMergeNode in="SourceGraphic"></feMergeNode>        </feMerge>    </filter>    <filter id="hover" height="200%">        <feMorphology in="SourceAlpha" result="DILATED" operator="dilate" radius="2"></feMorphology>                <feFlood flood-color="#ff0000" flood-opacity="0.5" result="PINK"></feFlood>        <feComposite in="PINK" in2="DILATED" operator="in" result="OUTLINE"></feComposite>        <feMerge>            <feMergeNode in="OUTLINE"></feMergeNode>            <feMergeNode in="SourceGraphic"></feMergeNode>        </feMerge>            <feColorMatrix type="matrix" values="0   0   0   0   0                0   1   0   0   0                0   0   0   0   0                0   0   0   1   0 "></feColorMatrix>    </filter></defs></svg>