<?xml version="1.0" standalone="no"?>
<!DOCTYPE svg PUBLIC "-//W3C//DTD SVG 20010904//EN"
 "http://www.w3.org/TR/2001/REC-SVG-20010904/DTD/svg10.dtd">
<svg version="1.0" xmlns="http://www.w3.org/2000/svg"
 width="2000.000000pt" height="2000.000000pt" viewBox="0 0 2000.000000 2000.000000"
 preserveAspectRatio="xMidYMid meet">

<g transform="translate(0.000000,2000.000000) scale(0.100000,-0.100000)"
fill="#000000" stroke="none">
<path d="M0 14780 l0 -5220 446 0 c288 0 452 4 465 10 18 10 19 25 19 398 0
319 8 506 23 518 1 1 49 -7 107 -18 224 -41 255 -46 260 -41 3 2 7 40 9 84 3
67 6 79 21 79 14 0 18 -12 23 -72 7 -97 11 -104 63 -117 l44 -11 0 -279 c0
-153 3 -346 7 -429 l6 -152 103 0 104 0 2 723 3 723 41 -9 c30 -5 44 -14 49
-30 4 -12 10 -238 12 -502 4 -348 8 -482 16 -487 16 -10 75 -10 80 0 3 4 8
180 11 392 6 370 13 550 22 550 2 0 34 -15 70 -34 36 -19 79 -38 95 -41 16 -4
29 -11 29 -16 0 -6 4 -8 9 -4 5 3 27 -2 48 -11 89 -39 135 -54 171 -57 17 -1
32 -5 32 -8 0 -7 69 -24 83 -21 4 1 7 -3 7 -9 0 -6 7 -9 15 -6 8 4 17 2 20 -4
4 -5 10 -7 15 -4 5 3 11 1 14 -3 3 -5 16 -9 28 -8 32 2 36 32 47 339 5 147 11
270 14 273 3 3 54 -4 114 -16 59 -12 121 -23 137 -26 16 -2 43 -8 60 -13 17
-6 59 -12 94 -14 35 -3 66 -7 69 -11 4 -3 15 -6 25 -6 10 0 18 -5 18 -11 0 -5
4 -8 9 -5 5 3 11 -8 15 -25 3 -18 6 -388 6 -824 0 -714 2 -793 16 -799 9 -3
129 -6 269 -6 190 0 255 3 262 13 6 6 13 71 17 142 3 72 8 158 10 191 12 171
18 542 9 547 -12 8 -115 27 -168 31 -22 2 -80 7 -130 10 -49 4 -92 10 -96 14
-4 4 -9 159 -11 345 l-4 337 237 0 236 0 8 181 c6 144 4 183 -6 189 -9 6 -10
12 -2 22 6 7 14 42 17 78 7 60 9 66 32 68 13 1 24 -3 24 -8 0 -7 6 -7 18 -1
12 6 23 6 28 1 5 -5 30 -12 54 -14 56 -6 105 -15 152 -27 20 -5 40 -9 45 -8
20 5 144 -20 193 -38 8 -3 23 -5 34 -4 11 2 16 -2 12 -8 -4 -7 -1 -8 8 -5 9 3
16 5 17 3 13 -53 46 -818 69 -1604 6 -198 13 -370 16 -382 4 -22 10 -23 84
-23 77 0 80 1 86 25 3 14 5 116 3 228 -2 111 -3 349 -1 528 2 344 0 328 45
329 6 1 32 -4 57 -10 46 -11 80 -17 127 -25 16 -2 52 -9 82 -14 29 -6 57 -9
61 -6 5 3 11 1 14 -3 3 -5 39 -12 81 -16 41 -4 93 -13 115 -21 23 -8 40 -10
40 -4 0 5 15 3 34 -5 18 -8 49 -14 67 -15 55 -1 101 -9 113 -21 7 -7 12 -81
14 -205 l3 -195 55 0 54 0 0 191 0 191 23 -6 c12 -3 37 -6 55 -6 l32 0 0 -483
c0 -362 3 -486 12 -495 17 -17 364 -17 375 1 4 6 8 124 8 260 0 189 3 250 13
256 31 19 34 82 39 733 l6 658 26 -5 c14 -3 37 -8 51 -11 53 -11 50 52 62
-1194 1 -104 4 -147 8 -115 3 28 7 311 8 630 2 318 5 596 8 617 6 36 31 57 52
44 4 -3 26 -7 48 -10 21 -2 62 -10 89 -16 63 -15 88 -19 151 -25 27 -2 74 -6
102 -9 39 -3 50 -2 45 7 -5 9 -3 9 8 1 8 -6 34 -11 59 -10 25 1 57 -2 72 -5
15 -4 30 -4 32 -1 2 4 27 7 55 7 28 0 51 3 51 7 0 4 14 5 30 2 l30 -6 1 88 c1
49 4 197 8 329 l6 240 70 0 70 0 7 -54 c3 -29 12 -58 20 -62 7 -5 59 -9 116
-9 l102 0 0 -172 c1 -607 -1 -889 -6 -1000 l-7 -128 -98 0 c-84 0 -98 2 -103
18 -3 9 -10 105 -16 212 -19 365 -22 400 -31 401 -12 2 -28 6 -34 9 -7 3 -22
7 -36 9 -5 0 -8 5 -5 10 3 4 -5 6 -18 4 -31 -6 -33 -25 -35 -322 -1 -123 -4
-228 -7 -233 -4 -6 -3 -268 1 -583 l8 -573 133 -7 c74 -4 194 -4 268 0 l134 7
3 464 c3 348 7 466 16 475 10 10 38 8 132 -9 146 -27 138 -27 137 1 -1 21 2
22 79 22 64 0 80 -3 80 -15 0 -12 -15 -16 -67 -18 -38 -2 -68 -7 -68 -11 0 -7
100 -28 170 -36 48 -5 57 -15 64 -68 3 -28 6 -212 6 -408 l0 -356 38 -7 c20
-3 2646 -6 5835 -6 l5797 0 0 5220 0 5220 -10000 0 -10000 0 0 -5220z m4838
1021 c181 -104 236 -131 266 -131 13 0 37 -7 52 -15 16 -8 37 -15 46 -15 9 0
30 -5 45 -11 15 -6 39 -16 53 -22 14 -5 34 -13 45 -17 93 -37 337 -167 355
-190 3 -3 23 -19 45 -36 22 -16 46 -35 53 -41 7 -7 18 -13 24 -13 11 0 106
-94 128 -128 18 -27 61 -57 205 -140 61 -35 115 -68 120 -73 6 -6 10 -73 11
-157 0 -137 2 -151 27 -205 14 -32 36 -95 47 -140 12 -45 25 -91 30 -102 7
-18 18 -82 36 -210 3 -22 9 -43 13 -48 4 -4 50 -3 102 3 52 6 124 13 162 17
l67 6 0 -74 c0 -69 -3 -79 -41 -144 -69 -118 -72 -130 -74 -255 -1 -63 -2
-137 -3 -164 l-2 -49 -114 5 c-63 2 -113 1 -110 -4 3 -4 26 -8 52 -8 26 0 77
-3 113 -6 l65 -7 57 -111 c53 -103 57 -116 58 -186 l2 -75 -49 2 c-27 2 -70 8
-95 13 -25 6 -115 19 -200 30 l-154 18 -42 -24 c-23 -14 -55 -41 -70 -62 -41
-56 -64 -72 -106 -72 -23 0 -58 -11 -90 -30 -54 -31 -53 -33 27 -30 38 1 46
-1 40 -12 -18 -31 -60 -84 -76 -96 -9 -7 -24 -19 -33 -28 -8 -8 -15 -11 -15
-5 0 6 -7 11 -15 11 -8 0 -15 -6 -15 -12 0 -10 -2 -10 -8 -1 -11 17 -162 19
-201 2 -30 -14 -45 -37 -16 -25 8 3 15 1 15 -4 0 -17 42 -11 56 8 13 16 14 16
8 -1 -6 -16 0 -17 63 -14 86 5 90 -8 24 -61 -25 -20 -53 -44 -61 -53 -8 -9
-25 -19 -37 -23 -13 -4 -23 -12 -23 -17 0 -5 -6 -9 -14 -9 -8 0 -16 -4 -18 -8
-1 -5 -28 -25 -58 -45 -30 -20 -60 -41 -67 -47 -7 -5 -14 -10 -17 -10 -3 0
-38 -15 -78 -34 -40 -18 -93 -41 -118 -51 -25 -10 -54 -21 -65 -26 -90 -38
-277 -78 -435 -94 -36 -3 -82 -13 -102 -22 -34 -14 -40 -14 -72 1 -22 10 -60
16 -110 16 -62 0 -77 3 -84 18 -10 18 -17 142 -8 142 2 0 54 -29 115 -65 61
-36 116 -68 124 -71 12 -4 89 38 607 338 148 86 307 177 590 340 139 80 332
193 355 207 17 11 61 9 249 -13 126 -14 232 -23 235 -20 3 3 6 27 6 52 -1 38
-10 63 -52 133 l-52 86 -77 6 c-42 4 -99 7 -126 7 l-48 0 0 50 0 50 120 0 120
0 0 121 0 121 -120 -4 -120 -4 0 33 c0 32 1 33 43 33 23 0 79 3 125 7 l83 6
54 91 c43 72 55 101 55 133 0 23 -4 44 -9 48 -5 3 -105 -6 -223 -20 -117 -14
-221 -25 -230 -25 -17 0 -18 28 -18 449 0 347 -3 451 -12 459 -7 5 -56 34
-108 64 -306 177 -633 366 -825 478 -415 241 -607 350 -614 350 -3 0 -40 -20
-81 -43 -325 -189 -447 -260 -755 -437 -192 -111 -432 -250 -532 -307 l-183
-106 0 -458 c0 -431 -1 -459 -17 -459 -10 0 -117 11 -238 25 -121 14 -226 25
-232 25 -9 0 -13 -17 -13 -54 0 -50 3 -57 36 -84 l36 -30 -55 -284 c-85 -432
-99 -509 -93 -515 3 -3 83 4 178 16 289 36 389 43 402 27 6 -8 171 -105 366
-217 195 -111 360 -207 367 -213 9 -8 10 -44 3 -144 -5 -73 -12 -137 -15 -142
-6 -10 -102 46 -145 85 -14 12 -60 46 -102 75 -42 29 -99 78 -126 109 -28 31
-71 73 -96 92 -26 19 -55 53 -67 78 -12 24 -46 71 -76 104 -29 33 -53 63 -53
67 0 4 -23 22 -50 40 -51 32 -51 33 -143 25 -51 -3 -177 -18 -282 -31 -104
-13 -198 -24 -208 -24 -16 0 -17 7 -11 63 3 34 10 80 16 102 5 22 38 182 73
355 57 281 62 316 48 325 -62 39 -64 44 -57 137 7 82 8 87 28 83 37 -8 273
-35 310 -35 34 0 35 1 29 34 -3 19 -3 46 1 60 6 24 10 26 66 26 60 0 60 0 60
29 0 29 -2 30 -52 33 -43 2 -54 7 -56 22 -5 22 18 96 28 96 4 0 10 30 14 67 4
40 14 77 26 94 11 15 20 34 20 42 0 9 5 17 12 19 9 3 13 49 14 164 1 87 2 166
3 175 1 10 42 40 104 75 56 32 125 72 152 90 48 30 63 44 139 125 19 20 56 52
82 70 55 37 77 55 108 85 47 46 165 114 196 114 5 0 10 5 10 10 0 6 9 10 19
10 11 0 22 4 25 8 7 11 164 76 236 97 30 9 65 21 78 26 13 5 32 9 43 9 21 0
129 55 289 149 58 33 108 61 113 61 4 0 70 -35 145 -79z m1762 -536 c0 -31 -3
-35 -25 -35 -22 0 -25 4 -25 35 0 31 3 35 25 35 22 0 25 -4 25 -35z m-1800
-16 c24 -6 58 -16 75 -23 16 -7 49 -21 73 -31 24 -10 45 -22 48 -27 3 -4 -150
-8 -340 -8 -190 0 -346 4 -346 8 0 5 19 17 43 27 23 10 56 23 72 30 27 12 93
27 165 39 34 6 155 -3 210 -15z m251 -119 c24 -19 23 -19 -401 -19 -424 0
-425 0 -401 19 22 19 40 20 401 20 361 0 379 -1 401 -20z m61 -50 c23 -19 23
-19 -162 -20 -113 -1 -177 -5 -165 -10 11 -5 97 -9 191 -9 138 -1 174 -4 184
-16 11 -13 -10 -15 -166 -17 -245 -4 -234 -22 16 -26 115 -1 190 -6 190 -12 0
-6 -16 -10 -35 -10 -53 0 -47 -28 8 -32 36 -3 41 -6 38 -23 -2 -11 -6 -73 -8
-137 -3 -65 -8 -118 -12 -118 -4 0 -9 -25 -10 -55 -1 -32 2 -55 8 -55 13 0 19
-43 24 -177 3 -62 1 -113 -4 -113 -5 0 -9 5 -9 10 0 6 -11 10 -25 10 -14 0
-25 -6 -25 -13 0 -7 -9 -18 -20 -25 -11 -7 -20 -22 -20 -33 0 -18 -2 -20 -16
-8 -10 8 -18 9 -22 3 -4 -6 -15 -13 -24 -17 -13 -4 -18 -17 -18 -42 0 -23 -5
-35 -14 -35 -27 0 -36 26 -31 86 2 32 7 103 9 157 3 54 8 102 12 108 3 6 24 7
50 3 l44 -6 0 170 0 171 -47 3 -48 3 -2 68 c-2 65 -2 67 22 67 16 0 25 6 25
15 0 13 -17 15 -117 13 l-117 -3 -1 -210 c0 -192 1 -210 18 -213 14 -3 17 4
17 37 0 26 7 48 18 59 18 18 19 17 20 -60 1 -72 0 -78 -18 -78 -11 0 -20 -5
-20 -11 0 -8 -4 -9 -13 0 -22 17 -27 3 -27 -76 0 -58 -3 -73 -15 -73 -13 0
-15 46 -15 350 l0 350 -114 0 c-66 0 -117 -4 -121 -10 -4 -6 -86 -10 -212 -10
-181 0 -204 2 -193 15 10 13 53 15 259 16 135 0 255 4 266 9 12 5 -82 9 -232
9 -216 1 -252 3 -247 15 3 8 13 17 22 19 10 3 211 5 449 6 414 1 432 0 455
-19z m-572 -110 c0 -6 -80 -10 -221 -10 -144 0 -218 3 -214 10 4 6 88 10 221
10 136 0 214 -4 214 -10z m2992 -72 c3 -24 1 -47 -3 -52 -4 -5 -27 -3 -53 5
-42 12 -46 16 -46 46 0 33 1 34 81 41 13 2 18 -9 21 -40z m-5950 -5 c-6 -45
-32 -44 -32 1 0 27 4 34 18 33 14 -1 17 -8 14 -34z m2449 -23 c5 0 9 -22 9
-50 l0 -50 45 0 45 0 0 -80 c0 -63 3 -80 14 -80 8 0 17 12 19 28 2 15 5 -1 6
-35 l1 -63 -82 1 c-46 0 -103 4 -128 8 l-45 8 38 7 37 8 0 73 c0 64 -2 73 -20
78 -18 5 -20 14 -20 75 0 65 2 71 23 75 12 2 28 3 35 1 8 -2 18 -4 23 -4z
m463 -33 c21 -21 23 -31 21 -122 -1 -55 1 -122 5 -150 l8 -50 1 63 c2 103 21
72 21 -35 0 -54 3 -154 6 -223 l7 -126 31 -2 c39 -3 48 -13 44 -48 -3 -26 -8
-30 -46 -35 -24 -3 -73 -3 -110 0 l-67 6 2 60 c1 33 3 84 4 113 1 46 3 52 23
51 39 -2 72 -14 58 -23 -17 -10 -15 -26 3 -26 23 0 19 57 -6 83 -19 21 -20 30
-15 144 l5 122 -32 3 -32 3 -3 65 c-5 99 5 150 29 150 11 0 30 -10 43 -23z
m-576 -64 l3 -52 -73 -3 -73 -3 0 -88 0 -88 -30 3 c-16 2 -29 6 -27 11 1 4 2
52 2 106 l0 100 37 3 c29 2 39 8 41 23 7 44 10 46 64 43 l53 -3 3 -52z m1503
27 c10 -6 19 -20 19 -30 0 -15 7 -20 29 -20 16 0 31 6 35 15 3 9 18 15 36 15
18 0 33 -6 36 -15 4 -9 19 -15 35 -15 l29 0 0 -115 0 -115 30 0 c28 0 30 2 30
39 0 42 18 65 44 55 14 -5 16 3 16 60 0 65 1 66 26 66 15 0 35 10 46 23 l20
22 18 -22 c10 -13 29 -23 44 -23 25 0 26 -2 26 -61 0 -33 5 -70 11 -82 9 -16
9 -22 0 -25 -8 -3 -11 -71 -11 -238 l0 -235 -57 3 -58 3 0 157 c0 105 -4 161
-12 168 -13 14 -93 4 -93 -11 0 -5 -31 -9 -70 -9 l-70 0 0 130 0 130 -49 0
-49 0 -4 -102 c-2 -74 -7 -103 -17 -106 -10 -3 -11 -6 -1 -12 16 -10 24 -107
11 -135 -5 -11 -15 -35 -24 -53 -12 -29 -15 -31 -22 -15 -4 10 -8 88 -9 173
l-1 155 -37 3 -38 3 0 49 c0 27 5 52 10 55 6 3 10 30 10 59 0 68 14 81 61 56z
m-1511 -120 c0 -5 -4 -10 -10 -10 -5 0 -10 5 -10 10 0 6 5 10 10 10 6 0 10 -4
10 -10z m-340 -9 c0 -5 -9 -19 -21 -32 l-20 -24 17 33 c19 33 24 38 24 23z
m100 -66 c0 -25 5 -45 10 -45 6 0 10 -4 10 -9 0 -6 -17 -11 -37 -13 l-38 -3 2
-47 c3 -44 1 -47 -25 -50 l-27 -3 -3 -167 -2 -168 217 -2 218 -2 -170 -6 -170
-5 150 -6 150 -5 -182 -2 c-286 -3 -246 -16 67 -22 279 -5 276 -6 -147 -8
l-433 -2 0 30 0 30 125 0 125 0 2 248 3 247 25 0 c21 0 26 -6 31 -35 5 -28 7
-22 8 28 l1 62 45 0 45 0 0 -45z m305 15 c3 -5 -1 -10 -10 -10 -9 0 -13 5 -10
10 3 6 8 10 10 10 2 0 7 -4 10 -10z m1565 -120 c0 -5 -2 -10 -4 -10 -3 0 -8 5
-11 10 -3 6 -1 10 4 10 6 0 11 -4 11 -10z m-1640 -4 c0 -11 -19 -15 -25 -6 -3
5 1 10 9 10 9 0 16 -2 16 -4z m-33 -42 c-3 -3 -12 -4 -19 -1 -8 3 -5 6 6 6 11
1 17 -2 13 -5z m64 -21 c0 -5 2 -17 4 -27 10 -52 8 -130 -3 -134 -7 -2 -12 5
-12 15 0 10 -10 23 -22 28 -29 13 -37 55 -11 56 17 1 17 2 1 6 -25 6 -23 23 3
23 11 0 17 5 14 10 -3 6 -3 15 0 20 7 12 25 13 26 3z m956 -19 c-3 -3 -12 -4
-19 -1 -8 3 -5 6 6 6 11 1 17 -2 13 -5z m-427 -55 c0 -5 -7 -9 -15 -9 -15 0
-20 12 -9 23 8 8 24 -1 24 -14z m30 -9 c0 -5 -4 -10 -10 -10 -5 0 -10 5 -10
10 0 6 5 10 10 10 6 0 10 -4 10 -10z m-120 -10 c0 -5 -4 -10 -10 -10 -5 0 -10
5 -10 10 0 6 5 10 10 10 6 0 10 -4 10 -10z m350 6 c0 -3 -4 -8 -10 -11 -5 -3
-10 -1 -10 4 0 6 5 11 10 11 6 0 10 -2 10 -4z m-337 -103 c-7 -2 -19 -2 -25 0
-7 3 -2 5 12 5 14 0 19 -2 13 -5z m217 -7 c0 -3 -4 -8 -10 -11 -5 -3 -10 -1
-10 4 0 6 5 11 10 11 6 0 10 -2 10 -4z m105 -89 c0 -22 -5 -33 -17 -35 -14 -3
-18 4 -18 30 0 25 5 34 18 35 14 1 18 -6 17 -30z m-309 -9 c1 -11 -4 -18 -15
-18 -10 0 -17 8 -17 20 0 25 28 23 32 -2z m2294 -119 c0 -22 -62 -141 -83
-157 -7 -5 -57 -12 -112 -16 -216 -14 -260 -19 -240 -27 11 -4 32 -8 47 -8 26
-1 27 -4 30 -58 l3 -58 120 0 120 0 0 -75 0 -75 -120 0 -120 0 0 -90 0 -90
135 -10 135 -10 42 -70 c24 -38 43 -80 43 -93 0 -23 -2 -24 -52 -20 -99 10
-463 49 -483 53 -20 4 -20 13 -23 384 l-4 380 24 5 c13 3 82 10 153 16 72 7
175 18 230 25 148 19 155 19 155 -6z m-3746 -13 c70 -8 132 -18 136 -23 4 -4
24 -84 45 -178 20 -93 59 -262 86 -374 27 -112 48 -205 47 -206 -10 -8 -205
-20 -212 -14 -5 5 -14 39 -21 76 l-11 68 -73 -2 c-41 -1 -75 -4 -77 -6 -2 -2
-10 -39 -19 -82 -8 -43 -16 -80 -18 -82 -2 -2 -50 -9 -105 -16 -71 -10 -102
-10 -102 -3 0 10 27 150 115 586 l36 175 -41 35 c-22 20 -40 44 -40 54 0 17 6
18 63 12 34 -4 120 -13 191 -20z m799 17 c-90 -2 -236 -2 -325 0 -90 1 -17 3
162 3 179 0 252 -2 163 -3z m-72 -77 l196 -12 47 -38 46 -38 0 -114 0 -114
-40 -36 -40 -36 25 -42 c22 -38 25 -54 25 -144 0 -99 -1 -102 -24 -108 -58
-14 -67 -5 -118 111 -27 61 -53 123 -59 138 -10 26 -15 28 -58 25 l-46 -3 -3
-141 -3 -141 -46 -7 c-25 -3 -68 -6 -94 -6 l-49 0 0 320 0 320 -40 26 c-23 16
-40 35 -40 46 0 17 6 18 63 13 34 -4 150 -12 258 -19z m2320 -13 l49 -37 0
-296 -1 -295 -48 -37 -47 -36 -195 13 c-107 8 -202 14 -211 15 -16 0 -17 26
-17 335 -1 258 2 337 12 340 6 2 100 11 207 18 107 8 197 15 199 16 2 0 26
-16 52 -36z m-699 -154 c34 -128 120 -444 134 -492 5 -16 -3 -17 -103 -15
l-108 3 -16 59 c-18 68 -27 74 -111 75 l-57 1 -10 -37 c-5 -21 -12 -50 -15
-65 l-6 -28 -105 0 c-60 0 -105 4 -105 9 0 6 18 72 39 148 22 76 53 193 70
259 17 67 33 128 36 136 4 10 -7 20 -35 33 -25 11 -40 25 -40 36 0 17 14 19
188 21 103 2 191 3 196 3 5 -1 27 -66 48 -146z m-654 101 l62 -40 0 -80 0 -80
-100 0 -100 0 0 60 0 60 -122 -1 c-68 0 -118 -2 -113 -4 6 -2 29 -9 53 -15
l42 -11 0 -174 0 -175 28 0 c15 0 45 10 67 23 34 19 41 29 45 62 4 36 8 40 33
39 15 0 56 -1 92 -2 l65 -2 0 -95 0 -94 -52 -36 -53 -35 -158 0 -158 0 -51 35
-52 34 -3 249 -3 248 52 37 53 37 156 0 156 0 61 -40z m2582 -105 c0 -43 -1
-45 -30 -45 -28 0 -29 2 -24 33 9 52 12 57 34 57 17 0 20 -6 20 -45z m-318
-185 c2 -28 0 -40 -9 -40 -14 0 -19 61 -6 73 10 11 11 9 15 -33z m1456 -192
l3 -38 -75 0 -76 0 0 34 c0 34 2 35 43 39 93 9 102 6 105 -35z m-4280 -105 c6
-19 -25 -16 -32 3 -4 11 -1 14 11 12 9 -2 18 -9 21 -15z m-2708 -80 c0 -32 -4
-43 -15 -43 -11 0 -15 11 -15 43 0 32 4 44 15 44 11 0 15 -12 15 -44z m3107
-3 c-7 -12 -23 -20 -37 -20 -52 0 -100 -47 -100 -99 0 -36 13 -34 24 4 3 11 3
4 0 -16 -4 -33 -2 -37 22 -43 15 -4 39 -4 55 -1 21 5 29 3 29 -7 0 -26 -24
-38 -75 -38 l-51 0 -13 -62 c-8 -35 -15 -58 -18 -51 -2 6 2 36 10 65 14 54 14
55 -10 78 -21 21 -24 31 -21 71 8 75 61 127 143 139 50 8 58 4 42 -20z m90
-37 c-4 -38 -7 -92 -7 -120 0 -48 -2 -53 -23 -53 -22 0 -22 1 -19 108 4 127 5
132 33 132 21 0 22 -3 16 -67z m211 50 c-2 -12 -14 -19 -36 -21 l-33 -3 2 -97
c2 -94 1 -97 -21 -97 -21 0 -22 4 -24 95 l-1 95 -32 3 c-18 2 -33 7 -33 11 0
22 30 31 103 31 69 0 78 -2 75 -17z m94 -43 c18 -27 36 -50 39 -50 3 0 11 11
17 25 9 20 9 25 -3 25 -12 0 -35 28 -35 43 0 7 94 -5 103 -12 4 -4 -7 -34 -24
-65 -24 -46 -30 -68 -27 -105 3 -40 0 -46 -18 -49 -18 -3 -22 3 -27 46 -4 36
-19 71 -51 121 -40 62 -43 71 -26 71 13 0 31 -18 52 -50z m-1151 -64 c-38 -52
-68 -96 -65 -99 3 -2 -2 -7 -10 -10 -9 -4 -18 -2 -21 3 -4 6 -2 10 4 10 5 0
41 43 80 95 40 52 74 95 76 95 3 0 -26 -42 -64 -94z m1962 -47 c38 -56 30 -57
-11 -3 -18 24 -29 44 -25 44 4 -1 21 -19 36 -41z m2367 -44 l0 -45 -70 0 -70
0 0 45 0 45 70 0 70 0 0 -45z m-4182 -12 c-21 -2 -55 -2 -75 0 -21 2 -4 4 37
4 41 0 58 -2 38 -4z m2769 -16 c-7 12 114 6 145 -7 16 -6 -18 -9 -114 -9 -81
1 -136 5 -132 10 3 5 9 7 14 4 4 -3 19 -1 32 4 14 5 30 5 42 -1 10 -6 16 -6
13 -1z m-897 -7 c0 -5 -2 -10 -4 -10 -3 0 -8 5 -11 10 -3 6 -1 10 4 10 6 0 11
-4 11 -10z m-683 -142 c-3 -7 -5 -2 -5 12 0 14 2 19 5 13 2 -7 2 -19 0 -25z
m-3277 -13 c0 -19 -4 -35 -10 -35 -5 0 -10 16 -10 35 0 19 5 35 10 35 6 0 10
-16 10 -35z m3308 -95 c0 -9 -3 -7 -8 5 -5 11 -8 29 -8 40 0 16 2 15 8 -5 4
-14 8 -32 8 -40z m9 -42 c-3 -8 -6 -5 -6 6 -1 11 2 17 5 13 3 -3 4 -12 1 -19z
m22 -66 c1 -7 -3 -10 -9 -7 -5 3 -10 18 -9 33 0 24 1 25 9 7 5 -11 9 -26 9
-33z m-2526 -22 c-3 -11 -10 -20 -15 -20 -6 0 -7 8 -4 18 5 15 4 15 -6 2 -7
-8 -28 -17 -45 -18 -28 -3 -33 0 -33 17 0 19 6 21 54 21 49 0 54 -2 49 -20z
m53 -8 c-17 -16 -18 -16 -5 5 7 12 15 20 18 17 3 -2 -3 -12 -13 -22z m522
-384 c-4 -10 -41 -13 -143 -13 -102 0 -139 3 -142 13 -4 9 29 12 142 12 113 0
146 -3 143 -12z m917 -38 c0 -33 -2 -35 -35 -35 -29 0 -36 4 -38 23 -6 40 5
54 40 50 30 -3 33 -6 33 -38z m110 0 c0 -33 -2 -35 -35 -35 -33 0 -35 2 -38
38 l-3 38 38 -3 c36 -3 38 -5 38 -38z m100 0 c0 -32 -2 -35 -30 -35 -28 0 -30
3 -33 38 -3 38 -3 38 30 35 30 -3 33 -6 33 -38z m110 0 c0 -32 -2 -35 -30 -35
-24 0 -31 5 -33 23 -6 38 5 54 35 50 25 -3 28 -7 28 -38z m-975 -180 l138 0 6
-92 c12 -195 14 -388 5 -393 -5 -4 -9 -25 -9 -48 0 -23 -3 -66 -7 -95 l-6 -53
-83 5 c-51 4 -84 2 -84 -4 0 -8 -102 -7 -177 2 -7 1 -16 11 -20 22 -8 24 -5
645 4 659 3 5 26 7 51 3 25 -3 107 -6 182 -6z m2543 -157 c4 -86 8 -158 11
-160 2 -2 46 -4 97 -4 62 0 100 -5 112 -14 20 -15 37 -65 37 -112 0 -30 -3
-33 -29 -33 l-28 0 -5 -410 c-2 -225 -7 -412 -11 -416 -3 -4 -14 -1 -22 6 -11
9 -22 10 -38 3 -30 -13 -88 -8 -98 8 -12 20 -18 109 -23 363 -3 126 -9 233
-13 237 -5 5 -40 10 -79 11 l-71 3 -7 59 c-3 32 -6 112 -6 177 l0 119 -281 0
c-262 0 -280 1 -275 18 2 9 8 81 11 160 l7 142 353 0 352 0 6 -157z m-3943
-538 c0 -33 -2 -35 -35 -35 -33 0 -35 2 -35 35 0 33 2 35 35 35 33 0 35 -2 35
-35z m120 0 c0 -34 -1 -35 -40 -35 -39 0 -40 1 -40 35 0 34 1 35 40 35 39 0
40 -1 40 -35z m245 0 c0 -28 -3 -30 -42 -33 l-43 -3 0 36 0 36 43 -3 c39 -3
42 -5 42 -33z m2705 -75 l0 -60 -60 0 -60 0 0 60 0 60 60 0 60 0 0 -60z m200
0 l0 -60 -65 0 -65 0 0 60 0 60 65 0 65 0 0 -60z m200 0 l0 -60 -60 0 -60 0 0
60 0 60 60 0 60 0 0 -60z m190 0 l0 -60 -60 0 -60 0 0 60 0 60 60 0 60 0 0
-60z m2318 -492 c3 -16 -6 -18 -87 -18 -85 0 -91 1 -91 20 0 20 5 21 87 18 74
-3 88 -6 91 -20z"/>
<path d="M5048 14403 c7 -3 16 -2 19 1 4 3 -2 6 -13 5 -11 0 -14 -3 -6 -6z"/>
<path d="M2892 13692 c-12 -87 -22 -164 -22 -170 0 -8 22 -12 65 -12 46 0 65
4 64 13 0 6 -13 82 -28 167 -20 117 -31 156 -43 158 -12 2 -19 -25 -36 -156z"/>
<path d="M3530 13816 c0 -4 20 -15 45 -26 45 -19 45 -19 45 -70 l0 -50 75 0
75 0 0 70 0 70 -67 0 c-38 0 -92 3 -120 6 -29 4 -53 4 -53 0z"/>
<path d="M5636 13811 c-3 -5 12 -11 34 -15 l40 -6 0 -204 0 -203 67 -6 c38 -3
71 -3 75 0 5 2 8 103 8 224 l0 219 -109 0 c-61 0 -112 -4 -115 -9z"/>
<path d="M5086 13792 c-4 -7 -46 -238 -46 -256 0 -3 29 -6 65 -6 46 0 65 4 64
13 0 6 -13 66 -28 131 -25 110 -40 142 -55 118z"/>
<path d="M4180 11085 c0 -286 5 -348 24 -299 3 9 6 150 6 315 0 259 -2 299
-15 299 -13 0 -15 -42 -15 -315z"/>
<path d="M7992 10292 c-8 -5 -12 -22 -10 -38 3 -27 6 -29 43 -29 39 0 40 1 40
35 0 32 -3 35 -30 38 -16 1 -36 -2 -43 -6z"/>
<path d="M8102 10263 c3 -35 6 -38 36 -41 31 -3 32 -2 32 37 0 40 -1 41 -36
41 -35 0 -35 -1 -32 -37z"/>
<path d="M8204 10286 c-3 -8 -4 -25 -2 -38 2 -19 9 -23 38 -23 33 0 35 2 38
38 3 36 3 37 -33 37 -22 0 -38 -6 -41 -14z"/>
<path d="M980 10225 c0 -33 2 -35 35 -35 33 0 35 2 35 35 0 33 -2 35 -35 35
-33 0 -35 -2 -35 -35z"/>
<path d="M980 10110 c0 -39 1 -40 35 -40 34 0 35 1 35 40 0 39 -1 40 -35 40
-34 0 -35 -1 -35 -40z"/>
<path d="M6381 10030 c0 -29 1 -32 10 -17 7 11 7 23 0 35 -9 14 -10 11 -10
-18z"/>
<path d="M984 10037 c-3 -9 -4 -28 -2 -44 3 -24 7 -28 33 -28 28 0 30 2 30 40
0 36 -3 40 -28 43 -17 2 -29 -2 -33 -11z"/>
<path d="M980 9895 c0 -33 2 -35 35 -35 33 0 35 2 35 35 0 33 -2 35 -35 35
-33 0 -35 -2 -35 -35z"/>
<path d="M4812 9828 c-16 -16 -16 -80 0 -96 9 -9 85 -12 279 -12 l267 0 6 43
c12 81 27 77 -273 77 -194 0 -270 -3 -279 -12z"/>
<path d="M980 9785 c0 -33 2 -35 35 -35 33 0 35 2 35 35 0 33 -2 35 -35 35
-33 0 -35 -2 -35 -35z"/>
<path d="M982 9673 c3 -35 6 -38 36 -41 31 -3 32 -2 32 37 0 40 -1 41 -36 41
-35 0 -35 -1 -32 -37z"/>
<path d="M980 9566 c0 -35 13 -47 46 -42 14 2 20 13 22 39 3 36 2 37 -32 37
-34 0 -36 -2 -36 -34z"/>
<path d="M4056 9591 c-10 -15 4 -40 27 -47 21 -7 51 20 44 41 -5 13 -63 19
-71 6z"/>
<path d="M4160 9581 c0 -44 72 -54 83 -12 7 27 0 31 -45 31 -31 0 -38 -4 -38
-19z"/>
<path d="M4270 9582 c0 -32 26 -47 56 -33 38 17 28 45 -19 49 -31 3 -37 0 -37
-16z"/>
<path d="M4385 9590 c-10 -17 5 -50 23 -50 25 0 40 12 44 35 2 16 -3 21 -29
23 -17 2 -34 -2 -38 -8z"/>
<path d="M7837 9593 c-14 -14 -6 -33 13 -33 11 0 23 -7 27 -15 4 -12 9 -10 19
11 8 14 11 30 8 35 -6 10 -57 12 -67 2z"/>
<path d="M7945 9590 c-8 -14 3 -30 21 -30 8 0 14 -8 14 -17 1 -16 2 -16 15 1
25 33 19 56 -14 56 -17 0 -33 -4 -36 -10z"/>
<path d="M8052 9563 c4 -44 19 -52 47 -22 33 36 28 59 -15 59 -35 0 -35 -1
-32 -37z"/>
<path d="M8170 9583 c1 -19 22 -53 34 -53 3 0 6 6 6 14 0 8 5 16 12 18 21 7 0
38 -27 38 -17 0 -25 -5 -25 -17z"/>
<path d="M0 9405 c0 -16 43 -21 75 -9 24 10 -1 24 -42 24 -23 0 -33 -5 -33
-15z"/>
<path d="M655 9411 c-4 -8 54 -11 192 -9 218 1 193 12 -39 16 -95 2 -148 0
-153 -7z"/>
<path d="M8100 9410 l-175 -6 155 -2 c85 -1 229 -5 320 -9 173 -6 304 2 294
18 -6 10 -256 9 -594 -1z"/>
<path d="M8817 9414 c-4 -4 -4 -11 -1 -15 7 -12 815 -11 832 0 11 7 10 10 -3
15 -22 8 -820 8 -828 0z"/>
<path d="M9725 9410 c-3 -6 0 -12 7 -15 26 -10 853 0 851 10 -4 14 -849 19
-858 5z"/>
<path d="M10666 9411 c-3 -5 1 -12 10 -15 9 -3 198 -6 421 -6 319 0 404 3 401
13 -4 9 -98 13 -416 15 -238 1 -413 -2 -416 -7z"/>
<path d="M11616 9411 c-11 -16 131 -22 469 -19 211 2 330 7 330 13 0 13 -791
19 -799 6z"/>
<path d="M12566 9411 c-3 -5 2 -11 12 -13 37 -10 737 -3 742 7 6 13 -746 19
-754 6z"/>
<path d="M13536 9411 c-4 -5 -3 -11 1 -13 20 -9 693 -2 693 7 0 13 -686 19
-694 6z"/>
<path d="M14485 9410 c-3 -5 -5 -10 -3 -10 41 -5 643 -10 655 -6 15 6 15 8 3
16 -21 13 -647 13 -655 0z"/>
<path d="M15447 9413 c-4 -3 -7 -9 -7 -12 0 -8 568 -13 592 -6 10 4 16 11 13
16 -7 10 -588 13 -598 2z"/>
<path d="M16406 9411 c-4 -5 -3 -11 1 -13 21 -9 528 -2 531 7 3 13 -524 19
-532 6z"/>
<path d="M17367 9414 c-4 -4 -5 -10 -3 -13 6 -10 491 -4 491 5 0 10 -478 18
-488 8z"/>
<path d="M18320 9410 c-25 -16 13 -23 88 -16 37 3 134 6 215 6 96 0 146 4 142
10 -8 13 -424 13 -445 0z"/>
<path d="M19281 9411 c-22 -14 26 -24 85 -17 27 2 109 5 182 5 86 1 131 5 127
11 -8 13 -374 13 -394 1z"/>
<path d="M1678 9403 c56 -2 148 -2 205 0 56 1 10 3 -103 3 -113 0 -159 -2
-102 -3z"/>
<path d="M2603 9403 c65 -2 168 -2 230 0 62 1 9 3 -118 3 -126 0 -177 -2 -112
-3z"/>
<path d="M3512 9403 c70 -2 187 -2 260 0 73 1 16 3 -127 3 -143 0 -203 -2
-133 -3z"/>
<path d="M4428 9403 c84 -2 219 -2 300 0 81 1 12 3 -153 3 -165 0 -231 -2
-147 -3z"/>
<path d="M5353 9403 c87 -2 227 -2 310 0 84 1 13 3 -158 3 -170 0 -239 -2
-152 -3z"/>
<path d="M6273 9403 c93 -2 241 -2 330 0 89 1 14 3 -168 3 -181 0 -254 -2
-162 -3z"/>
<path d="M7198 9403 c101 -2 263 -2 360 0 97 1 15 2 -183 2 -198 0 -278 -1
-177 -2z"/>
<path d="M20 9340 c0 -6 53 -10 139 -10 88 0 142 -4 146 -11 9 -14 -25 -38
-55 -39 -14 0 -38 -7 -54 -15 -18 -10 -57 -15 -112 -15 l-84 0 0 -34 c0 -34 0
-35 38 -29 20 3 46 12 57 19 11 7 52 16 90 20 39 3 79 13 90 20 15 11 63 14
196 14 173 0 239 -5 239 -20 0 -4 -53 -10 -117 -13 -65 -4 -131 -11 -148 -16
-69 -20 24 -26 405 -26 359 0 398 2 422 17 15 10 51 21 80 24 29 4 65 13 80
20 49 25 429 17 398 -9 -3 -2 -61 -9 -129 -15 -123 -11 -141 -15 -127 -29 4
-5 200 -8 434 -8 383 0 430 2 452 17 14 9 43 20 65 24 22 3 52 13 67 20 19 10
69 14 175 13 200 -1 250 -20 87 -33 -136 -11 -173 -28 -88 -40 26 -3 223 -6
438 -6 l391 0 50 25 c28 13 59 25 70 25 11 0 29 7 39 15 15 12 50 15 145 14
179 -1 219 -20 71 -33 -78 -7 -111 -19 -96 -33 9 -9 865 -17 913 -8 18 3 38
11 45 18 7 7 38 22 68 35 75 30 260 32 260 2 0 -4 -28 -11 -63 -14 -78 -9 -98
-19 -68 -35 15 -8 156 -11 497 -9 417 3 477 5 487 19 7 8 33 25 59 38 37 18
60 21 119 19 47 -2 74 -7 77 -15 2 -7 -4 -13 -15 -13 -10 0 -36 -5 -58 -11
-37 -10 -38 -12 -20 -25 15 -12 106 -14 510 -14 l491 0 39 40 c39 40 41 41
104 38 35 -2 66 -8 68 -13 2 -6 -18 -16 -43 -23 -39 -11 -44 -15 -34 -27 11
-13 86 -15 531 -15 457 0 519 2 533 16 9 8 16 22 16 30 0 16 39 34 76 34 18 0
27 9 38 34 14 33 46 53 66 41 5 -3 10 -2 10 4 0 6 -52 8 -142 4 -79 -2 -262
-9 -408 -14 -433 -15 -435 -15 -464 -49 -43 -52 -160 -51 -162 1 -1 13 -2 30
-3 37 -1 10 -61 12 -303 8 -167 -3 -357 -8 -423 -11 -118 -6 -121 -7 -153 -38
-32 -31 -36 -32 -118 -31 -94 0 -117 11 -96 44 6 11 12 25 12 30 0 12 -355 8
-650 -7 -150 -8 -157 -9 -199 -38 -38 -26 -54 -30 -120 -31 -97 -3 -141 4
-148 24 -4 8 2 21 12 28 41 30 43 30 -555 22 -96 -2 -177 -5 -180 -8 -3 -3
-26 -18 -52 -33 -44 -26 -53 -27 -183 -27 -117 0 -137 2 -142 16 -4 10 1 22
12 30 33 25 -26 37 -140 29 -55 -4 -194 -9 -308 -11 l-208 -3 -67 -33 -67 -33
-152 1 c-159 1 -197 10 -172 40 6 8 18 14 26 14 8 0 13 6 11 13 -3 8 -22 11
-59 9 -30 -1 -171 -6 -314 -10 -258 -8 -261 -8 -325 -37 -64 -29 -68 -29 -242
-29 -131 0 -181 4 -192 14 -20 16 -5 39 28 42 11 1 -103 5 -254 8 -151 3 -286
1 -300 -4 -14 -5 -38 -14 -55 -21 -74 -31 -110 -35 -305 -35 -168 -1 -206 2
-219 14 -16 17 -18 15 49 33 26 7 -28 11 -197 15 -183 5 -239 10 -264 22 -26
13 -67 16 -201 16 -105 0 -168 -4 -168 -10z"/>
<path d="M8715 9329 c-16 -10 -45 -19 -62 -19 -26 0 -36 -6 -48 -30 -13 -25
-22 -30 -53 -31 -42 -1 -97 -29 -97 -50 0 -12 80 -14 530 -17 292 -1 540 0
553 3 15 4 22 13 22 29 0 12 9 31 21 42 11 10 18 26 16 36 -3 10 1 24 8 32 8
7 11 16 8 20 -4 3 -200 6 -437 5 -407 0 -433 -2 -461 -20z"/>
<path d="M9693 9327 c-18 -12 -33 -27 -33 -34 0 -7 -14 -28 -31 -48 -60 -68
-83 -65 538 -63 487 3 558 5 560 18 2 8 -13 26 -32 39 -19 13 -35 31 -35 39 0
9 -12 29 -27 44 l-27 28 -440 -1 c-437 0 -441 0 -473 -22z"/>
<path d="M10710 9341 c0 -6 5 -13 10 -16 6 -3 10 -19 10 -35 0 -16 7 -30 16
-34 9 -3 14 -15 13 -28 -7 -49 -22 -48 555 -48 469 0 545 2 556 15 10 12 5 18
-35 35 -26 11 -57 20 -70 20 -13 0 -34 12 -48 29 -18 21 -37 31 -70 36 -25 4
-48 13 -51 21 -4 12 -78 14 -446 14 -268 0 -440 -4 -440 -9z"/>
<path d="M11720 9340 c0 -5 20 -10 45 -10 29 0 46 -5 47 -12 0 -7 2 -17 3 -23
2 -5 3 -17 4 -25 1 -12 10 -15 40 -12 32 3 41 0 59 -25 12 -15 27 -34 32 -40
8 -10 126 -13 528 -13 284 0 523 4 531 9 21 14 4 30 -40 37 -44 7 -51 19 -16
28 63 17 140 -8 175 -56 12 -17 44 -18 511 -18 401 0 501 3 516 13 17 13 16
15 -15 25 -18 7 -46 12 -61 12 -34 0 -38 15 -6 24 76 20 188 -6 239 -56 17
-17 54 -18 486 -18 447 0 512 3 512 20 0 12 -28 20 -92 27 -107 11 -62 33 70
33 63 0 91 -5 119 -20 21 -11 44 -20 51 -20 8 0 25 -9 39 -20 25 -19 41 -20
469 -20 299 0 452 4 471 11 l28 11 -25 10 c-14 5 -58 12 -97 15 -40 3 -73 9
-73 13 0 14 44 20 151 20 85 0 116 -4 150 -20 24 -11 53 -20 63 -20 11 0 28
-8 39 -17 17 -16 56 -18 441 -21 305 -2 432 0 461 9 38 11 39 12 16 20 -13 5
-64 12 -112 16 -88 6 -110 15 -66 27 45 12 267 6 301 -8 18 -7 53 -17 77 -21
24 -4 52 -15 63 -24 16 -14 63 -16 440 -16 231 0 430 4 441 8 36 15 -5 26
-124 33 -111 7 -140 18 -78 29 56 11 347 1 355 -11 4 -7 36 -15 72 -19 37 -4
73 -14 84 -24 16 -14 62 -16 427 -16 313 0 411 3 421 13 6 6 8 12 2 13 -5 0
-18 2 -29 5 -11 2 -73 7 -137 11 -65 3 -118 9 -118 13 0 15 49 20 218 20 l172
0 0 45 c0 42 -2 45 -27 45 -14 0 -34 -7 -44 -16 -13 -12 -53 -16 -195 -20 -99
-2 -206 -4 -239 -4 -42 0 -56 -3 -45 -10 8 -5 25 -10 37 -10 27 0 40 -19 22
-31 -20 -13 -407 -6 -444 8 -16 6 -43 15 -60 20 -16 5 -30 15 -30 23 0 13 27
15 165 18 90 1 169 7 174 12 7 7 -59 10 -185 10 -167 0 -201 -3 -230 -17 -29
-16 -65 -18 -264 -18 -203 0 -234 2 -258 18 -23 15 -54 17 -258 17 -207 0
-235 -2 -252 -17 -17 -16 -42 -18 -216 -18 -164 0 -203 3 -239 18 -36 15 -77
17 -294 17 -224 0 -254 -2 -270 -17 -17 -15 -43 -17 -197 -18 -152 0 -181 2
-204 18 -23 15 -57 17 -312 17 -251 0 -290 -2 -318 -17 -46 -25 -274 -25 -335
0 -37 15 -81 17 -359 17 -282 0 -318 -2 -335 -17 -27 -24 -239 -24 -283 0 -26
15 -72 17 -374 17 -304 0 -347 -2 -362 -16 -27 -24 -195 -25 -229 -1 -22 15
-63 17 -402 17 -260 0 -379 -3 -384 -11 -4 -7 7 -10 32 -9 99 5 109 2 122 -32
15 -40 5 -48 -64 -48 -46 0 -55 4 -81 34 -29 32 -33 33 -99 33 -45 0 -79 6
-99 16 -26 15 -79 17 -437 17 -266 0 -408 -3 -408 -10z m2273 -36 c32 -43 17
-54 -68 -54 -67 0 -81 3 -111 26 -52 40 -33 54 75 54 80 -1 87 -2 104 -26z
m1099 -4 c45 -41 29 -50 -94 -50 -88 0 -100 2 -137 27 -69 45 -57 53 78 53
119 0 120 0 153 -30z m1075 16 c4 -7 18 -19 31 -25 19 -10 21 -15 11 -27 -17
-21 -261 -20 -279 1 -7 8 -20 15 -30 15 -22 0 -44 25 -35 40 10 16 292 13 302
-4z m1096 -6 c9 -11 23 -20 31 -20 21 0 31 -21 15 -31 -8 -5 -82 -9 -165 -9
-123 0 -154 3 -164 15 -7 8 -23 15 -35 15 -26 0 -50 24 -40 40 4 6 68 10 173
10 155 0 169 -1 185 -20z m1080 6 c3 -8 19 -17 36 -21 36 -8 49 -24 30 -36 -8
-5 -91 -9 -185 -9 -134 0 -174 3 -190 15 -10 8 -30 15 -44 15 -31 1 -58 21
-53 38 7 19 399 17 406 -2z"/>
<path d="M0 9120 l0 -40 156 0 c168 0 199 -13 56 -23 -50 -4 -102 -11 -116
-17 -15 -5 -43 -10 -62 -10 -31 0 -34 -2 -34 -31 l0 -32 443 7 c348 4 454 9
497 21 77 21 226 20 265 -3 28 -16 73 -17 560 -16 466 0 537 3 584 17 76 23
208 23 234 0 18 -17 60 -18 581 -18 511 0 565 2 604 18 26 10 69 17 109 17 49
0 71 -5 86 -17 18 -17 61 -18 601 -18 530 0 585 2 624 18 23 9 63 17 89 17 30
0 53 -6 66 -17 18 -17 62 -18 631 -18 566 0 613 1 636 18 31 22 88 22 113 0
18 -17 63 -18 652 -18 589 0 634 1 652 18 11 9 28 17 38 17 10 0 24 -8 31 -17
12 -17 55 -18 674 -18 l661 0 18 24 c18 24 19 24 25 4 4 -13 19 -23 38 -27 47
-9 1301 -7 1316 3 8 5 12 21 10 37 -2 21 -11 33 -35 43 -28 12 -32 20 -35 55
l-3 41 -599 3 c-457 2 -602 -1 -613 -10 -10 -8 -13 -23 -10 -44 5 -28 2 -33
-19 -38 -13 -4 -24 -11 -24 -16 0 -14 -22 -12 -44 5 -17 13 -16 15 17 28 34
15 55 47 42 67 -4 7 -208 10 -589 10 l-582 0 -27 -28 c-15 -15 -27 -36 -27
-45 0 -13 -9 -17 -39 -17 -41 0 -91 -15 -101 -29 -3 -5 -14 -11 -26 -15 -16
-5 -23 0 -32 18 -14 31 -8 36 48 36 30 0 52 6 60 15 7 8 20 15 29 15 26 0 43
21 30 37 -9 10 -119 13 -574 13 -530 0 -564 -1 -586 -18 -13 -10 -32 -21 -41
-25 -10 -3 -18 -15 -18 -25 0 -17 -10 -20 -99 -24 -65 -3 -108 -10 -123 -20
-13 -8 -39 -18 -59 -22 -31 -5 -37 -3 -47 18 -9 21 -8 25 11 30 12 3 59 6 103
6 63 0 83 3 88 15 3 8 16 15 29 15 30 0 62 24 53 38 -5 9 -151 12 -547 12
-517 0 -542 -1 -577 -20 -20 -10 -49 -22 -64 -25 -19 -4 -28 -12 -28 -25 0
-18 -7 -20 -86 -20 -76 0 -85 2 -82 18 2 13 16 18 55 22 59 6 88 25 63 40 -9
6 -223 10 -525 10 -482 0 -512 -1 -560 -20 -27 -10 -67 -22 -87 -25 -29 -5
-38 -11 -38 -26 0 -19 -6 -20 -103 -17 -83 2 -102 6 -102 18 0 11 17 16 70 21
39 3 79 10 90 16 49 28 -34 33 -517 33 -447 0 -485 -1 -537 -19 -31 -11 -78
-23 -106 -28 -39 -6 -50 -12 -49 -25 2 -16 -11 -18 -132 -18 -107 0 -134 3
-134 14 0 18 31 26 101 26 31 0 71 5 89 12 31 10 32 12 15 25 -15 10 -108 13
-478 13 -425 0 -464 -1 -530 -20 -40 -10 -98 -22 -129 -25 -49 -5 -58 -10 -58
-26 0 -18 -8 -19 -142 -19 -134 0 -183 8 -165 27 4 4 54 10 110 14 111 7 160
19 136 35 -8 5 -211 10 -454 12 -411 3 -446 1 -530 -17 -49 -11 -116 -23 -147
-26 -49 -6 -58 -9 -58 -27 0 -19 -5 -20 -179 -16 -165 3 -205 8 -188 24 3 4
64 10 134 14 70 5 141 12 158 17 68 21 -13 28 -342 31 l-343 3 0 -41z m1626
-49 c-3 -4 -41 -11 -86 -15 -44 -3 -91 -11 -106 -16 -14 -6 -70 -10 -125 -10
-81 0 -99 3 -99 15 0 8 -6 16 -12 16 -7 1 5 5 27 9 58 10 407 12 401 1z m1310
0 c-3 -4 -35 -11 -71 -14 -36 -3 -74 -11 -84 -17 -11 -5 -58 -10 -104 -10 -68
0 -86 3 -91 16 -9 22 -9 22 22 27 53 8 333 7 328 -2z m1314 0 c0 -4 -25 -11
-56 -14 -30 -3 -61 -10 -67 -15 -7 -5 -42 -12 -79 -15 -62 -6 -69 -4 -83 16
-14 21 -14 22 7 29 35 9 278 9 278 -1z m1310 -1 c0 -5 -11 -10 -25 -10 -14 0
-42 -7 -62 -15 -19 -8 -57 -15 -83 -15 -39 0 -49 4 -53 19 -6 26 5 28 126 30
59 1 97 -3 97 -9z"/>
<path d="M10796 9143 c-7 -17 37 -62 62 -63 14 0 16 -16 2 -25 -21 -13 -9 -44
24 -64 34 -21 38 -22 681 -19 561 3 647 5 655 18 11 17 9 31 -5 32 -6 1 -30
12 -54 25 -24 12 -61 23 -82 23 -28 0 -39 4 -39 15 0 8 -15 29 -32 45 l-33 29
-586 1 c-541 0 -587 -1 -593 -17z"/>
<path d="M12060 9145 c-10 -12 -7 -17 16 -27 16 -7 33 -18 37 -25 5 -8 28 -13
55 -13 56 0 67 -7 67 -40 0 -17 6 -26 20 -28 11 -2 28 -11 39 -21 16 -14 78
-16 658 -16 598 0 640 1 652 18 8 10 26 17 45 17 18 0 46 -8 64 -17 29 -16 81
-18 582 -21 569 -4 665 0 689 24 20 19 97 18 148 -3 39 -16 94 -18 624 -18
540 0 583 1 601 18 26 23 126 23 190 0 43 -15 106 -17 609 -18 536 0 563 1
583 19 18 16 33 18 123 14 61 -3 113 -10 128 -18 20 -12 125 -14 566 -15 517
0 543 1 563 19 18 17 33 18 143 14 68 -3 132 -10 143 -15 12 -7 137 -14 308
-19 l287 -7 0 97 0 96 -157 0 c-87 0 -176 -5 -198 -11 -39 -11 -39 -12 -15
-21 14 -6 82 -13 152 -17 122 -6 150 -12 134 -28 -4 -5 -86 -9 -182 -11 -167
-3 -174 -3 -174 16 0 17 -9 21 -62 27 -35 4 -98 15 -142 26 -71 17 -119 19
-511 19 -306 0 -442 -3 -466 -12 l-34 -12 30 -9 c17 -5 78 -12 138 -16 59 -5
110 -11 114 -14 16 -17 -19 -22 -163 -25 -136 -3 -154 -2 -154 12 0 19 -38 36
-82 36 -17 0 -62 9 -99 20 -66 20 -90 21 -543 18 -333 -2 -478 -6 -486 -14
-15 -15 60 -34 134 -34 70 0 91 -7 75 -26 -9 -11 -42 -14 -135 -14 -115 0
-124 1 -124 19 0 21 -19 31 -60 31 -15 0 -56 9 -90 20 -59 19 -90 20 -550 20
-419 0 -489 -2 -500 -15 -10 -12 -8 -16 15 -25 14 -5 50 -10 78 -10 56 0 84
-11 73 -29 -5 -7 -46 -11 -112 -11 -95 0 -104 2 -104 19 0 20 -19 31 -55 31
-12 0 -42 9 -66 20 -42 19 -68 20 -560 20 -425 0 -519 -2 -534 -14 -18 -13
-17 -15 20 -25 22 -6 53 -12 70 -13 19 -2 31 -9 33 -20 3 -16 -6 -18 -82 -18
-80 0 -85 1 -88 22 -2 16 -12 24 -33 28 -16 4 -44 14 -62 23 -29 16 -84 17
-575 15 -503 -3 -543 -4 -546 -20 -2 -12 5 -19 22 -23 14 -3 37 -7 51 -10 16
-4 22 -10 19 -20 -5 -11 -22 -15 -65 -15 -52 0 -59 2 -59 19 0 12 -9 23 -22
27 -13 4 -34 15 -47 25 -22 18 -53 19 -586 19 -484 0 -564 -2 -575 -15z m1545
-75 c3 -5 1 -19 -5 -30 -8 -15 -17 -18 -43 -13 -17 3 -41 12 -52 20 -11 7 -29
13 -40 13 -11 0 -27 5 -35 10 -10 7 14 10 77 10 50 0 95 -4 98 -10z m1361 4
c16 -4 20 -11 16 -31 -4 -23 -7 -24 -55 -18 -27 4 -65 14 -83 21 -18 8 -47 14
-63 14 -16 0 -33 5 -36 10 -7 11 183 14 221 4z m1377 -3 c25 -5 27 -8 14 -25
-17 -23 -106 -24 -172 -1 -25 8 -61 15 -80 15 -18 0 -37 5 -40 10 -7 11 230
12 278 1z m1369 3 c33 -6 35 -8 25 -25 -10 -16 -24 -19 -95 -19 -46 0 -92 5
-103 10 -10 6 -48 14 -84 17 -36 3 -68 10 -71 14 -6 10 271 12 328 3z m1403
-6 c4 -3 2 -15 -4 -25 -9 -17 -19 -19 -113 -15 -56 2 -110 8 -120 13 -9 5 -51
12 -93 16 -42 3 -78 10 -82 16 -6 10 401 6 412 -5z"/>
<path d="M0 8915 l0 -47 63 6 c49 6 69 3 97 -11 32 -17 81 -18 650 -21 515 -3
626 -1 680 12 117 26 171 29 210 9 33 -17 80 -18 696 -18 485 0 667 3 685 12
44 21 128 24 157 5 24 -16 81 -17 708 -17 500 0 687 3 705 12 46 22 99 23 137
3 35 -19 61 -20 722 -20 561 0 689 2 705 14 11 7 37 16 57 20 29 5 39 3 47
-11 9 -17 51 -18 732 -21 599 -2 725 0 738 11 29 25 51 27 71 7 20 -20 36 -20
755 -20 722 0 735 0 755 20 11 11 21 28 21 38 1 9 4 1 8 -18 l6 -35 749 -3
c645 -2 752 0 772 13 19 12 24 12 34 0 11 -13 114 -15 740 -15 401 0 735 3
744 6 24 9 20 44 -4 44 -11 0 -20 5 -20 10 0 17 29 11 47 -10 10 -11 24 -20
31 -20 7 0 20 -7 29 -15 13 -14 102 -15 740 -13 677 3 725 4 737 21 15 19 64
15 102 -10 18 -11 143 -13 722 -11 646 3 701 4 719 20 21 20 75 16 130 -8 26
-12 146 -14 695 -14 643 0 664 1 700 20 40 21 81 19 198 -10 32 -7 244 -10
686 -8 595 3 642 4 667 21 24 15 37 17 105 8 42 -5 95 -14 117 -20 26 -7 236
-11 598 -11 l557 0 0 25 c0 18 -5 25 -19 25 -11 0 -23 5 -26 10 -4 6 5 10 19
10 21 0 26 5 26 26 0 26 -2 26 -42 20 -23 -4 -50 -14 -59 -22 -13 -12 -36 -14
-125 -8 -60 4 -115 12 -123 18 -10 8 -190 11 -623 11 -579 0 -610 -1 -623 -18
-12 -17 -23 -18 -107 -12 -51 4 -99 13 -107 19 -10 8 -193 12 -629 14 -614 3
-616 3 -645 -18 -25 -19 -36 -21 -95 -15 -37 4 -87 13 -112 21 -37 12 -151 14
-666 12 -573 -3 -623 -4 -641 -20 -15 -14 -30 -16 -73 -11 -30 3 -65 12 -79
20 -21 10 -154 13 -673 13 -641 0 -647 0 -666 -21 -16 -17 -27 -19 -58 -13
-22 4 -42 12 -46 18 -5 8 -205 12 -690 14 l-683 3 -18 -23 -18 -22 -42 23 -42
22 -695 -3 -695 -3 -6 -40 c-3 -22 -7 -30 -8 -18 0 12 -11 31 -23 43 -21 20
-31 20 -730 20 l-707 0 -12 -21 -11 -21 -19 21 c-20 21 -22 21 -719 21 -482 0
-701 -3 -705 -11 -4 -5 -18 -15 -32 -20 -21 -8 -30 -6 -48 11 -21 20 -31 20
-689 20 -555 0 -672 -2 -694 -14 -15 -8 -45 -17 -66 -21 -31 -6 -40 -4 -52 14
l-15 21 -645 0 c-516 0 -651 -3 -677 -13 -18 -8 -56 -17 -84 -21 -45 -6 -57
-3 -81 14 -27 20 -35 21 -658 18 -445 -2 -635 -6 -645 -14 -8 -6 -47 -14 -88
-18 -63 -5 -77 -4 -94 11 -18 17 -61 18 -610 21 -411 2 -605 -1 -637 -9 -25
-6 -87 -15 -139 -20 -84 -9 -95 -8 -113 8 -19 17 -58 18 -585 21 -388 2 -581
-1 -616 -9 -29 -6 -105 -15 -170 -21 -110 -9 -119 -8 -132 9 -12 16 -33 18
-214 21 l-201 4 0 -47z m7903 -16 c-6 -6 -19 -9 -29 -6 -17 3 -16 5 6 14 28
12 39 8 23 -8z m-7533 1 c-8 -5 -53 -9 -100 -9 -57 0 -78 3 -65 9 29 12 184
12 165 0z m1505 0 c-3 -5 -41 -10 -83 -10 -53 0 -72 3 -62 10 20 13 153 13
145 0z m1520 0 c-3 -5 -39 -10 -78 -10 -50 0 -67 3 -57 10 20 13 143 13 135 0z
m1500 0 c-3 -5 -30 -10 -58 -10 -37 0 -48 3 -37 10 20 13 103 13 95 0z m1505
0 c0 -5 -19 -10 -42 -10 -32 0 -39 3 -28 10 20 13 70 13 70 0z m7590 0 c11 -7
4 -10 -27 -10 -24 0 -43 5 -43 10 0 13 50 13 70 0z m1535 0 c4 -6 -13 -10 -44
-10 -28 0 -51 5 -51 10 0 6 20 10 44 10 25 0 48 -4 51 -10z m1530 0 c14 -6 -1
-9 -47 -9 -39 -1 -68 3 -68 9 0 12 87 12 115 0z m1530 0 c14 -6 -5 -9 -57 -9
-42 -1 -80 4 -83 9 -8 12 111 12 140 0z"/>
<path d="M0 8745 l0 -77 198 4 c127 2 204 7 213 14 8 6 53 14 101 17 71 4 89
2 102 -12 15 -14 89 -16 772 -19 637 -2 760 0 787 12 18 8 60 16 93 19 49 4
67 1 90 -14 28 -18 61 -19 799 -19 665 0 774 2 799 15 42 22 120 23 144 2 17
-16 77 -17 815 -17 649 0 798 2 809 13 7 8 30 16 50 20 28 4 40 1 54 -14 17
-18 41 -19 840 -19 535 0 825 3 829 10 3 5 15 15 25 20 16 8 23 6 37 -10 17
-20 26 -20 860 -20 l843 0 19 31 19 32 4 -29 3 -29 849 -3 c733 -2 852 0 872
13 19 12 23 12 28 0 5 -13 118 -15 850 -15 842 0 845 0 856 20 12 23 48 19 63
-6 7 -12 145 -14 828 -14 803 0 820 0 847 20 23 17 33 18 64 10 21 -6 40 -15
43 -20 4 -6 304 -10 804 -10 773 0 800 1 822 19 19 16 34 18 74 14 28 -3 59
-12 70 -19 16 -12 159 -14 791 -14 746 0 772 1 796 19 20 16 35 19 89 14 35
-3 78 -11 96 -19 26 -12 157 -14 775 -14 716 0 745 1 779 19 31 17 49 19 115
14 44 -3 91 -12 106 -19 15 -8 38 -14 53 -14 25 0 25 1 25 75 l0 75 -340 0
c-290 0 -346 -2 -378 -16 -46 -20 -171 -19 -220 2 -52 22 -1393 21 -1436 -1
-37 -19 -152 -19 -186 0 -39 22 -1452 22 -1470 0 -16 -20 -116 -20 -150 0 -39
22 -1492 22 -1510 0 -16 -19 -79 -19 -104 0 -17 13 -127 15 -783 15 -747 0
-763 0 -773 -20 -11 -20 -32 -18 -61 7 -13 11 -153 13 -804 11 l-789 -3 -7
-25 -6 -25 -11 28 -12 27 -793 0 c-784 0 -793 0 -815 -20 -12 -12 -22 -30 -22
-42 0 -34 -13 -12 -14 24 l-1 33 -781 3 c-686 2 -783 0 -794 -13 -16 -19 -54
-19 -70 0 -11 13 -109 15 -775 15 -666 0 -764 -2 -775 -15 -7 -9 -29 -15 -52
-15 -22 0 -46 7 -54 15 -22 22 -1483 23 -1517 1 -33 -22 -109 -23 -137 -3 -22
16 -84 17 -738 17 -601 0 -717 -2 -741 -14 -41 -22 -153 -23 -182 -3 -21 15
-88 17 -712 17 -578 0 -693 -2 -722 -14 -48 -20 -204 -24 -216 -5 -7 12 -98
14 -529 17 l-520 3 0 -76z m988 18 c-21 -2 -55 -2 -75 0 -21 2 -4 4 37 4 41 0
58 -2 38 -4z m1665 0 c-18 -2 -48 -2 -65 0 -18 2 -4 4 32 4 36 0 50 -2 33 -4z
m1670 0 c-13 -2 -35 -2 -50 0 -16 2 -5 4 22 4 28 0 40 -2 28 -4z m1675 0 c-10
-2 -28 -2 -40 0 -13 2 -5 4 17 4 22 1 32 -1 23 -4z m1672 3 c0 -2 -9 -6 -20
-9 -11 -3 -20 -1 -20 4 0 5 9 9 20 9 11 0 20 -2 20 -4z m5017 -2 c-3 -3 -12
-4 -19 -1 -8 3 -5 6 6 6 11 1 17 -2 13 -5z m1681 -1 c-10 -2 -28 -2 -40 0 -13
2 -5 4 17 4 22 1 32 -1 23 -4z m1675 0 c-13 -2 -33 -2 -45 0 -13 2 -3 4 22 4
25 0 35 -2 23 -4z m1685 0 c-16 -2 -40 -2 -55 0 -16 2 -3 4 27 4 30 0 43 -2
28 -4z m1679 0 c-20 -2 -52 -2 -70 0 -17 2 0 4 38 4 39 0 53 -2 32 -4z m-8390
-45 c-3 -7 -5 -2 -5 12 0 14 2 19 5 13 2 -7 2 -19 0 -25z m-10232 12 c-11 -5
-45 -9 -75 -9 -40 0 -49 3 -35 9 11 5 45 9 75 9 40 0 49 -3 35 -9z m1705 0
c-8 -5 -35 -10 -60 -10 -33 0 -41 3 -30 10 8 5 35 10 60 10 33 0 41 -3 30 -10z
m1705 0 c-3 -5 -23 -10 -43 -10 -28 0 -33 3 -22 10 20 13 73 13 65 0z m1705 0
c-8 -5 -26 -10 -40 -10 -20 0 -22 2 -10 10 8 5 26 10 40 10 20 0 22 -2 10 -10z
m1705 0 c-3 -5 -16 -10 -28 -10 -18 0 -19 2 -7 10 20 13 43 13 35 0z m5140 0
c3 -5 -1 -10 -9 -10 -8 0 -18 5 -21 10 -3 6 1 10 9 10 8 0 18 -4 21 -10z
m1730 0 c8 -13 -35 -13 -55 0 -11 7 -7 10 17 10 17 0 35 -4 38 -10z m1720 0
c8 -12 -42 -12 -70 0 -16 7 -11 9 22 9 23 1 45 -3 48 -9z m1730 0 c4 -6 -11
-10 -39 -10 -25 0 -48 5 -51 10 -4 6 11 10 39 10 25 0 48 -4 51 -10z m1720 0
c8 -13 -95 -13 -115 0 -11 7 3 10 47 10 34 0 65 -4 68 -10z"/>
<path d="M405 8650 c-116 -4 -228 -12 -250 -18 -22 -6 -66 -12 -97 -12 l-58 0
0 -96 0 -95 495 3 c357 2 495 6 495 14 0 6 23 15 52 18 28 4 67 14 86 22 38
15 182 19 147 4 -11 -5 -39 -14 -63 -20 -37 -10 -42 -13 -31 -26 11 -14 121
-15 928 -12 680 2 915 6 914 14 -1 7 18 15 45 19 26 3 57 13 69 21 24 15 128
20 118 5 -3 -5 -20 -13 -38 -16 -43 -10 -47 -13 -40 -31 5 -13 112 -15 944
-13 763 1 939 4 939 14 0 8 15 17 33 20 17 4 39 14 49 22 10 9 31 13 55 11
l38 -3 -27 -14 c-16 -8 -28 -23 -28 -33 0 -19 24 -19 953 -16 892 3 955 4 971
21 10 9 23 17 31 17 7 0 15 7 19 15 6 16 46 21 46 5 0 -5 -7 -13 -17 -18 -10
-6 -14 -16 -10 -26 6 -15 89 -16 959 -16 524 0 964 3 977 7 13 3 29 19 36 37
l13 31 9 -35 9 -35 988 -3 989 -2 -6 35 c-3 19 -1 37 4 40 5 4 9 -2 9 -12 0
-10 13 -27 28 -38 26 -20 45 -20 990 -23 862 -2 963 -1 968 13 4 9 -2 25 -11
35 -40 44 38 13 92 -37 19 -17 1915 -13 1920 4 2 6 -11 20 -29 30 l-33 18 38
3 c24 2 45 -2 55 -11 10 -8 32 -18 50 -22 17 -3 32 -12 32 -20 0 -10 172 -12
937 -11 858 1 938 2 941 17 2 12 -7 18 -32 23 -19 4 -38 11 -41 16 -10 16 93
12 118 -4 12 -8 43 -18 70 -21 27 -4 47 -13 47 -20 0 -9 198 -12 918 -11 795
1 917 3 917 16 0 8 -17 18 -42 25 -23 5 -45 13 -49 18 -13 13 116 7 144 -7 15
-7 55 -17 89 -21 35 -4 61 -11 58 -15 -3 -5 3 -14 12 -19 14 -8 -6 -11 -77
-10 -52 0 -451 0 -886 0 -783 -1 -792 -1 -797 -21 -7 -27 -63 -27 -123 0 -44
20 -60 21 -1017 20 -961 0 -972 0 -986 -20 -17 -25 -37 -25 -84 0 -36 20 -56
20 -1031 20 l-994 0 -15 -22 -15 -23 -30 23 -31 22 -1016 0 c-978 0 -1015 -1
-1015 -18 0 -29 -12 -34 -24 -9 l-12 22 -1024 3 c-950 2 -1026 1 -1037 -15
-12 -15 -14 -15 -31 0 -17 16 -99 17 -1031 17 l-1012 0 -31 -22 -30 -23 -15
23 -15 22 -994 0 c-975 0 -995 0 -1031 -20 -21 -11 -46 -20 -55 -20 -10 0 -23
9 -30 20 -13 20 -23 20 -988 20 -943 -1 -976 -1 -1015 -20 -52 -25 -90 -25
-113 0 -19 20 -27 20 -984 18 -765 -2 -968 -6 -980 -16 -9 -7 -45 -15 -81 -19
-59 -5 -66 -4 -76 16 -12 21 -16 21 -316 21 l-305 0 0 -79 c0 -75 1 -80 22
-84 l23 -4 -22 -2 -23 -1 0 -250 0 -250 40 0 c33 0 40 -3 40 -19 0 -16 -8 -20
-37 -23 l-38 -3 -3 -502 c-2 -471 -1 -502 15 -506 17 -4 17 -5 1 -6 -17 -1
-18 -70 -18 -1296 l0 -1295 3315 0 3314 0 12 22 12 22 8 -22 8 -22 3490 0
c3255 0 3491 1 3506 17 16 16 18 16 27 0 8 -16 219 -17 3158 -17 l3150 0 0
1819 0 1819 -35 6 c-31 6 -34 9 -25 26 6 12 21 20 35 20 l25 0 0 264 0 265
-37 4 -38 4 38 1 37 2 0 45 0 45 -145 0 c-117 0 -145 -3 -145 -14 0 -31 -74
-34 -160 -6 -34 11 -90 21 -124 21 l-61 2 45 8 c25 4 168 5 318 2 l272 -6 0
110 0 111 -282 7 c-156 4 -488 6 -739 4 -418 -4 -459 -5 -476 -21 -25 -23
-106 -24 -170 -1 -43 15 -127 17 -854 17 -755 1 -808 0 -826 -16 -25 -23 -89
-23 -139 -1 -36 16 -110 17 -872 18 -783 0 -834 -1 -846 -17 -17 -23 -58 -23
-99 -1 -29 16 -96 18 -836 21 -443 2 -828 1 -857 -3 -60 -7 -78 -29 -39 -47
13 -6 22 -14 20 -19 -8 -12 -45 2 -45 17 0 8 -8 14 -18 14 -10 0 -29 8 -42 18
-23 16 -84 17 -871 20 -466 2 -862 -1 -880 -6 -27 -6 -35 -15 -39 -38 l-6 -29
-11 31 c-8 22 -19 33 -40 37 -15 3 -415 5 -889 4 -711 -2 -864 -4 -877 -16
-14 -11 -22 -11 -52 3 -32 16 -109 17 -894 14 -802 -3 -860 -4 -878 -20 -11
-10 -28 -18 -38 -18 -10 0 -24 8 -31 18 -12 16 -65 17 -866 17 -794 0 -855 -1
-885 -17 -18 -10 -44 -18 -59 -18 -15 0 -33 8 -40 18 -12 16 -63 17 -851 16
-764 0 -841 -2 -868 -17 -40 -22 -113 -22 -138 1 -18 16 -71 17 -826 16 -720
-1 -811 -3 -850 -18 -59 -22 -149 -21 -174 2 -18 16 -62 17 -611 18 -325 0
-685 -2 -801 -6z m8825 -57 c0 -19 -3 -24 -10 -17 -6 6 -8 18 -4 27 9 24 14
21 14 -10z m-7426 8 c7 -11 -78 -19 -114 -12 -23 5 -22 6 10 12 54 10 98 10
104 0z m1860 0 c7 -11 -67 -21 -97 -13 -20 6 -20 7 8 13 45 10 83 10 89 0z
m1856 0 c0 -11 -49 -21 -69 -13 -12 5 -10 8 9 13 36 10 60 10 60 0z m1854 0
c3 -5 -5 -11 -19 -13 -26 -5 -35 6 -12 15 19 8 25 8 31 -2z m7486 -1 c21 -7
19 -8 -17 -9 -24 -1 -43 4 -43 9 0 12 24 12 60 0z m1885 1 c25 -6 27 -8 10
-12 -28 -8 -105 1 -105 12 0 10 50 10 95 0z m1864 2 c41 -5 49 -8 34 -14 -26
-9 -144 1 -137 12 6 11 30 11 103 2z m-17009 -43 c-20 -13 -60 -13 -60 0 0 6
17 10 38 10 27 0 33 -3 22 -10z m1895 0 c-27 -12 -35 -12 -35 0 0 6 12 10 28
9 24 0 25 -1 7 -9z m1905 0 c-20 -13 -43 -13 -35 0 3 6 16 10 28 10 18 0 19
-2 7 -10z m1910 6 c0 -3 -4 -8 -10 -11 -5 -3 -10 -1 -10 4 0 6 5 11 10 11 6 0
10 -2 10 -4z m3807 -18 c-3 -8 -6 -5 -6 6 -1 11 2 17 5 13 3 -3 4 -12 1 -19z
m3833 12 c0 -13 -11 -13 -30 0 -12 8 -11 10 8 10 12 0 22 -4 22 -10z m1920 0
c0 -12 -27 -12 -55 0 -16 7 -13 9 18 9 20 1 37 -3 37 -9z m1915 0 c7 -12 -19
-12 -55 0 -22 7 -21 8 12 9 20 1 40 -3 43 -9z m-9598 -42 c-3 -8 -6 -5 -6 6
-1 11 2 17 5 13 3 -3 4 -12 1 -19z m3913 6 c0 -2 -7 -4 -15 -4 -8 0 -15 4 -15
10 0 5 7 7 15 4 8 -4 15 -8 15 -10z m-11682 -1 c-16 -2 -40 -2 -55 0 -16 2 -3
4 27 4 30 0 43 -2 28 -4z m1945 0 c-13 -2 -33 -2 -45 0 -13 2 -3 4 22 4 25 0
35 -2 23 -4z m1945 0 c-10 -2 -26 -2 -35 0 -10 3 -2 5 17 5 19 0 27 -2 18 -5z
m1939 1 c-3 -3 -12 -4 -19 -1 -8 3 -5 6 6 6 11 1 17 -2 13 -5z m7801 -1 c-10
-2 -26 -2 -35 0 -10 3 -2 5 17 5 19 0 27 -2 18 -5z m1965 0 c-13 -2 -35 -2
-50 0 -16 2 -5 4 22 4 28 0 40 -2 28 -4z m1955 0 c-15 -2 -42 -2 -60 0 -18 2
-6 4 27 4 33 0 48 -2 33 -4z m-9881 -175 c-3 -8 -6 -5 -6 6 -1 11 2 17 5 13 3
-3 4 -12 1 -19z m-8554 5 c-13 -2 -35 -2 -50 0 -16 2 -5 4 22 4 28 0 40 -2 28
-4z m2135 0 c-10 -2 -26 -2 -35 0 -10 3 -2 5 17 5 19 0 27 -2 18 -5z m2150 0
c-10 -2 -26 -2 -35 0 -10 3 -2 5 17 5 19 0 27 -2 18 -5z m2135 0 c-7 -2 -19
-2 -25 0 -7 3 -2 5 12 5 14 0 19 -2 13 -5z m8590 0 c-7 -2 -21 -2 -30 0 -10 3
-4 5 12 5 17 0 24 -2 18 -5z m2145 0 c-10 -2 -28 -2 -40 0 -13 2 -5 4 17 4 22
1 32 -1 23 -4z m2155 0 c-13 -2 -35 -2 -50 0 -16 2 -5 4 22 4 28 0 40 -2 28
-4z m-19475 -30 c-16 -2 -40 -2 -55 0 -16 2 -3 4 27 4 30 0 43 -2 28 -4z
m2175 0 c-13 -2 -33 -2 -45 0 -13 2 -3 4 22 4 25 0 35 -2 23 -4z m2180 0 c-7
-2 -21 -2 -30 0 -10 3 -4 5 12 5 17 0 24 -2 18 -5z m8720 0 c-7 -2 -19 -2 -25
0 -7 3 -2 5 12 5 14 0 19 -2 13 -5z m2190 0 c-7 -2 -21 -2 -30 0 -10 3 -4 5
12 5 17 0 24 -2 18 -5z m2190 0 c-13 -2 -33 -2 -45 0 -13 2 -3 4 22 4 25 0 35
-2 23 -4z m-8766 -35 c-3 -8 -6 -5 -6 6 -1 11 2 17 5 13 3 -3 4 -12 1 -19z
m-8837 2 c-8 -5 -42 -9 -75 -9 -43 0 -54 3 -40 9 29 12 134 12 115 0z m2205 0
c-3 -5 -30 -10 -58 -10 -37 0 -48 3 -37 10 20 13 103 13 95 0z m2210 0 c-3 -5
-20 -10 -36 -10 -18 0 -28 4 -24 10 3 6 20 10 36 10 18 0 28 -4 24 -10z m2210
0 c-3 -5 -13 -10 -21 -10 -8 0 -12 5 -9 10 3 6 13 10 21 10 8 0 12 -4 9 -10z
m6665 0 c12 -8 11 -10 -7 -10 -13 0 -23 5 -23 10 0 13 11 13 30 0z m2235 0 c4
-6 -6 -10 -24 -10 -16 0 -33 5 -36 10 -4 6 6 10 24 10 16 0 33 -4 36 -10z
m2230 0 c8 -13 -65 -13 -85 0 -11 7 -2 10 32 10 26 0 50 -4 53 -10z m-6688
-32 c-3 -7 -5 -2 -5 12 0 14 2 19 5 13 2 -7 2 -19 0 -25z m-9024 -5 c-13 -2
-33 -2 -45 0 -13 2 -3 4 22 4 25 0 35 -2 23 -4z m2260 0 c-7 -2 -21 -2 -30 0
-10 3 -4 5 12 5 17 0 24 -2 18 -5z m2260 0 c-7 -2 -19 -2 -25 0 -7 3 -2 5 12
5 14 0 19 -2 13 -5z m2238 -20 c-12 -20 -14 -14 -5 12 4 9 9 14 11 11 3 -2 0
-13 -6 -23z m4546 21 c-3 -3 -12 -4 -19 -1 -8 3 -5 6 6 6 11 1 17 -2 13 -5z
m2266 -1 c-7 -2 -21 -2 -30 0 -10 3 -4 5 12 5 17 0 24 -2 18 -5z m2270 0 c-13
-2 -33 -2 -45 0 -13 2 -3 4 22 4 25 0 35 -2 23 -4z m-15975 -30 c-10 -2 -26
-2 -35 0 -10 3 -2 5 17 5 19 0 27 -2 18 -5z m2295 0 c-7 -2 -19 -2 -25 0 -7 3
-2 5 12 5 14 0 19 -2 13 -5z m11500 0 c-7 -2 -21 -2 -30 0 -10 3 -4 5 12 5 17
0 24 -2 18 -5z m2305 0 c-10 -2 -26 -2 -35 0 -10 3 -2 5 17 5 19 0 27 -2 18
-5z m-16212 -31 c6 -4 13 -15 17 -24 5 -14 -5 -17 -70 -23 -41 -4 -98 -3 -126
2 l-52 10 45 2 c25 1 63 10 85 21 42 20 82 25 101 12z m2318 2 c9 -3 16 -12
16 -19 0 -7 6 -15 13 -18 25 -9 -129 -17 -163 -8 l-35 9 35 1 c20 1 44 7 55
15 11 7 29 16 40 19 11 2 21 5 22 6 1 0 8 -2 17 -5z m2322 -47 c-19 -5 -48 -4
-67 1 -27 8 -29 10 -11 11 13 1 36 10 50 22 l26 20 18 -23 c17 -23 17 -23 -16
-31z m2358 11 c7 -5 4 -8 -6 -8 -10 0 -27 -9 -39 -21 -23 -23 -24 -23 -33 9
-6 18 -4 22 14 22 14 0 24 8 27 21 6 20 6 20 16 3 6 -11 15 -22 21 -26z m4687
16 c6 -8 23 -14 38 -15 l26 0 -24 -10 c-14 -5 -43 -7 -66 -3 -40 5 -42 7 -32
28 12 25 38 24 58 0z m2344 9 c17 -9 48 -19 70 -23 l40 -6 -56 -8 c-30 -4 -74
-4 -96 1 -37 7 -40 10 -32 31 10 26 33 28 74 5z m2380 -9 c11 -8 42 -15 70
-15 l50 -2 -62 -10 c-33 -5 -91 -6 -126 -3 -56 6 -65 10 -60 24 4 9 11 20 17
25 15 10 86 -2 111 -19z m-7062 -13 c23 -9 27 -16 26 -48 -1 -24 -3 -29 -6
-15 -4 22 -48 52 -77 52 -14 0 -14 3 1 20 9 11 20 15 23 10 3 -5 18 -13 33
-19z m-9636 -28 c3 -7 -14 -14 -44 -19 -26 -4 -58 -13 -70 -21 -13 -8 -39 -13
-65 -11 l-43 3 41 13 c27 8 44 19 47 33 5 18 12 20 68 17 37 -2 64 -8 66 -15z
m2410 0 c3 -7 -10 -15 -31 -18 -19 -4 -40 -13 -47 -21 -6 -8 -28 -14 -48 -13
l-36 0 32 16 c17 9 34 25 36 35 5 16 13 19 48 16 23 -2 44 -8 46 -15z m2410 0
c3 -7 -7 -15 -21 -19 -13 -3 -27 -12 -30 -20 -3 -8 -15 -14 -28 -14 l-22 0 22
20 c12 12 22 28 22 36 0 19 51 16 57 -3z m7287 -8 c4 -14 11 -25 16 -25 6 0
10 -4 10 -10 0 -16 -16 -12 -54 13 -43 27 -46 47 -7 47 22 0 30 -6 35 -25z
m2446 6 c0 -12 12 -24 33 -32 l32 -13 -33 -4 c-20 -2 -41 2 -50 11 -10 8 -32
18 -49 22 -57 12 -41 35 24 35 36 0 43 -3 43 -19z m2445 -1 c3 -11 18 -23 33
-26 53 -11 56 -19 10 -22 -30 -2 -55 2 -70 12 -13 8 -42 18 -65 22 -24 4 -43
10 -43 14 0 15 16 20 71 20 49 0 59 -3 64 -20z m-17277 -77 c-10 -2 -28 -2
-40 0 -13 2 -5 4 17 4 22 1 32 -1 23 -4z m2495 0 c-7 -2 -21 -2 -30 0 -10 3
-4 5 12 5 17 0 24 -2 18 -5z m2484 1 c-3 -3 -12 -4 -19 -1 -8 3 -5 6 6 6 11 1
17 -2 13 -5z m7490 0 c-3 -3 -12 -4 -19 -1 -8 3 -5 6 6 6 11 1 17 -2 13 -5z
m2506 -1 c-7 -2 -21 -2 -30 0 -10 3 -4 5 12 5 17 0 24 -2 18 -5z m2495 0 c-10
-2 -28 -2 -40 0 -13 2 -5 4 17 4 22 1 32 -1 23 -4z m-7491 -35 c-3 -8 -6 -5
-6 6 -1 11 2 17 5 13 3 -3 4 -12 1 -19z m-2540 -30 c-3 -7 -5 -2 -5 12 0 14 2
19 5 13 2 -7 2 -19 0 -25z m-7709 -5 c-16 -2 -40 -2 -55 0 -16 2 -3 4 27 4 30
0 43 -2 28 -4z m2570 0 c-10 -2 -28 -2 -40 0 -13 2 -5 4 17 4 22 1 32 -1 23
-4z m2565 0 c-7 -2 -19 -2 -25 0 -7 3 -2 5 12 5 14 0 19 -2 13 -5z m7724 1
c-3 -3 -12 -4 -19 -1 -8 3 -5 6 6 6 11 1 17 -2 13 -5z m2581 -1 c-10 -2 -28
-2 -40 0 -13 2 -5 4 17 4 22 1 32 -1 23 -4z m2580 0 c-16 -2 -40 -2 -55 0 -16
2 -3 4 27 4 30 0 43 -2 28 -4z m-18165 -30 c-7 -2 -19 -2 -25 0 -7 3 -2 5 12
5 14 0 19 -2 13 -5z m2614 1 c-3 -3 -12 -4 -19 -1 -8 3 -5 6 6 6 11 1 17 -2
13 -5z m13050 0 c-3 -3 -12 -4 -19 -1 -8 3 -5 6 6 6 11 1 17 -2 13 -5z m2616
-1 c-7 -2 -19 -2 -25 0 -7 3 -2 5 12 5 14 0 19 -2 13 -5z m-18426 -39 c-3 -3
-12 -4 -19 -1 -8 3 -5 6 6 6 11 1 17 -2 13 -5z m18576 -1 c-7 -2 -19 -2 -25 0
-7 3 -2 5 12 5 14 0 19 -2 13 -5z m-18700 -30 c-13 -2 -33 -2 -45 0 -13 2 -3
4 22 4 25 0 35 -2 23 -4z m2695 0 c-10 -2 -28 -2 -40 0 -13 2 -5 4 17 4 22 1
32 -1 23 -4z m2679 1 c-3 -3 -12 -4 -19 -1 -8 3 -5 6 6 6 11 1 17 -2 13 -5z
m8070 0 c-3 -3 -12 -4 -19 -1 -8 3 -5 6 6 6 11 1 17 -2 13 -5z m2701 -1 c-10
-2 -26 -2 -35 0 -10 3 -2 5 17 5 19 0 27 -2 18 -5z m2695 0 c-13 -2 -35 -2
-50 0 -16 2 -5 4 22 4 28 0 40 -2 28 -4z m137 -39 c0 -2 -9 -4 -20 -4 -11 0
-20 4 -20 9 0 5 9 7 20 4 11 -3 20 -7 20 -9z m-19133 0 c-3 -3 -12 -4 -19 -1
-8 3 -5 6 6 6 11 1 17 -2 13 -5z m8180 -26 c-3 -7 -5 -2 -5 12 0 14 2 19 5 13
2 -7 2 -19 0 -25z m-8299 -5 c-10 -2 -28 -2 -40 0 -13 2 -5 4 17 4 22 1 32 -1
23 -4z m2759 1 c-3 -3 -12 -4 -19 -1 -8 3 -5 6 6 6 11 1 17 -2 13 -5z m13856
-1 c-7 -2 -19 -2 -25 0 -7 3 -2 5 12 5 14 0 19 -2 13 -5z m2770 0 c-7 -2 -21
-2 -30 0 -10 3 -4 5 12 5 17 0 24 -2 18 -5z m-19494 -42 c14 -26 -9 -31 -129
-30 -90 1 -92 2 -42 10 30 5 63 16 75 24 31 22 84 19 96 -4z m2795 2 c10 -25
-12 -33 -94 -32 -58 1 -67 3 -39 8 19 4 46 15 59 24 31 22 66 22 74 0z m2796
-3 c13 -25 6 -28 -70 -32 -38 -2 -54 -7 -52 -15 1 -7 -4 -13 -12 -13 -8 0 -21
-3 -29 -6 -10 -3 -16 3 -19 20 -5 24 -3 25 50 25 40 0 62 5 81 20 33 25 38 25
51 1z m8424 4 c9 -9 29 -20 44 -24 22 -7 16 -8 -30 -9 -50 -1 -58 2 -58 17 0
34 19 41 44 16z m2826 1 c10 -9 37 -19 61 -24 39 -8 35 -9 -42 -10 -47 -1 -89
2 -92 5 -3 4 -2 15 4 25 12 23 46 25 69 4z m-8450 -27 c0 -5 -6 -8 -14 -8 -7
0 -20 -10 -29 -22 l-15 -23 -10 25 c-8 21 -6 26 9 28 9 2 23 10 30 18 10 12
14 12 20 2 5 -7 9 -16 9 -20z m2842 2 c15 0 18 -8 18 -42 l-1 -43 -14 33 c-10
23 -23 34 -43 38 -23 5 -28 10 -25 25 5 17 7 17 26 4 12 -8 29 -15 39 -15z
m-8652 -4 c0 -2 3 -11 6 -20 5 -12 0 -16 -22 -16 -16 0 -42 -7 -58 -15 -15 -8
-38 -15 -50 -14 -21 0 -21 0 2 9 12 5 22 18 22 29 0 11 6 22 13 24 15 7 87 9
87 3z m11580 -25 c0 -20 6 -31 18 -34 13 -4 11 -5 -5 -6 -13 0 -23 3 -23 9 0
5 -11 12 -24 16 -13 3 -26 14 -29 25 -4 16 0 19 29 19 31 0 34 -3 34 -29z
m2912 7 c-1 -9 8 -24 20 -32 30 -21 2 -22 -38 -1 -16 8 -39 15 -51 15 -17 0
-23 6 -23 21 0 18 5 20 48 17 37 -2 46 -6 44 -20z m-11672 -38 c0 -5 -5 -10
-11 -10 -5 0 -7 5 -4 10 3 6 8 10 11 10 2 0 4 -4 4 -10z m-3017 -47 c-7 -2
-21 -2 -30 0 -10 3 -4 5 12 5 17 0 24 -2 18 -5z m11864 1 c-3 -3 -12 -4 -19
-1 -8 3 -5 6 6 6 11 1 17 -2 13 -5z m2966 -1 c-7 -2 -21 -2 -30 0 -10 3 -4 5
12 5 17 0 24 -2 18 -5z m-15125 -100 c-10 -2 -26 -2 -35 0 -10 3 -2 5 17 5 19
0 27 -2 18 -5z m3079 1 c-3 -3 -12 -4 -19 -1 -8 3 -5 6 6 6 11 1 17 -2 13 -5z
m9256 -1 c-7 -2 -21 -2 -30 0 -10 3 -4 5 12 5 17 0 24 -2 18 -5z m3085 0 c-10
-2 -26 -2 -35 0 -10 3 -2 5 17 5 19 0 27 -2 18 -5z m-6161 -45 c-3 -8 -6 -5
-6 6 -1 11 2 17 5 13 3 -3 4 -12 1 -19z m-9460 -24 c-3 -3 -12 -4 -19 -1 -8 3
-5 6 6 6 11 1 17 -2 13 -5z m15816 -1 c-7 -2 -19 -2 -25 0 -7 3 -2 5 12 5 14
0 19 -2 13 -5z m-15905 -30 c-10 -2 -26 -2 -35 0 -10 3 -2 5 17 5 19 0 27 -2
18 -5z m3199 1 c-3 -3 -12 -4 -19 -1 -8 3 -5 6 6 6 11 1 17 -2 13 -5z m9596
-1 c-7 -2 -19 -2 -25 0 -7 3 -2 5 12 5 14 0 19 -2 13 -5z m3205 0 c-10 -2 -26
-2 -35 0 -10 3 -2 5 17 5 19 0 27 -2 18 -5z m-16195 -70 c-7 -2 -21 -2 -30 0
-10 3 -4 5 12 5 17 0 24 -2 18 -5z m16390 0 c-7 -2 -19 -2 -25 0 -7 3 -2 5 12
5 14 0 19 -2 13 -5z m-16485 -30 c-10 -2 -26 -2 -35 0 -10 3 -2 5 17 5 19 0
27 -2 18 -5z m3309 1 c-3 -3 -12 -4 -19 -1 -8 3 -5 6 6 6 11 1 17 -2 13 -5z
m6630 -26 c-3 -7 -5 -2 -5 12 0 14 2 19 5 13 2 -7 2 -19 0 -25z m6641 25 c-10
-2 -26 -2 -35 0 -10 3 -2 5 17 5 19 0 27 -2 18 -5z m-16785 -70 c-7 -2 -19 -2
-25 0 -7 3 -2 5 12 5 14 0 19 -2 13 -5z m13584 1 c-3 -3 -12 -4 -19 -1 -8 3
-5 6 6 6 11 1 17 -2 13 -5z m3396 -1 c-7 -2 -21 -2 -30 0 -10 3 -4 5 12 5 17
0 24 -2 18 -5z m-17068 -33 c-3 -5 -15 -10 -26 -10 -11 0 -17 5 -14 10 3 6 15
10 26 10 11 0 17 -4 14 -10z m3435 6 c0 -2 -9 -6 -20 -9 -11 -3 -18 -1 -14 4
5 9 34 13 34 5z m10290 -6 c0 -5 -2 -10 -4 -10 -3 0 -8 5 -11 10 -3 6 -1 10 4
10 6 0 11 -4 11 -10z m3445 0 c8 -13 -15 -13 -35 0 -12 8 -11 10 7 10 12 0 25
-4 28 -10z m-17278 -36 c-3 -3 -12 -4 -19 -1 -8 3 -5 6 6 6 11 1 17 -2 13 -5z
m17366 -1 c-7 -2 -19 -2 -25 0 -7 3 -2 5 12 5 14 0 19 -2 13 -5z m-17463 -36
c0 -26 -25 -37 -84 -37 -43 0 -57 3 -46 10 8 5 29 10 46 10 16 0 39 7 50 15
24 18 34 19 34 2z m3498 -28 c-7 -5 -29 -9 -48 -9 -26 0 -31 3 -20 10 8 5 22
10 31 10 9 0 23 7 30 17 13 15 14 15 17 -2 2 -10 -2 -21 -10 -26z m14075 29
c12 -7 45 -18 72 -24 l50 -12 -62 -1 c-51 -1 -67 3 -83 19 -11 11 -20 22 -20
25 0 9 21 5 43 -7z m-6988 -69 c-8 -13 -25 -1 -25 17 0 8 -9 14 -20 14 -22 0
-23 1 -14 24 5 12 12 9 35 -15 16 -17 27 -34 24 -40z m3480 61 c3 -5 20 -14
38 -19 31 -10 30 -10 -13 -8 -34 2 -46 6 -48 20 -4 18 13 24 23 7z m-7062 -35
c-10 -13 -23 -25 -30 -25 -6 0 -14 -10 -16 -22 -4 -21 -4 -21 -6 2 -1 33 25
70 50 70 19 0 19 -1 2 -25z m-3630 -28 c-18 -6 -33 -14 -33 -18 0 -5 -4 -9 -9
-9 -4 0 -6 11 -4 24 6 28 29 37 58 22 18 -9 17 -11 -12 -19z m10832 -7 c-4 -7
-11 -8 -18 -2 -7 6 -21 12 -32 14 -18 5 -18 6 5 15 28 12 58 -6 45 -27z m3634
4 c27 -28 18 -30 -32 -9 -20 8 -49 15 -64 15 -25 1 -26 2 -11 14 24 18 78 8
107 -20z m-18024 16 c4 -6 -6 -10 -22 -10 -15 0 -41 -7 -57 -15 -33 -18 -73
-21 -43 -4 9 5 17 17 17 24 0 11 13 15 49 15 28 0 53 -4 56 -10z m-197 -77
c-10 -2 -26 -2 -35 0 -10 3 -2 5 17 5 19 0 27 -2 18 -5z m3659 1 c-3 -3 -12
-4 -19 -1 -8 3 -5 6 6 6 11 1 17 -2 13 -5z m11016 -1 c-7 -2 -19 -2 -25 0 -7
3 -2 5 12 5 14 0 19 -2 13 -5z m3675 0 c-10 -2 -26 -2 -35 0 -10 3 -2 5 17 5
19 0 27 -2 18 -5z m-18455 -30 c-7 -2 -19 -2 -25 0 -7 3 -2 5 12 5 14 0 19 -2
13 -5z m18540 0 c-7 -2 -19 -2 -25 0 -7 3 -2 5 12 5 14 0 19 -2 13 -5z
m-11166 -65 c-3 -7 -5 -2 -5 12 0 14 2 19 5 13 2 -7 2 -19 0 -25z m-7559 -5
c-10 -2 -28 -2 -40 0 -13 2 -5 4 17 4 22 1 32 -1 23 -4z m3775 0 c-7 -2 -19
-2 -25 0 -7 3 -2 5 12 5 14 0 19 -2 13 -5z m7574 -25 c-3 -7 -5 -2 -5 12 0 14
2 19 5 13 2 -7 2 -19 0 -25z m3786 25 c-7 -2 -19 -2 -25 0 -7 3 -2 5 12 5 14
0 19 -2 13 -5z m3795 0 c-10 -2 -26 -2 -35 0 -10 3 -2 5 17 5 19 0 27 -2 18
-5z m79 -29 c-3 -3 -12 -4 -19 -1 -8 3 -5 6 6 6 11 1 17 -2 13 -5z m-19309
-71 c-10 -2 -26 -2 -35 0 -10 3 -2 5 17 5 19 0 27 -2 18 -5z m3895 0 c-7 -2
-19 -2 -25 0 -7 3 -2 5 12 5 14 0 19 -2 13 -5z m11714 1 c-3 -3 -12 -4 -19 -1
-8 3 -5 6 6 6 11 1 17 -2 13 -5z m3911 -1 c-10 -2 -26 -2 -35 0 -10 3 -2 5 17
5 19 0 27 -2 18 -5z m-11761 -65 c-3 -7 -5 -2 -5 12 0 14 2 19 5 13 2 -7 2
-19 0 -25z m-8054 -35 c-7 -2 -21 -2 -30 0 -10 3 -4 5 12 5 17 0 24 -2 18 -5z
m4014 1 c-3 -3 -12 -4 -19 -1 -8 3 -5 6 6 6 11 1 17 -2 13 -5z m12190 -70 c-3
-3 -12 -4 -19 -1 -8 3 -5 6 6 6 11 1 17 -2 13 -5z m-12600 -170 c-3 -3 -12 -4
-19 -1 -8 3 -5 6 6 6 11 1 17 -2 13 -5z m12890 0 c-3 -3 -12 -4 -19 -1 -8 3
-5 6 6 6 11 1 17 -2 13 -5z m-4280 -56 c-3 -7 -5 -2 -5 12 0 14 2 19 5 13 2
-7 2 -19 0 -25z m-8780 -44 c-3 -3 -12 -4 -19 -1 -8 3 -5 6 6 6 11 1 17 -2 13
-5z m13236 -1 c-7 -2 -19 -2 -25 0 -7 3 -2 5 12 5 14 0 19 -2 13 -5z m-13356
-69 c-3 -3 -12 -4 -19 -1 -8 3 -5 6 6 6 11 1 17 -2 13 -5z m13526 -31 c-7 -2
-19 -2 -25 0 -7 3 -2 5 12 5 14 0 19 -2 13 -5z m-4526 -25 c-3 -8 -6 -5 -6 6
-1 11 2 17 5 13 3 -3 4 -12 1 -19z m-9180 -44 c-3 -3 -12 -4 -19 -1 -8 3 -5 6
6 6 11 1 17 -2 13 -5z m13883 -34 c0 -5 -2 -10 -4 -10 -3 0 -8 5 -11 10 -3 6
-1 10 4 10 6 0 11 -4 11 -10z m-14000 -40 c0 -5 -2 -10 -4 -10 -3 0 -8 5 -11
10 -3 6 -1 10 4 10 6 0 11 -4 11 -10z m9389 -30 c6 0 15 -9 21 -20 9 -16 8
-20 -6 -20 -9 0 -18 9 -21 20 -3 11 -9 20 -14 20 -5 0 -9 10 -8 23 l0 22 9
-22 c5 -13 14 -23 19 -23z m4706 10 c8 0 15 -4 15 -10 0 -5 -11 -10 -25 -10
-21 0 -25 5 -25 28 1 23 2 24 11 10 5 -10 17 -18 24 -18z m-14117 -2 c-5 -15
-58 -24 -58 -9 0 9 20 17 48 20 8 0 12 -5 10 -11z m4696 3 c3 -5 -8 -22 -24
-40 -26 -27 -30 -28 -30 -11 0 11 6 20 14 20 7 0 16 9 19 20 6 21 13 25 21 11z
m-4784 -41 c-8 -5 -23 -10 -32 -10 -9 0 -21 -8 -27 -17 -12 -23 -25 -11 -16
16 5 17 15 21 48 21 31 0 38 -3 27 -10z m14320 0 c0 -5 -11 -10 -24 -10 -14 0
-28 5 -31 10 -4 6 7 10 24 10 17 0 31 -4 31 -10z m-9613 -82 c-3 -8 -6 -5 -6
6 -1 11 2 17 5 13 3 -3 4 -12 1 -19z m4870 -30 c-3 -8 -6 -5 -6 6 -1 11 2 17
5 13 3 -3 4 -12 1 -19z m4893 6 c0 -2 -7 -4 -15 -4 -8 0 -15 4 -15 10 0 5 7 7
15 4 8 -4 15 -8 15 -10z m-14653 0 c-3 -3 -12 -4 -19 -1 -8 3 -5 6 6 6 11 1
17 -2 13 -5z m4820 -96 c-3 -8 -6 -5 -6 6 -1 11 2 17 5 13 3 -3 4 -12 1 -19z
m-4990 -4 c-3 -3 -12 -4 -19 -1 -8 3 -5 6 6 6 11 1 17 -2 13 -5z m14996 -1
c-7 -2 -19 -2 -25 0 -7 3 -2 5 12 5 14 0 19 -2 13 -5z m-10036 -45 c-3 -8 -6
-5 -6 6 -1 11 2 17 5 13 3 -3 4 -12 1 -19z m-5140 -54 c-3 -3 -12 -4 -19 -1
-8 3 -5 6 6 6 11 1 17 -2 13 -5z m15346 -1 c-7 -2 -19 -2 -25 0 -7 3 -2 5 12
5 14 0 19 -2 13 -5z m-5066 -105 c-3 -8 -6 -5 -6 6 -1 11 2 17 5 13 3 -3 4
-12 1 -19z m-10454 5 c-7 -2 -19 -2 -25 0 -7 3 -2 5 12 5 14 0 19 -2 13 -5z
m15694 1 c-3 -3 -12 -4 -19 -1 -8 3 -5 6 6 6 11 1 17 -2 13 -5z m-10480 -26
c-3 -8 -6 -5 -6 6 -1 11 2 17 5 13 3 -3 4 -12 1 -19z m-5390 -74 c-3 -3 -12
-4 -19 -1 -8 3 -5 6 6 6 11 1 17 -2 13 -5z m10730 -76 c-3 -8 -6 -5 -6 6 -1
11 2 17 5 13 3 -3 4 -12 1 -19z m-10964 -65 c-7 -2 -19 -2 -25 0 -7 3 -2 5 12
5 14 0 19 -2 13 -5z m-176 -99 c-3 -3 -12 -4 -19 -1 -8 3 -5 6 6 6 11 1 17 -2
13 -5z m16870 0 c-3 -3 -12 -4 -19 -1 -8 3 -5 6 6 6 11 1 17 -2 13 -5z
m-17164 -171 c-7 -2 -19 -2 -25 0 -7 3 -2 5 12 5 14 0 19 -2 13 -5z m11634
-15 c-3 -8 -6 -5 -6 6 -1 11 2 17 5 13 3 -3 4 -12 1 -19z m-5850 -30 c-3 -8
-6 -5 -6 6 -1 11 2 17 5 13 3 -3 4 -12 1 -19z m11730 16 c-3 -3 -12 -4 -19 -1
-8 3 -5 6 6 6 11 1 17 -2 13 -5z m-17690 -70 c-3 -3 -12 -4 -19 -1 -8 3 -5 6
6 6 11 1 17 -2 13 -5z m5860 -126 c-3 -7 -5 -2 -5 12 0 14 2 19 5 13 2 -7 2
-19 0 -25z m-6150 -44 c-3 -3 -12 -4 -19 -1 -8 3 -5 6 6 6 11 1 17 -2 13 -5z
m-120 -70 c-3 -3 -12 -4 -19 -1 -8 3 -5 6 6 6 11 1 17 -2 13 -5z m18630 0 c-3
-3 -12 -4 -19 -1 -8 3 -5 6 6 6 11 1 17 -2 13 -5z m-12460 -61 c-3 -10 -5 -4
-5 12 0 17 2 24 5 18 2 -7 2 -21 0 -30z m6290 -35 c-3 -7 -5 -2 -5 12 0 14 2
19 5 13 2 -7 2 -19 0 -25z m-12640 -4 c-3 -3 -12 -4 -19 -1 -8 3 -5 6 6 6 11
1 17 -2 13 -5z m18996 -1 c-7 -2 -21 -2 -30 0 -10 3 -4 5 12 5 17 0 24 -2 18
-5z m-6286 -105 c-3 -8 -6 -5 -6 6 -1 11 2 17 5 13 3 -3 4 -12 1 -19z m-12880
6 c-3 -3 -12 -4 -19 -1 -8 3 -5 6 6 6 11 1 17 -2 13 -5z m19336 -1 c-7 -2 -19
-2 -25 0 -7 3 -2 5 12 5 14 0 19 -2 13 -5z m-12916 -35 c-3 -7 -5 -2 -5 12 0
14 2 19 5 13 2 -7 2 -19 0 -25z m-6767 -162 c0 -2 -9 -6 -20 -9 -11 -3 -20 -1
-20 4 0 5 9 9 20 9 11 0 20 -2 20 -4z m13427 -158 c-3 -8 -6 -5 -6 6 -1 11 2
17 5 13 3 -3 4 -12 1 -19z"/>
<path d="M0 2045 l0 -2045 10000 0 10000 0 0 2045 0 2045 -10000 0 -10000 0 0
-2045z"/>
</g>
</svg>
